<?xml version="1.0" encoding="UTF-8" standalone="no"?>
<!-- Created with Inkscape (http://www.inkscape.org/) -->

<svg
   width="144.10677mm"
   height="375.15924mm"
   viewBox="0 0 144.10677 375.15924"
   version="1.1"
   id="svg5"
   inkscape:version="1.1.1 (3bf5ae0d25, 2021-09-20, custom)"
   sodipodi:docname="eangles.svg"
   xmlns:inkscape="http://www.inkscape.org/namespaces/inkscape"
   xmlns:sodipodi="http://sodipodi.sourceforge.net/DTD/sodipodi-0.dtd"
   xmlns="http://www.w3.org/2000/svg"
   xmlns:svg="http://www.w3.org/2000/svg">
  <sodipodi:namedview
     id="namedview7"
     pagecolor="#ffffff"
     bordercolor="#666666"
     borderopacity="1.0"
     inkscape:pageshadow="2"
     inkscape:pageopacity="0.0"
     inkscape:pagecheckerboard="0"
     inkscape:document-units="mm"
     showgrid="false"
     inkscape:zoom="0.83182076"
     inkscape:cx="378.68735"
     inkscape:cy="1090.9802"
     inkscape:window-width="1920"
     inkscape:window-height="1050"
     inkscape:window-x="0"
     inkscape:window-y="30"
     inkscape:window-maximized="1"
     inkscape:current-layer="layer1" />
  <defs
     id="defs2">
    <rect
       x="416.58947"
       y="1219.5249"
       width="137.32707"
       height="57.011929"
       id="rect42179" />
    <rect
       x="540.14539"
       y="230.61247"
       width="208.39473"
       height="74.092728"
       id="rect18581" />
    <rect
       x="69.661613"
       y="83.922081"
       width="234.13039"
       height="56.646149"
       id="rect11443" />
  </defs>
  <g
     inkscape:label="Capa 1"
     inkscape:groupmode="layer"
     id="layer1"
     transform="translate(-15.899892,41.966934)">
    <path
       id="path2195"
       style="fill:#000000;stroke-width:0.264583"
       d="m 96.880132,-41.966934 c -0.215688,0 -0.468079,0.604462 -1.299659,3.110405 -0.680511,2.050558 -0.686314,2.445845 -0.03566,2.445845 0.28245,0 0.580159,0.108162 0.661458,0.239779 0.08135,0.131622 0.16665,10.757948 0.189653,23.614062 l 0.04237,23.374284 -5.135086,0.19482 c -2.824308,0.10691 -6.147633,0.312793 -7.384563,0.457854 -12.286908,1.440939 -19.4839,2.972662 -26.9875,5.743837 -8.328345,3.075733 -13.292224,5.917593 -17.210834,9.852627 -1.79558,1.803115 -2.504534,2.754632 -3.434932,4.611605 -0.751962,1.50083 -1.221381,2.828872 -1.309481,3.704166 l -0.13746,1.364258 H 28.22386 c -6.601188,0 -6.614583,-7.94e-4 -6.614583,-0.571024 0,-0.314275 -0.06091,-0.633498 -0.135909,-0.709518 -0.13559,-0.13744 -5.268601,1.305535 -5.512842,1.549776 -0.22331,0.223311 0.0819,0.372452 2.428276,1.185458 2.815757,0.97564 3.36922,1.008838 3.28352,0.198954 l -0.06253,-0.595313 6.35,0.09199 c 3.4925,0.05039 6.464601,0.200928 6.605281,0.334863 0.14067,0.133948 0.407342,0.985838 0.592212,1.892907 0.18486,0.907074 0.707233,2.402921 1.160653,3.324345 1.1771,2.392035 5.171101,6.47841 8.494572,8.690943 1.426731,0.949814 2.594157,1.80996 2.594157,1.910994 0,0.101033 -2.470544,1.048192 -5.490104,2.104781 -7.190074,2.51592 -6.701214,2.393606 -5.820834,1.450041 0.72962,-0.781894 0.94319,-1.412317 0.479041,-1.412317 -0.13648,0 -1.237809,0.756012 -2.447396,1.680001 -2.61047,1.994104 -2.847757,2.645062 -1.008207,2.761072 0.65484,0.0413 2.02234,-0.01823 3.03909,-0.132292 1.44942,-0.1626 1.86755,-0.307728 1.93735,-0.67076 0.07004,-0.364408 -0.09811,-0.465355 -0.790133,-0.473356 l -0.879016,-0.01085 0.738456,-0.400492 c 0.887199,-0.481058 11.397006,-4.076237 11.916068,-4.076237 0.200253,0 1.602007,0.576742 3.115056,1.281576 4.612921,2.148877 11.85613,4.38322 18.229379,5.622912 1.527969,0.297218 3.552036,0.69075 4.497916,0.874882 0.945888,0.184118 1.719792,0.462258 1.719792,0.61805 0,0.15579 -1.156187,1.753075 -2.568837,3.549654 -1.41266,1.796571 -2.752114,3.504585 -2.976562,3.795634 -0.404482,0.52442 -0.411274,0.524725 -0.807186,0.01241 -0.347218,-0.44949 -0.445706,-0.466797 -0.752409,-0.132291 -0.413329,0.45082 -1.762098,4.140916 -1.760098,4.816242 7.94e-4,0.254664 0.07268,0.46302 0.159679,0.46302 0.248859,0 4.303527,-2.902992 4.501017,-3.22254 0.09734,-0.157641 -0.01812,-0.395578 -0.256831,-0.529166 -0.23872,-0.133591 -0.434083,-0.349203 -0.434083,-0.479042 0,-0.129839 1.012642,-1.50397 2.249993,-3.053561 1.23734,-1.549598 2.632046,-3.349477 3.099035,-3.999756 l 0.849043,-1.182357 3.052527,0.167948 c 1.679019,0.09246 4.005021,0.281963 5.169193,0.421163 3.695872,0.44191 15.564984,0.60565 19.446874,0.268201 9.3685,-0.81439 13.35994,-1.281246 17.29352,-2.022099 3.2792,-0.617607 3.22003,-0.634759 6.27714,1.83038 1.51555,1.222089 3.17261,2.599272 3.68194,3.059761 l 0.92605,0.837158 -0.79375,-0.18035 c -1.30126,-0.295342 -1.5875,-0.269776 -1.5875,0.140043 0,0.24679 0.92178,0.750607 2.51354,1.374076 2.62699,1.028962 3.70416,1.231548 3.70416,0.696598 0,-0.550722 -3.22783,-5.238956 -3.60701,-5.238956 -0.44431,0 -0.47691,0.838251 -0.0491,1.266072 0.1722,0.172201 0.23847,0.387325 0.14727,0.478524 -0.0912,0.09123 -1.07869,-0.591143 -2.19469,-1.516703 -1.11601,-0.925549 -2.55884,-2.086356 -3.20601,-2.579688 -0.6993,-0.533078 -1.07977,-0.994007 -0.93793,-1.135848 0.13128,-0.131278 1.41851,-0.534705 2.86029,-0.896586 11.01727,-2.765285 18.87113,-6.702964 24.50548,-12.286071 3.08652,-3.058494 4.25315,-5.178545 4.7377,-8.609294 0.37516,-2.65623 -0.11595,-5.149633 -1.55133,-7.881173 -1.13052,-2.151379 -4.11506,-5.423085 -6.62905,-7.266739 -5.34613,-3.920882 -17.31139,-8.821059 -24.65896,-10.099124 -0.65484,-0.113905 -3.10785,-0.573542 -5.45083,-1.021643 -5.68855,-1.087932 -12.68551,-1.852962 -18.78387,-2.053106 -2.75117,-0.09029 -5.06125,-0.22076 -5.13405,-0.29042 -0.07276,-0.06967 -0.164388,-10.72802308 -0.203089,-23.684859 -0.0702,-23.50294 -0.06886,-23.557296 0.463021,-23.41821 0.293211,0.07668 0.598178,0.03418 0.677479,-0.09405 0.179541,-0.290492 -1.46425,-5.538163 -1.734781,-5.538163 z m 0.839227,53.910404 5.468921,0.137462 c 13.38937,0.337127 28.47735,3.342317 38.14547,7.597468 10.02398,4.411771 15.27509,8.909762 17.21807,14.748453 0.46241,1.390727 0.5497,2.155569 0.45941,4.044198 -0.15956,3.337293 -1.31816,5.62472 -4.42506,8.734867 -4.49294,4.497633 -9.79604,7.48937 -18.71824,10.560596 -0.89601,0.308427 -3.42876,1.023209 -5.62808,1.588533 l -3.99872,1.027844 -6.54275,-5.249808 c -3.59863,-2.887578 -8.35381,-6.71771 -10.56731,-8.511109 -2.21349,-1.793398 -5.51785,-4.442016 -7.34271,-5.885945 -1.824869,-1.443927 -3.526148,-2.85559 -3.780648,-3.13676 -0.423277,-0.467627 -0.468151,-1.484203 -0.528648,-11.926403 -0.03637,-6.278549 0.0026,-11.93605 0.08682,-12.57236 z m -4.27519,0.115755 3.042708,0.08113 v 12.435418 12.435416 l -0.856795,0.08268 c -0.471051,0.04546 -1.006838,0.296009 -1.190625,0.556555 -0.20007,0.283612 -2.298152,1.137096 -5.228622,2.127002 -2.69214,0.909396 -5.787765,1.995099 -6.879166,2.412772 -2.99846,1.147506 -13.5333,4.711395 -14.496791,4.904094 -0.744558,0.148913 -0.979268,0.03565 -1.953884,-0.938961 -0.869141,-0.869143 -1.241632,-1.073839 -1.729611,-0.951363 -0.647602,0.162536 -1.279149,-0.221893 -3.847311,-2.343009 -1.26365,-1.043676 -2.578653,-3.276737 -2.578653,-4.378028 0,-0.308546 -0.172416,-0.545703 -0.396875,-0.545703 -0.62529,0 -0.476073,1.080309 0.388607,2.810681 0.79384,1.588614 2.400853,3.200899 4.704622,4.720126 0.618469,0.407876 1.124479,0.951543 1.124479,1.207678 0,0.516427 0.507164,0.786515 1.476396,0.786515 1.161966,0 0.666615,0.500074 -1.013375,1.02216 -0.9095,0.282644 -2.487078,0.835318 -3.505729,1.228349 -1.018641,0.393033 -3.921749,1.416657 -6.450769,2.274796 -2.529031,0.858139 -4.731681,1.555794 -4.894792,1.550293 -0.459531,-0.0154 -3.183257,-1.704 -5.280297,-3.273702 C 40.24484,47.544803 37.500078,44.263151 36.554618,41.509103 33.905131,33.791366 38.487146,26.84618 49.920211,21.249358 53.81111,19.344647 58.706518,17.438262 62.487919,16.355083 71.42964,13.793741 85.461068,11.846527 93.444169,12.05922 Z M 44.099377,36.8789 c -0.8431,0 -1.621935,0.539167 -1.276926,0.884183 0.09575,0.09575 0.670586,0.17415 1.276926,0.17415 0.60633,0 1.180608,-0.0784 1.276409,-0.17415 C 45.720805,37.418067 44.942467,36.8789 44.099377,36.8789 Z m -5.34231,0.0041 c -0.87125,-0.0042 -1.2937,0.326847 -1.00769,0.789616 0.22274,0.360415 2.173167,0.336489 2.399336,-0.02945 0.2519,-0.407588 -0.384636,-0.755361 -1.391646,-0.760161 z m 46.681905,0.08992 c -0.666408,-0.05205 -1.25522,0.176036 -1.25522,0.572575 0,0.293812 0.330946,0.391707 1.322917,0.391707 1.446871,0 1.733261,-0.386026 0.605131,-0.814937 -0.220446,-0.08382 -0.450691,-0.131993 -0.672828,-0.149345 z m -25.363825,0.0801 c -0.209027,7.94e-4 -0.465876,0.0172 -0.778764,0.04702 -0.811419,0.07738 -1.041797,0.210059 -1.041797,0.60048 0,0.371441 0.188555,0.500346 0.727604,0.497644 1.11306,-0.0055 1.918229,-0.285321 1.918229,-0.666626 0,-0.342267 -0.198205,-0.480807 -0.825272,-0.478523 z m 30.558856,0.08578 c -0.595112,0.0241 -1.158584,0.150453 -1.158584,0.357601 0,0.194029 0.07922,0.432157 0.176215,0.529166 0.485489,0.485497 2.655689,-0.101942 2.329058,-0.630452 -0.124899,-0.202092 -0.751581,-0.280419 -1.346689,-0.256315 z m -42.06513,0.03462 c -0.495803,0.0076 -0.633037,0.109667 -0.633037,0.366902 0,0.343128 0.24461,0.410149 1.256771,0.345199 0.691229,-0.04435 1.25677,-0.199675 1.25677,-0.345199 0,-0.14552 -0.565541,-0.300849 -1.25677,-0.345198 -0.25304,-0.01624 -0.458478,-0.02424 -0.623734,-0.0217 z m 16.727143,10e-4 c -0.161647,-0.0027 -0.36054,0.0048 -0.604615,0.02067 -0.690748,0.04507 -1.284335,0.226503 -1.345137,0.411344 -0.07752,0.23549 0.278448,0.330729 1.236099,0.330729 1.040199,0 1.345139,-0.09319 1.345139,-0.411344 0,-0.243697 -0.146545,-0.343494 -0.631486,-0.351399 z m 9.235096,0.0026 c -0.484876,0.0082 -0.66611,0.100596 -0.66611,0.305407 0,0.202002 0.08476,0.452177 0.188619,0.556039 0.103859,0.103841 0.669412,0.153301 1.256771,0.11007 0.737949,-0.05431 1.068152,-0.201178 1.068152,-0.475423 0,-0.285757 -0.351872,-0.41943 -1.256771,-0.47749 -0.233611,-0.015 -0.429051,-0.02133 -0.590661,-0.0186 z m -20.081981,0.01499 c -1.082318,-0.08873 -1.672166,0.231173 -1.359606,0.736906 0.283908,0.459377 2.386936,0.233976 2.386936,-0.255799 0,-0.270158 -0.328197,-0.423889 -1.02733,-0.481107 z m 25.929167,0 c -1.082331,-0.08873 -1.672167,0.231173 -1.359607,0.736906 0.283909,0.459377 2.386936,0.233976 2.386936,-0.255799 0,-0.270158 -0.3282,-0.423889 -1.027329,-0.481107 z m -10.482046,0.08371 c -0.68204,0 -1.191172,0.133991 -1.256771,0.33073 -0.07871,0.23613 0.280752,0.330729 1.256771,0.330729 0.976019,0 1.335471,-0.09459 1.256771,-0.330729 -0.06558,-0.196739 -0.574731,-0.33073 -1.256771,-0.33073 z m 27.075349,0.932243 1.771468,1.385962 c 3.194711,2.500228 6.086101,4.794944 8.413961,6.677629 l 2.29029,1.852083 -1.30379,0.08268 c -0.75903,0.04811 -1.42239,0.245299 -1.58802,0.471806 -0.64522,0.882384 -3.47063,1.258815 -9.142592,1.218014 -2.983169,-0.02146 -6.078807,-0.131575 -6.879166,-0.244947 -1.30397,-0.184708 -1.455208,-0.27242 -1.455208,-0.843359 0,-0.974429 -0.508485,-0.934297 -1.299147,0.102319 -0.70558,0.924809 -0.709102,1.629732 -0.0062,1.360124 0.198718,-0.07626 1.88373,0.0324 3.743957,0.241329 3.937889,0.442479 8.424201,0.485532 11.055136,0.105937 1.01866,-0.146974 2.35669,-0.337375 2.97398,-0.422714 0.68857,-0.0952 1.26614,-0.0356 1.49397,0.15348 0.29203,0.242367 0.67179,0.130728 1.7787,-0.521933 1.68008,-0.990658 1.16676,-1.223645 6.16913,2.795179 10.64798,8.55441 10.13364,8.050769 8.56589,8.392769 -1.58768,0.346328 -7.95327,1.233868 -11.98583,1.671216 -4.55546,0.494062 -18.404164,0.725527 -23.151043,0.387056 -5.477891,-0.390588 -9.030952,-0.739985 -9.195821,-0.904854 -0.08907,-0.08906 -0.0208,-0.303225 0.15141,-0.475423 0.421119,-0.4211 0.398309,-1.265556 -0.03411,-1.265556 -0.19092,0 -0.621014,0.371129 -0.956013,0.824239 -0.58328,0.788918 -0.66652,0.816253 -1.967839,0.646472 -4.374872,-0.570794 -15.403465,-3.29197 -19.460323,-4.801782 -2.509721,-0.933926 -6.108153,-2.569204 -6.108153,-2.775542 0,-0.188124 3.541813,-1.44362 19.314584,-6.84506 5.457039,-1.86878 10.933903,-3.777669 12.170833,-4.242118 1.236929,-0.464452 5.036873,-1.785026 8.444444,-2.934705 z m -1.790072,1.581299 c -0.399093,0 -1.472777,1.331901 -1.472777,1.826762 0,0.56129 0.7639,0.281148 1.30483,-0.478524 0.640921,-0.900091 0.696486,-1.348238 0.167947,-1.348238 z m -3.152778,4.06796 c -0.06435,5.29e-4 -0.140272,0.01807 -0.22841,0.05581 -0.556453,0.238315 -1.579872,1.669035 -1.40095,1.958536 0.26044,0.4214 0.510202,0.324212 1.309481,-0.510046 0.642591,-0.670719 0.770337,-1.507801 0.319879,-1.5043 z m -6.40116,8.20415 c -0.06317,0.0049 -0.137012,0.02331 -0.221692,0.05581 -0.52442,0.201242 -1.53412,1.669504 -1.351338,1.965255 0.278077,0.44994 0.610402,0.286351 1.3286,-0.655258 0.602472,-0.789836 0.686642,-1.399907 0.24443,-1.365808 z m -3.097485,4.134115 c -0.366371,0.0021 -1.521354,1.569693 -1.521354,2.06499 0,0.6305 0.764529,0.291651 1.301213,-0.576709 0.627959,-1.016066 0.69828,-1.490882 0.220141,-1.488281 z m 8.354528,26.793714 c -0.241858,-0.08053 -1.938382,4.298085 -1.938382,5.002795 0,0.09866 0.267891,0.217577 0.595312,0.264065 0.518787,0.07359 0.616993,0.288305 0.76481,1.671732 0.09334,0.873133 0.182729,5.281668 0.198438,9.79682 0.02461,7.033717 -0.03054,8.293577 -0.38344,8.797397 -0.226531,0.32343 -0.53036,0.58808 -0.675409,0.58808 -0.32193,0 -9.441577,4.48588 -12.009086,5.90713 -1.018651,0.56387 -3.067473,1.73729 -4.552693,2.60759 -1.818114,1.06531 -2.866157,1.52997 -3.207557,1.42162 -0.365869,-0.11613 -0.735357,0.0987 -1.326534,0.77205 -0.450641,0.51325 -0.971732,0.93162 -1.15807,0.92863 -0.186352,-0.003 -0.9338,-1.03389 -1.661396,-2.29134 -0.727612,-1.25744 -1.56818,-2.59437 -1.867588,-2.97139 -0.59291,-0.74658 -5.408453,-8.88741 -5.408453,-9.14311 0,-0.0864 0.35774,0.10748 0.7953,0.43098 0.608031,0.44954 0.868458,0.51491 1.105358,0.27802 0.2369,-0.2369 -0.215448,-0.80819 -1.91978,-2.42414 -1.2265,-1.1629 -2.378665,-2.11836 -2.560566,-2.12236 -0.518959,-0.0126 -0.340984,1.69314 0.599445,5.74642 0.228323,0.984 0.879735,0.71803 0.972035,-0.39687 0.08093,-0.97779 0.109902,-0.94422 2.027782,2.3151 1.070359,1.81901 2.491113,4.14074 3.156913,5.15938 1.356,2.07461 4.253437,6.91951 6.408396,10.71562 0.784778,1.38244 1.760355,3.04326 2.167827,3.69022 0.896411,1.42326 0.931968,2.01242 0.145727,2.42414 -1.16599,0.61058 -4.92144,3.4236 -6.593395,4.93872 -1.61027,1.45928 -1.837259,1.57318 -4.333071,2.17506 -1.448419,0.3493 -2.752492,0.64053 -2.898013,0.64853 -0.145521,0.008 -0.621773,0.15503 -1.058333,0.32712 -0.43656,0.17208 -1.746248,0.61133 -2.910417,0.97616 -3.081949,0.96585 -6.419262,2.20271 -7.964374,2.95176 -0.742108,0.35976 -1.432044,0.65371 -1.533755,0.65371 -0.1017,0 -1.199941,0.62507 -2.440162,1.38906 -1.240226,0.76398 -2.931012,1.79598 -3.757392,2.29288 -0.82637,0.4969 -2.692861,2.105 -4.148067,3.57395 -3.22702,3.25749 -4.234613,5.04067 -4.723743,8.36124 -0.6729,4.56817 0.806993,8.52841 4.691703,12.55427 l 1.922363,1.99213 -0.515214,1.91771 c -1.260467,4.69406 -1.476217,11.68404 -0.47594,15.41147 1.371241,5.10981 4.303254,9.33818 8.17211,11.78481 0.769282,0.48648 1.364618,1.01082 1.322917,1.16478 -0.09373,0.34629 -3.382738,3.47454 -3.382738,3.21738 0,-0.10214 0.188435,-0.55078 0.419096,-0.99684 0.279021,-0.53957 0.331215,-0.8992 0.155545,-1.07487 -0.415267,-0.41527 -0.684192,-0.10808 -2.130102,2.43499 -1.31585,2.31431 -1.534394,2.91392 -1.189075,3.25924 0.267819,0.26782 4.951109,-1.96139 5.773809,-2.74816 0.472189,-0.45157 -0.232751,-0.81353 -1.009242,-0.51831 -0.635709,0.2417 -0.685409,0.22079 -0.463537,-0.19379 0.136639,-0.25532 0.8612,-0.98063 1.60972,-1.61179 1.54292,-1.30101 1.518793,-1.30035 4.506703,-0.0393 2.615171,1.10377 6.60499,2.03115 10.384377,2.41432 6.22055,0.63065 17.304745,-0.84621 24.809857,-3.30574 3.400788,-1.11449 11.072889,-4.33263 15.07453,-6.32313 6.097927,-3.03322 11.311077,-6.30892 18.258317,-11.47268 1.23693,-0.91937 2.44946,-1.67335 2.69441,-1.67535 0.37725,-0.003 7.09517,5.63815 7.09517,5.95829 0,0.0606 -0.30576,-0.006 -0.67902,-0.14779 -0.94357,-0.35875 -1.43764,-0.32215 -1.43764,0.10645 0,0.20825 1.08521,0.83205 2.53214,1.45521 2.51059,1.08127 3.55327,1.32634 3.55327,0.83612 0,-0.21757 -2.74768,-4.96246 -3.04684,-5.26169 -0.058,-0.058 -0.29331,-0.0333 -0.52296,0.0548 -0.37954,0.1456 -0.37873,0.23542 0.008,0.9834 0.23415,0.45271 0.37386,0.87517 0.31006,0.93896 -0.0638,0.0638 -0.88456,-0.57257 -1.82366,-1.41387 -0.93909,-0.8413 -2.26885,-1.91678 -2.95486,-2.39003 -1.73606,-1.19761 -1.95645,-1.8781 -0.65836,-2.03295 0.78979,-0.0942 5.2129,-1.18428 5.91075,-1.45676 0.29104,-0.11364 1.00542,-0.35509 1.5875,-0.5364 0.58208,-0.18132 1.53458,-0.54877 2.11667,-0.81649 0.58208,-0.26774 2.18942,-0.92619 3.57187,-1.46348 4.05006,-1.87588 5.99476,-2.90481 10.17148,-5.6658 0.10733,0 0.86365,-0.56554 1.68103,-1.25677 4.2468,-3.5914 6.66833,-8.02225 6.66833,-12.20339 0,-2.94686 -2.46245,-7.78499 -5.52473,-10.85515 l -1.68879,-1.69344 0.5669,-1.61386 c 1.50602,-4.28545 1.79875,-10.63652 0.69608,-15.1076 -1.66947,-6.76938 -5.7039,-11.68987 -12.15947,-14.8301 -5.47873,-2.66505 -13.51489,-3.67239 -22.23895,-2.78795 -4.32302,0.43826 -12.39783,2.40071 -17.985465,4.37131 -1.874441,0.66106 -3.476273,1.1343 -3.559474,1.0511 -0.08314,-0.0832 -0.164468,-7.4736 -0.180867,-16.42277 -0.02921,-15.934059 -0.01945,-16.268394 0.479042,-16.138034 0.279968,0.07322 0.566451,-0.01646 0.636653,-0.199469 0.177176,-0.46164 -1.293831,-4.987428 -1.660882,-5.109766 z M 89.78651,109.87909 c 0.101505,-0.0135 0.183706,-0.0116 0.252699,0.005 0.09199,0.0217 0.16016,0.0687 0.218075,0.13849 0.191439,0.23066 0.263188,2.21929 0.215489,5.97742 l -0.07131,5.63118 -1.719791,0.73225 c -2.496201,1.06253 -10.0393,5.05404 -12.992489,6.87555 -1.397601,0.86203 -2.61356,1.56735 -2.702161,1.56735 -0.307699,0 -5.207433,-8.42688 -5.207433,-8.95604 0,-0.13815 0.595936,-0.39418 1.324467,-0.56896 0.99931,-0.23973 1.359976,-0.46001 1.469675,-0.89711 0.07998,-0.31866 0.704432,-0.91778 1.387512,-1.33118 2.585652,-1.56487 7.944366,-4.50399 10.626225,-5.82807 1.532583,-0.75666 3.02504,-1.51601 3.316079,-1.68723 0.291039,-0.17121 1.325089,-0.65963 2.298049,-1.08572 0.803587,-0.35193 1.2804,-0.532 1.584917,-0.57258 z m 29.1884,6.17275 c 0.81263,-0.0112 1.59597,-0.008 2.3151,0.0114 0.95884,0.0257 1.80324,0.0791 2.44895,0.16278 8.96377,1.16106 13.703,3.19362 17.9343,7.69152 5.77517,6.13903 7.1375,15.61182 3.73053,25.93847 -0.36008,1.0914 -0.75581,2.2225 -0.87954,2.51354 -0.75276,1.7706 -1.6906,3.79563 -2.0221,4.36563 -0.21155,0.36381 -0.9204,1.73301 -1.57509,3.0427 -1.17301,2.34657 -2.41631,4.28949 -4.7408,7.40834 -0.65074,0.87313 -1.75338,2.36134 -2.44998,3.30677 -0.6966,0.94543 -4.06404,4.54961 -7.48378,8.00933 -4.07938,4.12707 -6.3997,6.28672 -6.74687,6.27972 -0.29105,-0.006 -1.86246,-1.10955 -3.49178,-2.45308 -5.217,-4.30189 -6.50984,-5.33886 -7.47241,-5.9955 -0.51822,-0.35352 -2.13269,-1.66708 -3.5879,-2.91868 -1.4552,-1.25161 -2.95938,-2.47373 -3.34243,-2.71611 -0.38305,-0.24231 -1.58987,-1.25108 -2.681489,-2.24121 -1.09161,-0.99014 -2.734556,-2.39571 -3.651456,-3.12333 -0.916911,-0.7276 -2.249212,-1.88006 -2.960545,-2.56108 -1.075168,-1.02937 -1.248603,-1.32175 -1.027842,-1.73426 0.36386,-0.67986 0.06824,-2.71611 -0.394293,-2.71611 -0.209791,0 -0.361733,0.27818 -0.361733,0.66145 0,0.92439 -0.657476,0.83583 -1.062985,-0.14314 -0.183279,-0.44248 -0.673915,-1.2746 -1.090374,-1.8495 -0.416441,-0.5749 -0.757058,-1.14452 -0.757058,-1.26555 0,-0.12103 -0.519742,-1.04457 -1.154969,-2.05259 -0.635231,-1.00802 -3.08101,-5.14889 -5.434809,-9.20203 -2.35381,-4.05312 -4.988097,-8.45844 -5.853906,-9.78958 -0.86581,-1.33115 -1.574652,-2.55795 -1.57665,-2.72593 -0.0059,-0.67577 14.001522,-8.40923 16.256373,-8.97516 0.6144,-0.15419 0.674378,-0.0961 0.674378,0.65319 0,0.52659 0.132461,0.82217 0.368453,0.82217 0.425747,0 0.68988,-0.56296 0.68988,-1.47123 0,-0.46824 0.259937,-0.76479 0.992188,-1.13223 2.900719,-1.45557 14.546617,-4.67693 19.248437,-5.32422 2.00474,-0.27599 4.7043,-0.44273 7.1422,-0.47646 z m -28.065471,11.04997 c -0.26692,0 -0.375687,0.33246 -0.375687,1.14671 0,0.63059 0.07922,1.22591 0.176215,1.32291 0.258199,0.25821 0.305303,0.23039 0.625803,-0.36845 0.36489,-0.68182 0.07687,-2.10117 -0.426331,-2.10117 z m -0.0098,5.02709 c -0.261149,0 -0.365868,0.36657 -0.365868,1.27899 0,0.70335 0.08605,1.36504 0.191201,1.47019 0.240159,0.24016 0.868516,-0.5938 0.863512,-1.14618 -0.0074,-0.84302 -0.334055,-1.603 -0.688845,-1.603 z m -18.50223,0.52916 c 0.35003,0 2.235552,2.77019 4.322733,6.35 0.721188,1.23694 2.734797,4.68974 4.474147,7.67292 1.73936,2.98317 3.884411,6.61458 4.767151,8.06979 1.781942,2.93755 2.720247,4.58289 2.720247,4.77077 0,0.27672 -0.486434,0.0981 -0.817004,-0.30024 -0.19386,-0.23358 -1.071795,-0.91054 -1.950786,-1.5043 -0.87898,-0.59376 -2.312204,-1.75182 -3.185335,-2.57349 -1.861312,-1.75162 -4.842123,-4.22518 -5.107183,-4.23798 -0.101592,-0.005 -1.017915,-0.77821 -2.036567,-1.71824 -1.01864,-0.94003 -2.555467,-2.21557 -3.414778,-2.83497 -0.859319,-0.61941 -2.109475,-1.64497 -2.778125,-2.27893 -1.836679,-1.74144 -4.97328,-4.27158 -5.295802,-4.27158 -0.55544,0 -0.275162,-1.0924 0.442351,-1.72392 0.400177,-0.35222 0.827503,-0.64354 0.949812,-0.64854 0.122312,-0.005 0.836681,-0.52626 1.5875,-1.1591 1.740832,-1.46729 4.900771,-3.61219 5.321639,-3.61219 z m 18.665528,4.8948 c -0.419383,0 -0.69533,1.43492 -0.41548,2.16421 0.304048,0.79232 0.812355,0.1696 0.812355,-0.99529 0,-0.86235 -0.104007,-1.16892 -0.396875,-1.16892 z m -28.82253,2.61379 c 0.377811,0.045 1.877226,1.06751 3.381705,2.3058 1.486522,1.22351 3.161403,2.58135 3.722254,3.01791 1.458111,1.13499 3.927644,3.25449 5.314405,4.56096 0.654849,0.61692 1.309687,1.12354 1.455208,1.12655 0.145521,0.003 1.336154,0.96835 2.645833,2.1456 1.309691,1.17724 3.036099,2.62567 3.836459,3.21841 0.80037,0.59272 2.22912,1.75111 3.175,2.574 0.94589,0.8229 2.315109,1.89315 3.042708,2.37867 0.727599,0.48553 1.799169,1.3437 2.38125,1.90686 1.63535,1.58221 7.005315,6.10407 8.334375,7.01817 0.654846,0.45038 1.666886,1.31889 2.248966,1.93012 0.58209,0.61121 1.65365,1.56642 2.38125,2.12235 0.72761,0.55593 1.97775,1.50873 2.77812,2.1177 0.80036,0.60898 1.93146,1.55736 2.51354,2.10736 0.58208,0.55 1.29646,1.07451 1.5875,1.16531 0.29104,0.0908 1.24354,0.83112 2.11667,1.64538 0.87312,0.81426 2.21939,1.96301 2.99206,2.55281 l 1.40509,1.07229 -0.74363,0.30696 c -0.40897,0.16868 -1.99326,0.45723 -3.52123,0.6413 -1.52797,0.18407 -3.37344,0.43993 -4.10104,0.56844 -0.72761,0.1285 -2.14796,0.30244 -3.15588,0.38654 -1.00792,0.084 -1.94166,0.22022 -2.07533,0.30282 -0.39569,0.24456 -21.939868,0.33394 -22.915397,0.0951 -0.491889,-0.12045 -2.099236,-0.29164 -3.571875,-0.38034 -4.15427,-0.25006 -14.305375,-1.93301 -18.420064,-3.05408 -4.506571,-1.22784 -6.327187,-1.81506 -6.733958,-2.17247 -0.138237,-0.12145 -0.518281,-0.22118 -0.844391,-0.22118 -0.326109,0 -0.658021,-0.10506 -0.737423,-0.23358 -0.07943,-0.12852 -1.009084,-0.51031 -2.066022,-0.84852 -1.056953,-0.33822 -2.205768,-0.82847 -2.552817,-1.08934 -0.347041,-0.26087 -0.784511,-0.47439 -0.97255,-0.47439 -0.639421,0 -6.509024,-3.17515 -7.707024,-4.16926 -4.451617,-3.69402 -6.436011,-6.25987 -7.504451,-9.70225 -0.396621,-1.27789 -0.171729,-5.09856 0.392741,-6.67194 0.734871,-2.04838 2.510379,-4.32804 5.063256,-6.50141 2.67951,-2.28118 3.217377,-2.67408 4.780587,-3.49023 0.74737,-0.3902 1.56932,-0.94232 1.826762,-1.2268 0.25745,-0.28448 0.672005,-0.51728 0.920874,-0.51728 0.24886,0 0.754997,-0.23812 1.124996,-0.52917 0.370001,-0.29104 0.79992,-0.52916 0.954981,-0.52916 0.155049,0 0.850533,-0.25558 1.545641,-0.56793 0.695121,-0.31233 1.502132,-0.65456 1.793173,-0.76067 0.291039,-0.10611 0.886344,-0.34028 1.322917,-0.52039 3.097429,-1.27777 11.623183,-3.72148 12.584761,-3.60701 z m 28.822012,2.67787 c -0.27776,0 -0.421109,0.33749 -0.478007,1.12448 -0.07192,0.99411 -0.01672,1.12448 0.478007,1.12448 0.494728,0 0.550426,-0.13037 0.478525,-1.12448 -0.05694,-0.78699 -0.200766,-1.12448 -0.478525,-1.12448 z m -0.03824,5.11184 c -0.256804,-0.0231 -0.490407,0.43776 -0.490407,1.23816 0,0.87513 0.103695,1.19063 0.391707,1.19063 0.469067,0 0.78322,-1.06668 0.540017,-1.83296 -0.125065,-0.39405 -0.287242,-0.58195 -0.441317,-0.59583 z m 55.119631,3.3755 c 2.04801,1.25037 5.01112,5.24784 5.78415,7.54424 1.80416,4.6753 -1.11537,11.06325 -5.23276,14.14126 -8.44639,6.31278 -11.4831,7.61841 -24.68893,11.40447 14.58926,-12.81827 20.43015,-23.72197 24.13754,-33.08997 z m -55.017827,1.76889 c -0.04771,-0.0152 -0.09855,-0.0166 -0.151929,0.003 -0.336219,0.1103 -0.564219,1.60559 -0.33538,2.20193 0.237961,0.62012 0.63641,0.41799 0.819589,-0.41599 0.182089,-0.82906 0.0016,-1.68206 -0.33228,-1.78852 z m 44.542507,18.26503 c -0.0115,0.008 -0.0137,0.0132 -0.0253,0.0217 -0.005,0.003 -0.006,0.0116 -0.0109,0.015 0.0127,-0.013 0.0188,-0.0194 0.0362,-0.0367 z m 1.01234,4.28036 c 5.3e-4,0.0534 0.0266,0.0856 0.0765,0.10645 -0.0252,-0.0343 -0.051,-0.0708 -0.0765,-0.10645 z m -100.025943,0.45527 c 0.191294,0.0148 0.474502,0.17012 1.027327,0.47904 0.61899,0.3459 1.589444,0.96321 2.156975,1.37201 0.567531,0.40881 1.15182,0.7431 1.29811,0.7431 0.146291,0 1.746261,0.71438 3.555339,1.5875 1.809073,0.87313 3.490227,1.5875 3.736208,1.5875 0.24598,0 0.68241,0.15277 0.969449,0.33952 0.287041,0.18674 0.998185,0.49205 1.580266,0.67799 0.582091,0.18593 1.475044,0.49797 1.984375,0.6935 2.137759,0.82072 9.420198,2.78691 10.321851,2.78691 0.289219,0 0.526066,0.11728 0.526066,0.26045 0,0.14318 -0.874604,1.12543 -1.943034,2.18281 -2.200161,2.17738 -13.663599,12.80131 -15.602148,14.45959 -0.70008,0.59887 -1.311275,1.08882 -1.358575,1.08882 -0.04732,0 -0.843828,-0.50432 -1.769917,-1.12086 -3.749362,-2.49624 -6.334333,-6.18666 -7.684803,-10.97091 -0.47402,-1.67931 -0.58236,-2.75315 -0.58291,-5.76761 -0.0011,-5.79474 0.389548,-8.79333 1.308448,-10.03711 0.18591,-0.25163 0.285679,-0.37708 0.476973,-0.36225 z m 29.441614,10.91148 c 0.362214,-0.0224 0.811564,0.0237 1.485696,0.12971 6.342718,0.99777 9.124722,1.36281 11.425142,1.4981 1.300488,0.0765 2.472132,0.2056 2.60346,0.2868 0.131339,0.0812 4.067736,0.13928 8.747787,0.12919 8.393879,-0.018 14.795154,-0.33503 17.637684,-0.87282 0.80037,-0.15141 1.75287,-0.31867 2.11667,-0.37207 0.3638,-0.0534 1.89861,-0.28367 3.41116,-0.51159 1.51254,-0.22796 2.82209,-0.34267 2.9099,-0.25477 0.0879,0.0879 -0.18745,0.41824 -0.61237,0.73381 -2.29334,1.70314 -4.38736,3.16057 -5.44411,3.78891 -0.65484,0.38937 -1.48828,0.97116 -1.85208,1.29295 -2.2627,2.00134 -13.360026,7.62761 -20.769796,10.53011 -7.33979,2.87514 -13.848426,4.39084 -21.166666,4.92838 -5.489419,0.40322 -7.337801,0.33764 -11.612729,-0.41186 -3.904557,-0.68452 -8.627936,-2.37129 -8.627896,-3.08095 8e-6,-0.18374 0.744146,-0.9737 1.653646,-1.75545 0.909489,-0.78175 3.444216,-3.10348 5.633246,-5.15938 2.189038,-2.05591 5.493025,-5.09899 7.342187,-6.76237 1.849168,-1.66339 3.362587,-3.11893 3.362587,-3.23443 0,-0.11551 0.357471,-0.39501 0.794782,-0.62115 0.324414,-0.16776 0.599488,-0.25873 0.9617,-0.28112 z m -14.238407,36.64892 c -0.143287,0.0238 -0.216408,0.13712 -0.212907,0.34365 0.0095,0.56275 1.233754,5.75956 1.394745,5.92057 0.39234,0.39235 0.752632,-0.28608 0.595832,-1.1219 -0.0924,-0.49266 -0.07327,-0.89545 0.04237,-0.89245 0.115742,0.002 1.319363,1.87706 2.674773,4.16719 1.3554,2.29013 3.089455,5.17561 3.852995,6.41253 2.66342,4.31472 8.367448,14.09844 8.367448,14.35209 0,0.0825 -1.174047,0.98805 -2.608628,2.01228 -1.434489,1.02426 -3.250285,2.43696 -4.034896,3.13935 -1.596707,1.42948 -2.056561,1.6119 -7.247101,2.86701 -2.589221,0.62611 -4.348263,1.19989 -4.517554,1.47381 -0.07914,0.12803 -0.427482,0.23254 -0.774113,0.23254 -0.34662,0 -0.697164,0.10823 -0.778764,0.2403 -0.08162,0.13204 -0.83267,0.44885 -1.66915,0.70383 -0.83647,0.25499 -1.818484,0.60372 -2.182294,0.77514 -0.363802,0.17145 -1.197245,0.55088 -1.852083,0.84336 -3.032484,1.35441 -5.628021,2.73721 -6.329331,3.37189 -0.252619,0.22863 -0.547933,0.41548 -0.655774,0.41548 -0.52753,0 -2.8174,1.88861 -5.212601,4.29896 -2.646829,2.66351 -3.552581,4.06206 -4.449341,6.86987 -0.53958,1.68943 -0.326981,5.6535 0.402559,7.50497 0.348539,0.88452 0.63407,1.70233 0.63407,1.81694 0,0.40167 1.965165,2.94176 3.642155,4.70772 1.80725,1.90318 1.860597,2.10352 1.112077,4.17029 -0.13176,0.3638 -0.294103,1.13771 -0.360701,1.71979 -0.06658,0.58208 -0.263413,1.89177 -0.437183,2.91042 -0.44801,2.62625 -0.186786,8.19944 0.502295,10.72132 1.63373,5.97894 5.387159,10.52152 11.114566,13.45086 2.87959,1.47277 4.539761,2.08407 6.651792,2.45049 9.205931,1.59721 15.833314,1.40417 24.716837,-0.72038 5.220507,-1.24852 6.638071,-1.67511 11.479919,-3.45456 2.46321,-0.90527 4.145338,-1.39335 4.293277,-1.2454 0.133782,0.13365 0.311608,1.31165 0.394809,2.6174 l 0.150895,2.37402 -0.539502,-0.97515 c -0.637241,-1.15165 -1.0234,-1.44737 -1.220081,-0.93482 -0.143118,0.37298 0.303432,1.64465 1.576131,4.48966 0.66924,1.49606 1.010293,1.80435 1.363742,1.23248 0.29972,-0.48493 1.420998,-5.61266 1.277959,-5.84409 -0.260835,-0.42201 -0.83728,-0.20886 -1.022163,0.37828 -0.169889,0.53953 -0.208166,0.50853 -0.409276,-0.33073 -0.122039,-0.50933 -0.259939,-1.57372 -0.30644,-2.36575 -0.07677,-1.30791 -0.02408,-1.47201 0.576707,-1.78956 12.086826,-6.38837 17.185366,-9.48029 22.699386,-13.76505 1.91643,-1.48919 2.25117,-1.6605 2.64583,-1.35599 1.39698,1.07778 6.4037,5.30151 6.53397,5.51233 0.0859,0.13803 -0.21014,0.12226 -0.66921,-0.0377 -0.87272,-0.30425 -1.68835,0.0677 -1.16634,0.53176 0.33745,0.29995 5.26593,2.42207 5.62498,2.42207 0.72672,0 0.50996,-0.74036 -0.89607,-3.0644 -1.64445,-2.71802 -1.86422,-2.96186 -2.29081,-2.53527 -0.19809,0.1981 -0.14733,0.48453 0.17208,0.97206 0.91671,1.39893 0.23129,1.13948 -1.92805,-0.7302 -1.21844,-1.055 -2.58207,-2.18435 -3.0303,-2.50992 -1.01048,-0.73397 -1.39655,-1.36092 -0.92088,-1.49604 0.18996,-0.0539 2.01208,-0.51799 4.04937,-1.03147 7.5546,-1.94883 15.16239,-4.54446 21.04995,-9.27491 6.45773,-4.51856 6.93303,-7.99022 7.30542,-12.34444 0.1643,-1.92106 -0.30946,-3.96972 -1.43815,-6.21771 -0.91358,-1.81954 -3.3594,-5.02005 -4.59507,-6.01306 -0.56252,-0.45207 -1.02319,-0.98439 -1.02319,-1.18288 0,-0.19852 0.22696,-1.04216 0.50384,-1.8743 0.76002,-2.2842 1.34824,-6.20499 1.34824,-8.98343 v -2.48254 l 3.52795,-1.67225 c 1.94028,-0.91974 3.81552,-1.76133 4.16719,-1.86965 l 0.63923,-0.19689 -0.59531,0.64544 c -0.63991,0.69358 -0.77697,1.27227 -0.30127,1.27227 0.31566,0 2.39312,-1.62965 3.99872,-3.13727 1.17167,-1.10019 0.9814,-1.62587 -0.53278,-1.47175 -0.54001,0.055 -1.90458,0.17205 -3.03238,0.26045 -1.83696,0.14393 -2.05052,0.21692 -2.05052,0.70177 0,0.47021 0.12103,0.52159 0.9214,0.39171 0.50664,-0.0823 0.98078,-0.0528 1.05368,0.0651 0.17114,0.27692 -7.50883,3.78464 -7.9313,3.62252 -0.17577,-0.0674 -0.40041,-0.73485 -0.49971,-1.48312 -0.5692,-4.29088 -3.73536,-9.54803 -7.39025,-12.27108 -6.34714,-4.72884 -14.37206,-6.74522 -23.85694,-5.99447 -10.50131,0.83112 -17.081768,2.56253 -29.152739,7.67137 -4.088548,1.7304 -11.923863,6.00117 -14.810983,8.07289 -0.261692,0.18778 -0.442545,0.14939 -0.622184,-0.13229 -0.139282,-0.21828 -2.232266,-3.73063 -4.651396,-7.80521 -2.419128,-4.07458 -5.689634,-9.5466 -7.267773,-12.1605 -1.578142,-2.6139 -2.814844,-4.80742 -2.748153,-4.87412 0.06668,-0.0667 0.412093,0.15252 0.767913,0.48679 0.434181,0.40777 0.803664,0.54566 1.123445,0.41961 0.396769,-0.15639 0.108892,-0.53779 -1.721858,-2.28203 -1.516026,-1.44438 -2.577198,-2.17933 -3.007051,-2.10788 z m 66.628496,13.51907 h 5.2e-4 c 1.56779,0.008 2.94604,0.0961 4.03076,0.27285 7.94106,1.29408 13.06408,3.64214 16.85892,7.72615 2.73806,2.94669 4.73748,7.20532 4.92374,10.4867 l 0.0765,1.33325 -3.175,1.49396 c -5.90415,2.77847 -14.53406,6.75455 -17.82992,8.21449 -1.80286,0.7987 -5.25568,2.38339 -7.67292,3.52123 -2.41724,1.13782 -7.43117,3.40474 -11.14196,5.03794 -3.71078,1.63316 -8.790459,3.96834 -11.288197,5.18934 -2.497733,1.221 -4.652076,2.22002 -4.787305,2.22002 -0.329451,0 -2.250725,-2.31259 -2.747637,-3.30729 C 84.929332,277.7586 73.0953,257.86317 71.652781,255.69603 l -1.492932,-2.24224 0.596347,-0.59066 c 1.68425,-1.6688 13.267658,-7.64234 18.852078,-9.72189 1.891771,-0.70448 3.558648,-1.37003 3.704166,-1.47949 0.41556,-0.3126 6.10057,-2.00573 8.73125,-2.60036 5.32693,-1.20327 11.73896,-1.90385 16.44293,-1.88051 z m -49.468822,16.92093 c 0.441489,0 2.246442,2.58153 4.65243,6.65334 4.214162,7.13189 9.891729,16.7603 10.625191,18.01906 0.682318,1.17115 0.617379,1.73854 -0.100251,0.87385 -0.174929,-0.21076 -1.431094,-1.22333 -2.791044,-2.24999 -2.116659,-1.59792 -3.616582,-2.85528 -6.959783,-5.83221 -0.336259,-0.29943 -1.050639,-0.82314 -1.5875,-1.16427 -0.536858,-0.3411 -1.75007,-1.28607 -2.695958,-2.09961 -2.96821,-2.55291 -3.697182,-3.14825 -4.882391,-3.99097 -0.633971,-0.45075 -1.893028,-1.52606 -2.798278,-2.38952 -1.286989,-1.22759 -1.589538,-1.65923 -1.388028,-1.97869 0.489399,-0.77584 7.362232,-5.84099 7.925612,-5.84099 z m 75.315822,4.18269 c 0.57649,0.0297 0.43976,0.78397 0.43976,2.30632 0,2.46829 -0.6359,6.46147 -1.4521,9.12141 -1.54426,5.03261 -5.31233,12.67986 -8.261,16.7659 -0.40611,0.56277 -1.40204,1.96151 -2.2133,3.10834 -0.81125,1.14687 -2.35907,3.01489 -3.43958,4.15117 -1.0805,1.13628 -2.83655,2.99428 -3.90261,4.12894 -1.06605,1.13464 -3.37265,3.41986 -5.12527,5.07825 -1.7526,1.65745 -3.38059,3.01428 -3.61786,3.01428 -0.23727,0 -1.38348,-0.78458 -2.54765,-1.74201 -1.16417,-0.95736 -3.06917,-2.46298 -4.23333,-3.34553 -2.49944,-1.89481 -4.10104,-3.37024 -4.10104,-3.77858 0,-0.16137 0.33795,-0.54393 0.75137,-0.84956 0.41341,-0.30565 1.7957,-1.54346 3.07165,-2.75126 5.77349,-5.46507 9.82232,-11.92235 11.71143,-18.67793 0.39808,-1.42356 0.89835,-2.72234 1.11156,-2.88613 0.33549,-0.25759 0.33918,-0.49893 0.0284,-1.7942 -0.24599,-1.02539 -0.27322,-1.58251 -0.0868,-1.76888 0.25369,-0.25372 6.22525,-3.05637 11.06134,-5.19142 1.16417,-0.51398 3.90261,-1.79554 6.08542,-2.84789 2.85341,-1.37565 4.14312,-2.07086 4.71961,-2.04122 z m -84.933839,2.91817 c 0.266062,0.007 1.018225,0.4667 1.671733,1.02061 0.65351,0.55388 1.686044,1.40316 2.294435,1.88774 0.608398,0.48456 1.523113,1.26098 2.032434,1.72599 2.19184,1.99838 4.865092,4.19795 5.891111,4.8457 0.608741,0.38428 2.071577,1.55722 3.250965,2.60656 1.179401,1.04931 2.492235,2.12588 2.917134,2.3921 0.425001,0.26623 1.487451,1.15257 2.360581,1.96939 0.87312,0.81685 2.30187,2.01315 3.175,2.65876 0.87312,0.64564 1.646992,1.24416 1.719792,1.33015 0.07276,0.086 0.328506,0.26533 0.568957,0.39842 0.511731,0.28321 2.32455,1.81268 5.538679,4.67362 1.267021,1.12778 2.420316,2.05052 2.562635,2.05052 0.142319,0 0.96452,0.6251 1.827279,1.38906 2.517391,2.22919 4.346604,3.73867 5.085994,4.19716 0.37856,0.23477 1.46223,1.14024 2.40813,2.01228 1.6267,1.49974 3.87287,3.36272 5.8322,4.83692 0.48352,0.36381 1.40002,1.10794 2.03708,1.65364 0.63705,0.5457 1.24071,0.99374 1.341,0.99374 0.31282,0.003 2.69596,2.26492 2.69596,2.56005 0,0.34653 -2.53409,0.8612 -5.09219,1.03405 -1.05562,0.0713 -2.50326,0.24664 -3.21686,0.38964 -0.71359,0.143 -2.44,0.3201 -3.83646,0.39119 -1.39645,0.072 -3.405133,0.25627 -4.46381,0.40978 -1.528013,0.22162 -13.698267,0.52023 -13.899927,0.34108 -0.0278,-0.0246 -1.240759,-0.11946 -2.695959,-0.21085 -4.259321,-0.26736 -5.708197,-0.39627 -7.672917,-0.68161 -1.018651,-0.14801 -2.268794,-0.25309 -2.778125,-0.23409 -1.11911,0.0418 -7.264841,-0.96484 -9.182901,-1.5043 -0.75747,-0.21304 -1.471851,-0.3615 -1.5875,-0.3297 -0.220001,0.0605 -2.643045,-0.46929 -3.781682,-0.82682 -0.875919,-0.27504 -2.023721,-0.62078 -4.894791,-1.47536 -3.403561,-1.01309 -5.354852,-1.68918 -6.953581,-2.40968 -0.768292,-0.34622 -1.4977,-0.62993 -1.621091,-0.62993 -0.123389,0 -0.372293,-0.1786 -0.553453,-0.39688 -0.18115,-0.21827 -0.556295,-0.39687 -0.833025,-0.39687 -0.276722,0 -1.093215,-0.38693 -1.814876,-0.8599 -0.72167,-0.47294 -2.287989,-1.45521 -3.480408,-2.18281 -2.415237,-1.47376 -6.084941,-4.79563 -6.868831,-6.21771 -0.28076,-0.50932 -0.750968,-1.32682 -1.044898,-1.81694 -0.98197,-1.63726 -1.296179,-2.99941 -1.300179,-5.63531 -0.0045,-2.97073 0.363321,-4.06287 2.296501,-6.81768 1.665,-2.37265 2.354172,-3.08509 4.049882,-4.1894 0.80037,-0.52129 1.693325,-1.15629 1.984375,-1.41129 1.291,-1.13112 9.15691,-5.26479 10.018509,-5.26479 0.220681,0 0.474925,-0.11907 0.564825,-0.26459 0.08994,-0.14552 0.384606,-0.26458 0.655256,-0.26458 0.270661,0 0.88882,-0.1993 1.373561,-0.44287 0.48473,-0.24355 1.19762,-0.60074 1.58388,-0.79375 0.386252,-0.19299 0.89339,-0.35088 1.12758,-0.35088 0.23418,0 0.632527,-0.1114 0.885219,-0.24753 0.815327,-0.43921 6.940749,-1.93624 7.822777,-1.91203 z m 61.575059,7.71581 c 0.356,0 0.31006,0.59156 -0.12558,1.62367 -0.32622,0.77301 -0.32492,0.94638 0.009,1.31775 0.47508,0.52801 0.2071,1.93146 -1.00408,5.26066 -2.21772,6.09592 -5.67591,11.08387 -11.60291,16.7349 -2.53708,2.41895 -3.43076,2.95675 -3.83129,2.30942 -0.092,-0.1488 -0.7366,-0.65572 -1.43298,-1.12448 -0.6964,-0.46966 -2.24842,-1.74718 -3.448893,-2.83859 -1.20047,-1.09138 -3.229478,-2.76704 -4.50877,-3.7238 -2.383446,-1.78221 -5.554181,-4.53467 -5.554181,-4.8209 0,-0.35121 16.913074,-8.38863 17.652154,-8.38863 0.11616,0 0.74623,-0.2842 1.39992,-0.63148 0.65369,-0.3473 1.96247,-0.95632 2.90835,-1.35341 0.94589,-0.39709 3.42265,-1.54162 5.50405,-2.54352 2.08141,-1.00187 3.89712,-1.82159 4.0349,-1.82159 z m 22.6303,3.64671 c 5.18879,5.42072 8.90706,10.60321 4.224,18.46448 -6.83627,8.41948 -20.77775,13.291 -29.10872,14.85032 8.70773,-7.58746 9.26258,-8.48246 14.11532,-13.65721 6.21823,-8.72601 8.35869,-12.60762 10.7694,-19.65759 z M 33.579089,296.79843 c 0.281502,-0.0472 0.665797,0.11824 1.076937,0.5085 1.26051,1.19649 7.310511,4.48743 10.237101,5.56865 0.582079,0.21508 1.713172,0.63253 2.513542,0.92759 0.800359,0.29509 2.169575,0.73499 3.042708,0.97772 0.873117,0.24275 2.459366,0.7374 3.525367,1.09916 1.066001,0.3618 2.004761,0.59147 2.08566,0.51056 0.08092,-0.0809 0.399161,-0.009 0.707451,0.15916 0.30829,0.16754 1.096465,0.39602 1.751314,0.50592 0.654841,0.10989 2.024055,0.39393 3.042708,0.63097 3.152482,0.73361 7.079647,1.35083 10.054167,1.58025 1.018651,0.0786 2.864112,0.2544 4.101041,0.39119 2.0187,0.22312 3.894529,0.33869 10.973491,0.67336 1.500341,0.0709 2.196031,0.21643 2.40657,0.50435 0.293241,0.40108 0.731962,6.12974 0.760162,9.92447 l 0.01497,1.96731 -1.5875,0.6191 c -4.526939,1.76593 -8.333621,3.01024 -11.90625,3.89175 -2.18281,0.53856 -4.385471,1.08993 -4.894791,1.22524 -1.765541,0.46918 -4.120502,0.77147 -8.069792,1.0356 -2.18281,0.146 -4.206878,0.25109 -4.497917,0.23358 -2.253413,-0.13489 -5.681477,-0.53346 -7.672916,-0.89247 -8.14683,-1.46873 -13.966767,-5.43425 -17.059425,-11.62357 -1.489619,-2.98116 -1.903418,-4.75374 -2.054138,-8.80565 -0.133429,-3.58682 0.310928,-9.528 0.746208,-9.97821 0.13367,-0.13825 0.243396,-0.52892 0.243396,-0.86817 0,-0.45924 0.178418,-0.71913 0.45992,-0.76636 z m 79.751201,11.42204 c 0.2609,-0.018 0.43873,-0.0129 0.47077,0.0186 0.18688,0.18475 -0.50976,0.77257 -2.62981,2.21847 -5.89193,4.01838 -9.03344,5.92635 -14.836821,9.00721 -4.444759,2.36032 -5.27151,2.6783 -5.27151,2.02933 0,-0.93584 -0.820558,-9.90465 -0.941028,-10.28618 -0.07654,-0.24244 -0.03128,-0.50753 0.100769,-0.58912 0.430199,-0.26588 3.8457,-0.56275 9.418029,-0.81908 1.734701,-0.0798 3.937361,-0.25635 4.894791,-0.39221 0.95744,-0.13587 2.81254,-0.38381 4.12223,-0.55089 1.30969,-0.16698 2.97655,-0.40026 3.70417,-0.5183 0.3638,-0.0589 0.70751,-0.0998 0.96841,-0.11783 z"
       sodipodi:nodetypes="scsccccsccsccsscscccccccssscssssccccssscscccccscssscccsssscccsssssssssscsscssscsscssccscssssccssssccccccssssssssssscsssssccssscssscsccscsssssccscscsscsscsssccsccsssssscsscsscssccsscscssscccccsssscccssscssssssssscsssscssssccsscscscscssccscccssscssccssssscccssssscscscsssssscccsscsssssssssssssscscssssscsssssssccsscccssssssscccssscccssssscssssssscsssssssscssscsssssssssssscsssssssssssssssscssssssssscsscsscssssssssssssssssssssssscccsscsscsssssssssssssssssscsscssscsssccccccccssccsccssccccssssssscssssscscscscsscssccssccscsssssssscsscsssccsssssscsssssssssssssssccccssssssscscccsscscsscccssssssccsccssscsccscscsscssscssscscsccccssssscccsscscsscssssssssscsssssscscssssscssssccsscsscsssssscsssscssscscccsssssssssssscssssssssssscsccssccscssssssscccccssssssscssscsscccscscsssssssscscsssssccss" />
    <text
       xml:space="preserve"
       transform="scale(0.26458333)"
       id="text11441"
       style="font-style:normal;font-weight:normal;font-size:40px;line-height:1.25;font-family:sans-serif;white-space:pre;shape-inside:url(#rect11443);fill:#000000;fill-opacity:1;stroke:none" />
    <text
       xml:space="preserve"
       style="font-style:normal;font-weight:normal;font-size:10.5833px;line-height:1.25;font-family:sans-serif;fill:#000000;fill-opacity:1;stroke:none;stroke-width:0.264583"
       x="12.929694"
       y="27.99509"
       id="text13891"><tspan
         sodipodi:role="line"
         id="tspan13889"
         style="stroke-width:0.264583"
         x="12.929694"
         y="27.99509">$\mathbf{e}_x$</tspan></text>
    <text
       xml:space="preserve"
       transform="scale(0.26458333)"
       id="text18579"
       style="font-style:normal;font-weight:normal;font-size:40px;line-height:1.25;font-family:sans-serif;white-space:pre;shape-inside:url(#rect18581);fill:#000000;fill-opacity:1;stroke:none" />
    <text
       xml:space="preserve"
       style="font-style:normal;font-weight:normal;font-size:10.5833px;line-height:1.25;font-family:sans-serif;fill:#000000;fill-opacity:1;stroke:none;stroke-width:0.264583"
       x="74.035225"
       y="78.909813"
       id="text19951"><tspan
         sodipodi:role="line"
         id="tspan19949"
         style="stroke-width:0.264583"
         x="74.035225"
         y="78.909813">$\mathbf{e}_y$</tspan></text>
    <text
       xml:space="preserve"
       style="font-style:normal;font-weight:normal;font-size:10.5833px;line-height:1.25;font-family:sans-serif;fill:#000000;fill-opacity:1;stroke:none;stroke-width:0.264583"
       x="94.401627"
       y="88.323257"
       id="text21451"><tspan
         sodipodi:role="line"
         id="tspan21449"
         style="stroke-width:0.264583"
         x="94.401627"
         y="88.323257">$\mathbf{e}_z$</tspan></text>
    <text
       xml:space="preserve"
       style="font-style:normal;font-weight:normal;font-size:10.5833px;line-height:1.25;font-family:sans-serif;fill:#000000;fill-opacity:1;stroke:none;stroke-width:0.264583"
       x="39.512123"
       y="104.06317"
       id="text21451-2"><tspan
         sodipodi:role="line"
         id="tspan21449-1"
         style="stroke-width:0.264583"
         x="39.512123"
         y="104.06317">$\mathbf{e}_3$</tspan></text>
    <text
       xml:space="preserve"
       style="font-style:normal;font-weight:normal;font-size:10.5833px;line-height:1.25;font-family:sans-serif;fill:#000000;fill-opacity:1;stroke:none;stroke-width:0.264583"
       x="59.124016"
       y="223.64194"
       id="text21451-2-7"><tspan
         sodipodi:role="line"
         id="tspan21449-1-8"
         style="stroke-width:0.264583"
         x="59.124016"
         y="223.64194">$\mathbf{e}_3$</tspan></text>
    <text
       xml:space="preserve"
       style="font-style:normal;font-weight:normal;font-size:10.5833px;line-height:1.25;font-family:sans-serif;fill:#000000;fill-opacity:1;stroke:none;stroke-width:0.264583"
       x="101.35031"
       y="-31.085693"
       id="text21451-9"><tspan
         sodipodi:role="line"
         id="tspan21449-6"
         style="stroke-width:0.264583"
         x="101.35031"
         y="-31.085693">$\mathbf{e}_z$</tspan></text>
    <text
       xml:space="preserve"
       style="font-style:normal;font-weight:normal;font-size:10.5833px;line-height:1.25;font-family:sans-serif;fill:#000000;fill-opacity:1;stroke:none;stroke-width:0.264583"
       x="46.858021"
       y="48.113083"
       id="text24157"><tspan
         sodipodi:role="line"
         id="tspan24155"
         style="stroke-width:0.264583"
         x="46.858021"
         y="48.113083">$\phi$</tspan></text>
    <text
       xml:space="preserve"
       style="font-style:normal;font-weight:normal;font-size:10.5833px;line-height:1.25;font-family:sans-serif;fill:#000000;fill-opacity:1;stroke:none;stroke-width:0.264583"
       x="93.850494"
       y="60.325512"
       id="text26855"><tspan
         sodipodi:role="line"
         id="tspan26853"
         style="stroke-width:0.264583"
         x="93.850494"
         y="60.325512">$\phi$</tspan></text>
    <text
       xml:space="preserve"
       style="font-style:normal;font-weight:normal;font-size:10.5833px;line-height:1.25;font-family:sans-serif;fill:#000000;fill-opacity:1;stroke:none;stroke-width:0.264583"
       x="39.175426"
       y="68.89447"
       id="text28047"><tspan
         sodipodi:role="line"
         id="tspan28045"
         style="stroke-width:0.264583"
         x="39.175426"
         y="68.89447">$\mathbf{e}_1'$</tspan></text>
    <text
       xml:space="preserve"
       style="font-style:normal;font-weight:normal;font-size:10.5833px;line-height:1.25;font-family:sans-serif;fill:#000000;fill-opacity:1;stroke:none;stroke-width:0.264583"
       x="19.480707"
       y="206.24947"
       id="text28047-3"><tspan
         sodipodi:role="line"
         id="tspan28045-1"
         style="stroke-width:0.264583"
         x="19.480707"
         y="206.24947">$\mathbf{e}_1''$</tspan></text>
    <text
       xml:space="preserve"
       style="font-style:normal;font-weight:normal;font-size:10.5833px;line-height:1.25;font-family:sans-serif;fill:#000000;fill-opacity:1;stroke:none;stroke-width:0.264583"
       x="142.24782"
       y="65.58551"
       id="text29851"><tspan
         sodipodi:role="line"
         id="tspan29849"
         style="stroke-width:0.264583"
         x="142.24782"
         y="65.58551">$\mathbf{e}_2'$</tspan></text>
    <text
       xml:space="preserve"
       style="font-style:normal;font-weight:normal;font-size:10.5833px;line-height:1.25;font-family:sans-serif;fill:#000000;fill-opacity:1;stroke:none;stroke-width:0.264583"
       x="131.16541"
       y="192.27524"
       id="text29851-7"><tspan
         sodipodi:role="line"
         id="tspan29849-5"
         style="stroke-width:0.264583"
         x="131.16541"
         y="192.27524">$\mathbf{e}_2'$</tspan></text>
    <text
       xml:space="preserve"
       style="font-style:normal;font-weight:normal;font-size:10.5833px;line-height:1.25;font-family:sans-serif;fill:#000000;fill-opacity:1;stroke:none;stroke-width:0.264583"
       x="129.94644"
       y="312.03232"
       id="text29851-7-5"><tspan
         sodipodi:role="line"
         id="tspan29849-5-7"
         style="stroke-width:0.264583"
         x="129.94644"
         y="312.03232">$\mathbf{e}_2'$</tspan></text>
    <text
       xml:space="preserve"
       style="font-style:normal;font-weight:normal;font-size:10.5833px;line-height:1.25;font-family:sans-serif;fill:#000000;fill-opacity:1;stroke:none;stroke-width:0.264583"
       x="96.636459"
       y="330.16193"
       id="text29851-7-5-4"><tspan
         sodipodi:role="line"
         id="tspan29849-5-7-1"
         style="stroke-width:0.264583"
         x="96.636459"
         y="330.16193">$\mathbf{e}_1$</tspan></text>
    <text
       xml:space="preserve"
       style="font-style:normal;font-weight:normal;font-size:10.5833px;line-height:1.25;font-family:sans-serif;fill:#000000;fill-opacity:1;stroke:none;stroke-width:0.264583"
       x="145.49164"
       y="245.39636"
       id="text29851-7-5-4-8"><tspan
         sodipodi:role="line"
         id="tspan29849-5-7-1-5"
         style="stroke-width:0.264583"
         x="145.49164"
         y="245.39636">$\mathbf{e}_2$</tspan></text>
    <text
       xml:space="preserve"
       style="font-style:normal;font-weight:normal;font-size:10.5833px;line-height:1.25;font-family:sans-serif;fill:#000000;fill-opacity:1;stroke:none;stroke-width:0.264583"
       x="73.53788"
       y="110.06108"
       id="text38097"><tspan
         sodipodi:role="line"
         id="tspan38095"
         style="stroke-width:0.264583"
         x="73.53788"
         y="110.06108">$\theta$</tspan></text>
    <text
       xml:space="preserve"
       transform="matrix(0.26458333,0,0,0.26458333,15.899892,-41.966934)"
       id="text42177"
       style="font-style:normal;font-weight:normal;font-size:40px;line-height:1.25;font-family:sans-serif;white-space:pre;shape-inside:url(#rect42179);fill:#000000;fill-opacity:1;stroke:none" />
    <text
       xml:space="preserve"
       style="font-style:normal;font-weight:normal;font-size:10.5833px;line-height:1.25;font-family:sans-serif;fill:#000000;fill-opacity:1;stroke:none;stroke-width:0.264583"
       x="120.35534"
       y="289.80392"
       id="text42713"><tspan
         sodipodi:role="line"
         id="tspan42711"
         style="stroke-width:0.264583"
         x="120.35534"
         y="289.80392">$\psi$</tspan></text>
  </g>
</svg>
