<?xml version="1.0" encoding="UTF-8" standalone="no"?>
<!-- Created with Inkscape (http://www.inkscape.org/) -->

<svg
   width="190.15797mm"
   height="142.83191mm"
   viewBox="0 0 718.70732 539.83714"
   version="1.1"
   id="svg5"
   inkscape:version="1.1.1 (3bf5ae0d25, 2021-09-20, custom)"
   sodipodi:docname="FWHM.svg"
   xmlns:inkscape="http://www.inkscape.org/namespaces/inkscape"
   xmlns:sodipodi="http://sodipodi.sourceforge.net/DTD/sodipodi-0.dtd"
   xmlns="http://www.w3.org/2000/svg"
   xmlns:svg="http://www.w3.org/2000/svg">
  <sodipodi:namedview
     id="namedview7"
     pagecolor="#ffffff"
     bordercolor="#666666"
     borderopacity="1.0"
     inkscape:pageshadow="2"
     inkscape:pageopacity="0.0"
     inkscape:pagecheckerboard="0"
     inkscape:document-units="mm"
     showgrid="false"
     inkscape:zoom="1.1117845"
     inkscape:cx="268.03755"
     inkscape:cy="215.41944"
     inkscape:window-width="1920"
     inkscape:window-height="1050"
     inkscape:window-x="0"
     inkscape:window-y="30"
     inkscape:window-maximized="1"
     inkscape:current-layer="layer1" />
  <defs
     id="defs2" />
  <g
     inkscape:label="Layer 1"
     inkscape:groupmode="layer"
     id="layer1"
     transform="translate(-30.966939,-502.43645)">
    <path
       style="fill:#000000"
       d="m 229.95418,1041.4164 c -2.17806,-0.8765 -3.77208,-4.6578 -3.51652,-8.3418 0.14976,-2.1589 3.04119,-5.6522 4.64159,-5.6077 0.60225,0.017 0.30751,0.489 -0.65499,1.0497 -2.7207,1.5846 -2.32031,8.0124 0.70225,11.2738 2.59549,2.8006 2.40466,3.0653 -1.17233,1.626 z m 229.45649,0.3281 c -0.96998,-0.253 -2.45828,-1.8033 -3.30734,-3.4452 -1.2498,-2.4168 -1.32762,-3.6402 -0.40871,-6.4245 1.92972,-5.8472 9.47125,-6.037 12.24574,-0.3083 1.67687,3.4623 0.75995,8.2622 -1.76329,9.2305 -1.08742,0.4173 -1.15559,-0.058 -0.34272,-2.3899 0.71354,-2.0469 0.66895,-3.9586 -0.15023,-6.4408 -0.96619,-2.9276 -1.64511,-3.5298 -3.979,-3.5298 -2.19671,0 -2.95724,0.5705 -3.46677,2.6006 -0.90231,3.5951 1.19549,9.3601 3.78636,10.4054 2.23341,0.901 0.46591,1.1053 -2.61404,0.302 z m -223.14923,-2.8008 c 1.83088,-2.7942 1.27904,-6.8731 -1.32008,-9.7572 -2.22834,-2.4727 0.23562,-2.2473 2.7329,0.25 2.39251,2.3925 2.58847,6.7148 0.4433,9.7774 -2.1486,3.0676 -3.87813,2.8158 -1.85612,-0.2702 z m 42.88468,-3.1284 c 0.38628,-3.0916 1.27519,-7.2541 1.97536,-9.25 0.70018,-1.9958 1.59883,-6.26 1.997,-9.4759 0.94462,-7.6294 4.49404,-11.6662 10.89151,-12.3873 3.77319,-0.4253 4.6204,-0.1664 6.02729,1.8422 2.37687,3.3935 2.01308,6.4512 -1.05465,8.8642 l -2.69162,2.1173 2.77133,2.5697 c 2.16912,2.0113 2.63078,3.1297 2.12456,5.1466 -1.34622,5.3638 -8.81856,9.1691 -14.07817,7.1694 -3.96181,-1.5062 -4.20052,-1.3115 -4.93447,4.025 -0.48243,3.5076 -1.14176,5 -2.20906,5 -1.26471,0 -1.4029,-0.9484 -0.81908,-5.6212 z m 15.78836,-6.9193 c 4.56818,-4.2359 3.49107,-9.4595 -1.95054,-9.4595 -3.83515,0 -4.29234,-2.4137 -0.49487,-2.6126 3.48424,-0.1826 5.18519,-2.3181 5.18519,-6.5099 0,-3.7111 -0.13947,-3.8769 -3.25,-3.8622 -5.54123,0.026 -6.8839,1.9704 -8.24848,11.9448 -0.41084,3.003 -1.23428,6.2403 -1.82987,7.194 -0.83908,1.3436 -0.66398,2.1968 0.77773,3.7899 2.51938,2.7839 6.4979,2.5874 9.81084,-0.4845 z m 216.13522,6.7905 c 0.36894,-3.1625 1.30103,-8 2.0713,-10.75 0.77027,-2.75 1.87669,-7.381 2.45872,-10.291 1.30281,-6.5138 4.89576,-10.138 10.07454,-10.1621 4.09012,-0.019 5.26102,0.6187 6.92137,3.7701 1.01346,1.9236 0.92428,2.7727 -0.52516,5 -0.96026,1.4756 -2.45474,3.2118 -3.32107,3.8583 -1.37218,1.0238 -1.23183,1.3063 1.08929,2.1927 3.69602,1.4113 4.30709,4.2185 1.8316,8.4141 -2.66372,4.5147 -6.23965,5.9842 -11.49603,4.7243 -2.2,-0.5273 -4.29527,-0.9695 -4.65616,-0.9826 -0.36089,-0.013 -0.96562,2.2262 -1.34384,4.9762 -0.48742,3.5439 -1.13726,5 -2.23152,5 -1.29057,0 -1.43379,-0.9434 -0.87304,-5.75 z m 16.20191,-7.7888 c 2.42382,-3.1778 2.56478,-3.7898 1.38191,-6 -0.72447,-1.3537 -2.14118,-2.5175 -3.14824,-2.5862 -3.46239,-0.2364 -3.83036,-0.3777 -3.58102,-1.375 0.1375,-0.55 1.20545,-0.8795 2.37321,-0.7321 2.70531,0.3415 5.61171,-3.9028 5.18765,-7.5756 -0.25866,-2.2403 -0.86755,-2.7458 -3.62618,-3.0106 -4.07244,-0.3909 -5.86724,0.9899 -6.67774,5.1374 -0.34189,1.7494 -1.30239,6.0355 -2.13446,9.5246 -1.3999,5.8701 -1.38405,6.486 0.21233,8.25 2.81415,3.1096 6.90423,2.4427 10.01254,-1.6325 z m -326.48946,2.9018 c -2.03184,-1.4232 -2.26968,-2.2353 -1.82082,-6.2176 0.39342,-3.4904 1.25745,-5.2428 3.63039,-7.363 3.81457,-3.4083 6.29674,-3.7038 3.17194,-0.3776 -2.84358,3.0268 -4.5186,9.9247 -3.06817,12.6348 2.22677,4.1608 5.97877,1.0842 5.97877,-4.9025 0,-3.1355 2.50281,-6.5625 4.08062,-5.5873 1.32783,0.8206 1.1321,3.1381 -0.53777,6.3673 -1.27526,2.4661 -1.27554,3.0528 -0.002,4.7003 1.40239,1.8146 1.54358,1.7832 3.91257,-0.8714 2.97014,-3.3282 4.20934,-8.9966 2.69392,-12.3226 -0.90679,-1.9896 -0.83064,-2.4234 0.42513,-2.4234 0.84127,0 2.18766,1.575 2.99198,3.5 1.25937,3.0141 1.26911,3.9625 0.0702,6.8321 -1.4678,3.5129 -5.95608,7.6679 -8.28303,7.6679 -0.75829,0 -2.26137,-0.5513 -3.34018,-1.225 -1.54779,-0.9666 -2.21982,-0.9666 -3.18643,0 -1.67503,1.675 -3.93532,1.5364 -6.71707,-0.412 z m 227.43778,-0.653 c -2.66134,-4.0617 1.37543,-12.9308 6.83985,-15.0277 1.34805,-0.5173 1.40181,-0.3147 0.3593,1.3547 -0.67425,1.0796 -1.51425,1.963 -1.86665,1.963 -1.0757,0 -2.99388,9.06 -2.34862,11.0931 0.68137,2.1468 3.45811,2.5192 5.27045,0.7069 0.66,-0.66 1.2,-2.6482 1.2,-4.4183 0,-4.515 0.90883,-6.3817 3.10699,-6.3817 2.28305,0 2.38709,1.5289 0.36755,5.4015 -1.59859,3.0653 -1.1449,6.6089 0.84285,6.5831 4.58786,-0.059 8.33925,-10.0207 5.65947,-15.0279 -0.83022,-1.5513 -0.73071,-1.7995 0.52778,-1.3166 2.13102,0.8178 3.49536,3.6465 3.49536,7.2471 0,7.2017 -5.31841,11.5634 -11.33194,9.2936 -2.03926,-0.7698 -3.42066,-0.8282 -4.07632,-0.1726 -1.85341,1.8534 -6.46901,1.1087 -8.04607,-1.2982 z m 58.45433,-2.21 v -4.5 h -4.5 c -3.33333,0 -4.5,-0.3889 -4.5,-1.5 0,-1.1112 1.16667,-1.5 4.5,-1.5 h 4.5 v -4 c 0,-2.8889 0.41667,-4 1.5,-4 1.08333,0 1.5,1.1111 1.5,4 v 4 h 4.5 c 3.33333,0 4.5,0.3888 4.5,1.5 0,1.1111 -1.16667,1.5 -4.5,1.5 h -4.5 v 4.5 c 0,3.3333 -0.38889,4.5 -1.5,4.5 -1.11111,0 -1.5,-1.1667 -1.5,-4.5 z m -231.75,-6.2426 c -11.07452,-0.5271 -8.80017,-2.2902 2.75,-2.1318 7.72863,0.106 10,0.448 10,1.5058 0,0.8745 -0.99279,1.2968 -2.75,1.1699 -1.5125,-0.1093 -6.0125,-0.354 -10,-0.5439 z m 120.5,-9.6495 c -3.649,-2.77 -1.11429,-12.66393 3.22224,-12.57753 1.23259,0.024 1.18965,0.2273 -0.22224,1.04973 -1.28994,0.7513 -1.75,2.3076 -1.75,5.9199 0,3.6122 0.46006,5.1685 1.75,5.9199 1.36431,0.7946 1.41941,1.0189 0.25,1.0178 -0.825,-7e-4 -2.2875,-0.5991 -3.25,-1.3298 z m 6.75159,0.6267 c 0.55088,-0.404 1.6244,-1.9441 2.38559,-3.4223 1.23763,-2.4033 1.16172,-3.0643 -0.71787,-6.25 -1.65206,-2.8 -1.79301,-3.56233 -0.65864,-3.56233 2.45535,0 4.74393,4.56433 3.996,7.96963 -0.72234,3.2888 -2.93042,6.0397 -4.8281,6.015 -0.74491,-0.01 -0.81003,-0.2856 -0.17698,-0.75 z m -73.48553,-6.9846 c 0.0324,-1.5138 16.98394,-17.42753 16.98394,-15.94423 0,0.4943 -16.17449,16.69423 -16.66797,16.69423 -0.18261,0 -0.3248,-0.3375 -0.31597,-0.75 z m 109.23394,-6.40973 c -3.9875,-3.9353 -7.25,-7.5342 -7.25,-7.9977 0,-1.2857 -2.77961,-1.0038 -3.22319,0.3269 -0.21443,0.6433 -1.63052,-1.2031 -3.14688,-4.1031 -1.51636,-2.9 -2.61592,-5.3866 -2.44347,-5.5259 0.17244,-0.1393 2.76571,0.8376 5.7628,2.1709 3.71383,1.6522 5.03445,2.6806 4.14675,3.2292 -1.95267,1.2068 -0.2579,3.6915 8.09847,11.8731 4.01804,3.93403 6.85552,7.15923 6.30552,7.16713 -0.55,0.01 -4.2625,-3.2053 -8.25,-7.14053 z m -70.14211,3.52273 c -2.02898,-1.4212 -2.26941,-2.2377 -1.82355,-6.19333 0.40768,-3.6169 1.20444,-5.1294 3.86461,-7.3361 4.17705,-3.465 5.99701,-3.6824 2.85827,-0.3413 -1.68828,1.7971 -2.4688,4.0286 -2.79814,8 -0.44483,5.36403 -0.38984,5.50773 2.10807,5.50773 3.13805,0 3.91888,-1.155 4.20462,-6.21913 0.24067,-4.2655 1.64102,-6.4164 3.44964,-5.2986 1.23296,0.762 0.49225,6.153 -1.1214,8.1617 -0.58983,0.7342 -0.34376,1.71933 0.6869,2.75003 1.98474,1.9847 1.68396,2.0163 4.56008,-0.4782 2.07109,-1.79623 2.40301,-2.97033 2.40301,-8.50003 0,-6.6759 0.98302,-7.6746 3.28459,-3.3369 2.76071,5.2031 -1.07409,13.16683 -6.96306,14.46033 -1.74217,0.3826 -3.49886,0.1435 -4.3921,-0.5978 -1.14142,-0.9473 -2.07587,-0.9679 -4.0061,-0.088 -3.24802,1.4799 -3.53484,1.4576 -6.31544,-0.49 z m -22.78487,-13.93183 -2.17697,-2.3576 2.67697,-1.3422 c 1.47234,-0.7383 3.91448,-2.1566 5.42698,-3.1519 1.5125,-0.9952 2.75,-1.4812 2.75,-1.0799 0,1.2241 -5.27723,10.5076 -5.90893,10.3948 -0.32509,-0.058 -1.57071,-1.1665 -2.76805,-2.4632 z m 73.21258,-18.9434 c -0.58364,-5.4499 -1.00202,-6.5002 -2.61519,-6.5648 -1.05623,-0.042 -6.64541,-0.077 -12.42041,-0.077 -17.36758,0 -15.5,-0.7414 -15.5,6.1539 0,3.3333 -0.44444,6 -1,6 -0.55556,0 -1,-2.6667 -1,-6 v -6 l -4.5,-0.04 c -2.475,-0.022 -9.1125,-0.056 -14.75,-0.077 l -10.25,-0.037 -0.10417,5.7781 c -0.14451,8.0153 -2.21303,8.25 -2.59638,0.2946 l -0.29945,-6.2145 -73.5,-0.3076 c -93.68002,-0.3921 -103.28801,-0.4169 -127.5,-0.3283 -11,0.04 -27.2,0.083 -35.999995,0.096 -8.8,0.012 -17.462498,0.034 -19.249998,0.049 -22.991969,0.1844 -39.390942,-0.4351 -39.749132,-1.5017 -0.223765,-0.6664 -0.668338,-82.43652 -0.987939,-181.71152 -0.759137,-235.8037 -0.787375,-228.63773 0.894171,-226.91666 0.765811,0.78381 1.577961,136.32541 1.585434,264.59658 l 0.0075,128.1799 39.141369,-0.4583 c 21.527765,-0.252 39.54954,-0.7105 40.04842,-1.0188 0.49887,-0.3083 9.77275,-1.2058 20.60863,-1.9944 20.61096,-1.5 29.6854,-2.464 39.70158,-4.2179 3.3,-0.5778 7.8,-1.3092 10,-1.6253 12.07657,-1.7351 42.13431,-9.499 48.06741,-12.4158 2.23707,-1.0998 5.35206,-2.322 6.92218,-2.7161 1.57013,-0.394 5.58979,-2.2888 8.93259,-4.2106 3.3428,-1.9218 7.39622,-4.1769 9.00759,-5.0113 3.37258,-1.7465 6.03903,-3.8907 12.67368,-10.1913 9.27261,-8.8059 23.69276,-32.15268 29.33834,-47.50002 1.0116,-2.75 2.18463,-5.45 2.60673,-6 0.87335,-1.13798 4.08988,-9.9148 7.14636,-19.5 1.13998,-3.575 2.41941,-7.4 2.84319,-8.5 0.42378,-1.1 2.4286,-8.3 4.45516,-16 2.02657,-7.7 4.06564,-15.125 4.53129,-16.5 0.46564,-1.375 1.58233,-6.325 2.48153,-11 0.8992,-4.675 2.25026,-10.975 3.00235,-14 0.7521,-3.025 1.65834,-8.2 2.01389,-11.5 0.35554,-3.3 1.2424,-8.475 1.9708,-11.5 1.39453,-5.79137 3.01669,-16.45064 4.03285,-26.5 0.33369,-3.3 0.98804,-6.9 1.45412,-8 0.46608,-1.1 1.59672,-9.2 2.51253,-18 0.91581,-8.8 2.07963,-16.78139 2.58626,-17.73643 0.50663,-0.95504 0.92058,-3.20504 0.91987,-5 -0.001,-3.55174 1.32882,-14.84132 3.50691,-29.76357 0.76266,-5.225 1.65768,-13.325 1.98893,-18 1.03914,-14.66554 2.24728,-22.54477 6.05658,-39.5 3.9142,-17.42215 10.46387,-22.4849 15.18459,-11.73737 3.06496,6.9779 3.00632,6.68829 6.73022,33.23737 0.19286,1.375 1.07056,9.475 1.95043,18 0.87986,8.525 2.0379,19.1 2.5734,23.5 0.88258,7.25169 1.66975,15.45904 3.59665,37.5 0.36062,4.125 0.84123,8.625 1.06802,10 0.63555,3.85329 3.32726,26.52689 4.24757,35.77944 0.45294,4.55369 1.06157,8.51749 1.35252,8.80843 0.61929,0.61929 6.15955,-4.46195 23.36936,-21.43316 6.88537,-6.78991 12.74226,-12.12188 13.0153,-11.84884 0.50529,0.50529 -25.0162,25.91909 -31.93549,31.80073 -3.79298,3.22417 -3.79577,3.23227 -3.21196,9.31019 0.32137,3.34577 1.00369,8.55821 1.51626,11.58321 0.51257,3.025 1.64607,9.775 2.5189,15 0.87283,5.225 2.44491,13.55 3.49351,18.5 2.26029,10.66984 4.91761,23.48454 5.53697,26.70164 0.24336,1.2641 1.80584,7.24836 3.47218,13.29836 1.66633,6.05 3.72921,13.7 4.58419,17 0.85498,3.3 2.1385,7.35 2.85228,9 0.71378,1.65 1.85529,4.8 2.53667,7 0.68139,2.2 1.63453,4.4275 2.11809,4.95 0.48356,0.5225 0.8792,1.78524 0.8792,2.80609 0,1.02085 1.29129,4.45869 2.86953,7.63966 1.57825,3.18097 3.43514,7.54323 4.12643,9.69392 0.69129,2.15065 1.78028,4.58535 2.41998,5.41035 0.6397,0.825 2.04531,3.2624 3.12358,5.4165 3.89414,7.7795 5.70825,11.0926 6.34262,11.5835 0.35539,0.275 3.2126,3.875 6.34936,8 6.40374,8.4212 9.03431,10.7033 19.7685,17.1496 7.94871,4.7735 24.4842,11.8504 27.68911,11.8504 1.05099,0 2.33839,0.3581 2.86089,0.7958 1.42673,1.1953 7.38138,2.9614 12.45,3.6926 2.475,0.3571 6.525,1.2583 9,2.0026 2.475,0.7444 7.2,1.6401 10.5,1.9905 3.3,0.3504 9.6,1.2559 14,2.0121 10.24471,1.7608 16.50435,2.3001 41,3.5328 20.13852,1.0135 74.94312,1.313 96.75,0.5288 11.27652,-0.4055 11.75,-0.3408 11.75,1.6056 0,1.9224 0.45609,2.0012 8.75,1.5105 4.8125,-0.2847 8.91425,-0.5522 9.11501,-0.5945 0.20076,-0.042 -0.34057,-1.1537 -1.20296,-2.4699 l -1.56796,-2.393 5.20295,1.5227 c 2.86163,0.8374 6.10296,1.8814 7.20296,2.3198 1.1,0.4385 3.35,1.2055 5,1.7044 2.98328,0.902 2.96655,0.9192 -3,3.0788 -3.3,1.1944 -6.78139,2.6191 -7.73643,3.166 -0.95504,0.5469 -2.69764,0.9944 -3.87245,0.9944 -1.77716,0 -1.92865,-0.2499 -0.90169,-1.4873 0.67888,-0.818 0.98275,-2.1429 0.67527,-2.9441 -0.48322,-1.2593 -8.33248,-1.3995 -57.86188,-1.0335 -148.13171,1.0945 -208.20251,1.4779 -230.55282,1.4716 l -24.25,-0.01 v 5.941 c 0,8.1352 -1.61342,8.4932 -2.4644,0.5469 z m 137.7144,-9.3815 c 17.09579,-0.068 26.75,-0.4673 26.75,-1.1063 0,-0.5569 -2.69013,-1 -6.0704,-1 -6.37766,0 -15.63724,-1.4999 -43.9296,-7.1157 -6.80819,-1.3514 -20.43398,-5.6924 -30.5,-9.717 -13.79982,-5.5174 -31.0667,-17.3849 -34.86611,-23.9634 -0.62364,-1.0798 -2.967,-4.3799 -5.20746,-7.3336 -2.24046,-2.9537 -5.67715,-8.5203 -7.63709,-12.3703 -1.95993,-3.85 -4.25975,-8.35 -5.11071,-10 -5.29548,-10.26793 -12.86861,-30.22368 -17.07733,-45.00002 -0.93993,-3.3 -2.06657,-6.9 -2.50364,-8 -2.57786,-6.48787 -12.22208,-50.31485 -13.5351,-61.50861 -0.35538,-3.02974 -1.02689,-6.12465 -1.49223,-6.87759 -0.68054,-1.10114 -6.6482,-1.40905 -30.50275,-1.5738 -19.77418,-0.13658 -29.87208,0.14367 -30.30306,0.84102 -0.35551,0.57522 -0.99033,2.8623 -1.41073,5.08241 -3.46371,18.29183 -7.70002,36.22063 -9.57819,40.53657 -0.59835,1.375 -3.21112,9.25 -5.80614,17.5 -2.59501,8.25 -6.04372,18.15 -7.66379,22 -3.54337,8.42064 -9.97093,21.4841 -10.83282,22.01678 -0.3408,0.21063 -1.22114,2.20552 -1.95631,4.43309 -0.73516,2.22757 -1.70308,4.05013 -2.15092,4.05013 -0.44784,0 -1.56361,1.4625 -2.47947,3.25002 -0.91587,1.7875 -1.94414,3.475 -2.28504,3.75 -0.34091,0.275 -1.82822,2.3652 -3.30513,4.6449 -2.46929,3.8115 -13.82391,15.7867 -18.37051,19.3745 -1.05901,0.8357 -4.40047,2.8044 -7.42547,4.3749 -3.025,1.5705 -7.975,4.2254 -11,5.8998 -3.025,1.6743 -5.725,2.9703 -6,2.88 -0.7835,-0.2573 -7.3812,1.993 -8.5573,2.9187 -0.58151,0.4577 -3.53322,1.4771 -6.55935,2.2653 -3.02613,0.7882 -7.6079,2.1481 -10.18172,3.0219 -2.57381,0.8738 -7.0471,2.0202 -9.94064,2.5474 -2.89355,0.5272 -8.41099,1.6144 -12.26099,2.416 -14.63176,3.0463 -39.25268,6.3205 -53.5,7.1146 -6.325,0.3525 -14.425,1.0512 -18,1.5526 -7.38942,1.0364 -37.088955,1.9147 -66.249992,1.9592 l -19.75,0.03 v 5.496 5.496 l 121.249992,0.254 c 107.76911,0.2258 302.2272,0.1535 376,-0.1397 z m -165.46421,-198.12692 23.2858,3.2e-4 -0.54058,-4.73986 c -0.29733,-2.60692 -0.73311,-5.86486 -0.9684,-7.23986 -0.2353,-1.375 -0.70354,-4.1875 -1.04053,-6.25 -0.33699,-2.0625 -1.11205,-3.75 -1.72235,-3.75 -1.55649,0 -13.79973,12.17989 -13.79973,13.72832 0,0.69943 0.5625,1.28141 1.25,1.2933 0.6875,0.0119 -1.225,1.30683 -4.25,2.87763 -3.025,1.5708 -5.63367,2.51007 -5.79704,2.08727 -0.16336,-0.4228 1.07414,-2.93083 2.75,-5.57341 1.67587,-2.64257 3.04704,-4.26657 3.04704,-3.60889 0,2.29312 1.70281,1.14377 9.80737,-6.6197 8.05994,-7.72073 8.14698,-7.8569 7.17911,-11.23166 -0.53886,-1.8789 -1.23122,-6.57443 -1.53857,-10.43452 -0.30736,-3.86009 -0.74301,-7.69334 -0.96813,-8.51834 -0.22511,-0.825 -0.65819,-4.65 -0.96238,-8.5 -0.30419,-3.85 -0.96679,-9.025 -1.47244,-11.5 -0.50564,-2.475 -1.21585,-8.1 -1.57823,-12.5 -1.35905,-16.50131 -1.12845,-13.9655 -4.41033,-48.5 -0.49654,-5.225 -1.6531,-14.9 -2.57013,-21.5 -0.91702,-6.6 -1.86356,-13.8 -2.1034,-16 -1.25051,-11.47033 -3.80395,-25.29837 -5.33889,-28.91254 l -1.7351,-4.08545 -1.57377,3.04334 c -3.48531,6.73984 -8.17262,29.71874 -10.18991,49.95465 -0.82244,8.25 -1.73512,16.8 -2.0282,19 -0.29308,2.2 -0.95217,7.6 -1.46464,12 -2.76314,23.72376 -5.62993,45.05812 -9.00308,67 -0.42276,2.75 -1.31576,9.275 -1.98443,14.5 -0.66868,5.225 -1.61706,10.4 -2.10752,11.5 -0.49046,1.1 -1.36092,5.15 -1.93435,9 -0.57343,3.85 -1.31012,8.43433 -1.6371,10.18741 -0.5877,3.15093 -0.54468,3.19121 3.75981,3.52022 2.39487,0.18305 5.25431,0.20651 6.35431,0.0521 1.1,-0.15438 12.47861,-0.28054 25.28579,-0.28036 z m 358.5418,187.88632 c -5.48763,-1.5269 -5.48109,-8.2202 0.0138,-14.1157 1.40972,-1.5125 3.36751,-2.75 4.35065,-2.75 1.47477,0 1.31615,0.4371 -0.90658,2.4981 -4.78077,4.433 -4.95767,13.5019 -0.26339,13.5019 2.42505,0 2.84466,-1.0173 3.70824,-8.9898 0.16454,-1.5191 1.00941,-2.6309 2.16704,-2.8517 1.69427,-0.3232 1.8186,0.05 1.16162,3.4898 -1.3775,7.2116 -1.26243,7.8517 1.4115,7.8517 3.51544,0 5.19064,-3.742 4.76515,-10.6443 -0.24755,-4.0157 -0.0102,-5.5146 0.82277,-5.1949 1.47537,0.5661 3.44161,4.8043 3.44161,7.4183 0,6.9775 -6.64778,12.6921 -11.25375,9.6742 -1.84125,-1.2065 -2.63829,-1.2523 -4.2559,-0.2447 -1.36651,0.8511 -2.98468,0.9631 -5.16276,0.3571 z M 636.19613,696.77158 c 0.35444,-2.10932 1.24409,-5.86013 1.977,-8.33513 0.73291,-2.475 1.87898,-7.57742 2.54682,-11.33872 0.79727,-4.49024 1.99699,-7.68331 3.49358,-9.29815 2.46408,-2.65879 7.8174,-3.9924 11.90644,-2.96611 2.20082,0.55237 2.55429,1.18878 2.55429,4.59898 0,3.11827 -0.53035,4.30539 -2.5,5.59596 -1.375,0.90093 -2.5,1.96407 -2.5,2.36253 0,0.39847 1.125,1.23706 2.5,1.86356 3.73191,1.70037 3.3956,6.24117 -0.75,10.12664 -3.51922,3.29838 -8.20719,4.03576 -11.71809,1.84316 -2.4724,-1.54404 -2.9229,-1.03733 -3.83668,4.3154 -0.51851,3.03731 -1.29469,4.48481 -2.53271,4.72323 -1.548,0.29811 -1.69949,-0.16559 -1.14065,-3.49135 z m 16.28957,-8.37409 c 1.43711,-1.33887 2.18856,-3.22731 2.18856,-5.5 0,-3.52061 -0.14898,-3.62784 -5.4239,-3.90379 -3.27514,-0.17133 -3.07163,-2.55725 0.21812,-2.55725 3.76049,0 5.45103,-2.04563 5.59333,-6.7682 0.10408,-3.45418 -0.11073,-3.74998 -2.88755,-3.97623 -4.83454,-0.39391 -6.96571,2.28398 -8.31372,10.44651 -1.51854,9.1951 -1.50074,13.00437 0.0637,13.63564 2.81389,1.13543 6.50148,0.54247 8.56144,-1.37668 z m -213.02167,2.99308 c 2.21124,-0.88757 2.28478,-1.30943 2.14415,-12.29886 -0.14735,-11.51479 -0.4424,-13.03464 -2.67031,-13.75532 -0.68001,-0.21997 3.59499,-0.39994 9.5,-0.39994 h 10.73639 l 0.22706,3 c 0.17588,2.32382 0.0464,2.56603 -0.57461,1.07461 -1.04663,-2.51371 -3.12422,-3.1708 -8.63879,-2.73221 l -4.51366,0.35899 v 5.3993 c 0,5.2268 0.0879,5.39887 2.75,5.38566 4.34832,-0.0216 7.10648,-1.05456 7.58044,-2.83898 0.24066,-0.90605 0.47607,0.37763 0.52315,2.85263 0.0668,3.50933 -0.1388,4.11474 -0.93369,2.75 -1.02096,-1.75288 -5.24121,-2.33141 -8.33811,-1.14301 -2.41122,0.92527 -2.26367,12.06817 0.16821,12.70368 0.9625,0.25153 -0.95,0.481 -4.25,0.50994 -4.60616,0.0404 -5.46807,-0.1609 -3.71023,-0.86649 z m 31.59577,-4.70412 c -0.91868,-3.1625 -2.2311,-6.65 -2.91648,-7.75 -0.68539,-1.1 -1.8032,-3.8 -2.48404,-6 -0.68083,-2.2 -1.92573,-4.7875 -2.76643,-5.75 -1.41382,-1.61863 -1.29786,-1.75 1.54463,-1.75 1.69027,0 3.67251,-0.15125 4.40499,-0.3361 0.73249,-0.18486 0.99429,-0.14736 0.58179,0.0833 -1.23109,0.68849 -0.85474,4.75066 0.82277,8.88065 3.13594,7.7206 3.92547,9.37212 4.48047,9.37212 0.31076,0 1.281,-2.23896 2.15611,-4.97548 1.71537,-5.36411 1.07256,-11.50824 -1.38703,-13.25755 -0.90826,-0.64598 -0.5395,-0.76101 1.17768,-0.36737 1.375,0.3152 3.0625,0.57924 3.75,0.58675 0.6875,0.008 1.25,1.00005 1.25,2.20566 0,3.11701 5.28411,15.78091 6.59087,15.79567 0.59998,0.007 1.62019,-2.35291 2.26713,-5.24374 0.64694,-2.89084 1.81499,-6.48725 2.59568,-7.99202 1.24329,-2.39644 1.22749,-2.92789 -0.1273,-4.28268 -1.39564,-1.39564 -1.18087,-1.52209 2.19855,-1.2945 3.02586,0.20378 3.42891,0.45133 2.09823,1.28875 -0.90588,0.57008 -3.51716,6.75392 -5.80284,13.74186 -2.28569,6.98794 -4.49569,12.49528 -4.91112,12.23853 -0.41543,-0.25675 -1.04647,-1.79237 -1.40231,-3.41249 -0.82422,-3.75264 -4.32069,-11.03136 -5.29913,-11.03136 -0.41007,0 -2.03414,3.375 -3.60906,7.5 -1.57492,4.125 -3.01634,7.5 -3.20316,7.5 -0.18682,0 -1.09132,-2.5875 -2.01,-5.75 z m 31.28301,4.2696 c 1.94432,-1.36185 2.10718,-2.36737 2.03381,-12.5576 -0.0439,-6.09246 -0.44483,-11.30284 -0.89105,-11.57862 -1.84729,-1.14168 -0.5396,-1.8985 3.70381,-2.14356 l 4.50524,-0.26018 -2.08537,2.08537 c -1.7312,1.7312 -1.96828,2.79443 -1.39594,6.26018 0.37919,2.29615 0.75052,4.24282 0.82519,4.32595 0.25332,0.28201 7.12325,0.64037 9.47458,0.49423 2.21316,-0.13756 2.32062,-0.46315 2,-6.05963 l -0.33882,-5.91427 3.8835,-0.6189 c 2.13593,-0.3404 4.12343,-0.37898 4.41667,-0.0857 0.29324,0.29321 -0.16869,0.53313 -1.02651,0.53313 -2.35104,0 -2.77366,2.15054 -2.77366,14.11401 0,10.42138 0.10871,10.99413 2.25,11.85483 1.72175,0.69206 0.84134,0.91213 -3.75,0.93737 -4.54254,0.025 -5.57491,-0.21462 -4.25,-0.98631 1.321,-0.76941 1.75,-2.32857 1.75,-6.36018 v -5.34091 l -3.70178,-0.43216 c -6.25137,-0.72981 -8.29822,0.0714 -8.29822,3.24814 0,1.5409 -0.25979,3.47865 -0.57732,4.3061 -0.31752,0.82746 0.35748,2.43927 1.5,3.58179 l 2.07732,2.07732 h -5.72251 c -5.33812,0 -5.58053,-0.0994 -3.60894,-1.4804 z m 29.92646,-0.62584 c 1.61831,-1.78926 1.90499,-3.68433 1.90499,-12.59252 0,-11.06741 -0.12089,-11.6747 -2.5,-12.55871 -0.825,-0.30655 0.28842,-0.42712 2.47427,-0.26795 2.18585,0.15918 4.27357,0.90501 4.63938,1.65742 0.36581,0.7524 2.39156,5.0805 4.50168,9.618 2.11012,4.5375 4.33867,8.25 4.95234,8.25 0.61366,0 1.68745,-1.9125 2.3862,-4.25 0.69874,-2.3375 2.61558,-6.8375 4.25963,-10 2.81686,-5.41851 3.19953,-5.74825 6.63784,-5.71959 2.9637,0.0247 3.32013,0.22176 1.89866,1.04969 -1.50738,0.87796 -1.75,2.62615 -1.75,12.60935 0,9.86542 0.26041,11.78774 1.75,12.9185 1.51577,1.15064 0.94692,1.32422 -4.25,1.29686 -4.59041,-0.0242 -5.4714,-0.24405 -3.75,-0.93597 2.12372,-0.85363 2.25,-1.46746 2.25,-10.93662 0,-6.02148 -0.39979,-10.03222 -1,-10.03222 -0.55,0 -1,0.4481 -1,0.99577 0,0.54768 -1.575,4.40554 -3.5,8.57303 -1.925,4.16749 -3.5,7.9393 -3.5,8.38178 0,0.44249 -0.63716,1.33332 -1.4159,1.97962 -1.13677,0.94344 -1.57011,0.72115 -2.19813,-1.12755 -0.43022,-1.26646 -0.69306,-2.64015 -0.5841,-3.05265 0.10897,-0.4125 -0.25187,-0.75 -0.80187,-0.75 -0.55,0 -1.00563,-0.5625 -1.01251,-1.25 -0.007,-0.6875 -1.56826,-3.95 -3.46973,-7.25 l -3.45721,-6 -0.0303,9.78222 c -0.0285,9.22362 0.0982,9.83387 2.21972,10.68662 1.81315,0.7288 1.29768,0.91669 -2.65499,0.96777 l -4.90499,0.0634 1.90499,-2.10624 z m 80.40499,1.2492 c 0,-0.44529 1.60996,-2.41959 3.57769,-4.38732 6.48855,-6.48855 8.42231,-9.81193 8.42231,-14.47467 0,-3.79308 -0.33774,-4.45888 -2.72166,-5.36524 -3.40017,-1.29275 -6.96628,0.14601 -8.24417,3.32614 -0.49907,1.24197 -0.93592,1.6526 -0.97078,0.9125 -0.0349,-0.7401 0.86725,-2.6526 2.0047,-4.25 1.73501,-2.43659 2.76218,-2.90437 6.37756,-2.90437 5.11903,0 6.66686,1.49905 6.93503,6.71647 0.10707,2.08307 0.50298,4.28627 0.87981,4.89599 0.9039,1.46255 -0.0993,2.38662 -1.85826,1.71165 -0.77122,-0.29595 -1.40223,-0.0966 -1.40223,0.44307 0,0.53963 -2.00069,2.92007 -4.44599,5.28987 -2.44529,2.3698 -4.21562,4.68146 -3.93406,5.13703 0.28155,0.45556 3.13741,0.60862 6.34635,0.34012 5.16699,-0.43234 5.78231,-0.29063 5.37879,1.23881 -0.37656,1.42727 -1.83445,1.76626 -8.40036,1.95329 -4.3696,0.12446 -7.94473,-0.13804 -7.94473,-0.58334 z m -34.76358,-5.35817 c 0.30385,-0.91577 3.51782,-1.36659 11.18987,-1.56958 8.41653,-0.2227 10.67062,-0.005 10.33729,1 -0.30385,0.91577 -3.51782,1.36659 -11.18987,1.56958 -8.41653,0.2227 -10.67062,0.005 -10.33729,-1 z m -0.23642,-8.69224 c 0,-1.05347 8.97909,-1.74863 16.09438,-1.24604 8.99479,0.63536 5.05095,2.15349 -5.59438,2.15349 -5.775,0 -10.5,-0.40835 -10.5,-0.90745 z M 31.176479,549.42639 c 0.363616,-1.65554 1.256797,-4.24304 1.984845,-5.75 0.728049,-1.50697 1.638144,-4.69559 2.022434,-7.08584 0.384291,-2.39024 1.047504,-3.96524 1.473808,-3.5 0.909968,0.99309 2.910859,7.03184 3.613091,10.90442 0.270372,1.49101 1.158347,4.0003 1.973278,5.5762 1.629661,3.15142 0.859357,3.65702 -2.128537,1.39709 -2.512448,-1.90032 -4.880695,-1.91202 -6.44113,-0.0318 -2.034072,2.45091 -3.211431,1.73913 -2.497789,-1.51006 z m 21.174463,-8.23994 c 1.113916,-1.2375 2.27368,-2.96048 2.577254,-3.82885 0.303574,-0.86837 2.272743,-4.24337 4.375931,-7.5 2.103188,-3.25663 4.66789,-7.49615 5.69934,-9.42115 3.01282,-5.62283 3.46455,-5.5529 4.1095,0.63618 0.33608,3.2251 1.00718,7.21382 1.49132,8.86382 0.48415,1.65 1.18822,4.8 1.56461,7 0.37639,2.2 1.14918,4.5625 1.7173,5.25 0.7982,0.96592 0.0682,1.25 -3.21193,1.25 -3.57395,0 -4.05669,-0.22676 -3.05421,-1.43467 0.65487,-0.78907 1.04747,-2.92657 0.87244,-4.75 -0.31268,-3.25751 -0.40335,-3.31533 -5.19953,-3.31533 -4.553828,0 -5.007424,0.2348 -6.761454,3.5 -1.763563,3.28295 -1.774575,3.57752 -0.177573,4.75 1.468389,1.07806 1.170879,1.25 -2.162856,1.25 H 50.32564 Z m 14.852995,-12.25 c 0.0163,-1.65 -0.36533,-3.84041 -0.8481,-4.86757 -0.77317,-1.645 -1.22312,-1.34706 -3.7754,2.5 -1.593682,2.40216 -2.899533,4.73224 -2.901888,5.17794 -0.0024,0.4457 1.683219,0.6707 3.745718,0.5 3.42315,-0.28331 3.75259,-0.57185 3.77967,-3.31037 z m 13.03156,-5.79895 c 0.38057,-0.99177 2.251298,-1.36593 6.486638,-1.29738 7.84228,0.12693 7.16402,2.00599 -0.86403,2.39371 -4.935268,0.23835 -6.051278,0.0207 -5.622608,-1.09633 z m 4.873948,-6.07722 c 1.8104,-2.45444 2.89681,-5.20534 2.96195,-7.5 0.0936,-3.29868 -0.16188,-3.65395 -2.84782,-3.95961 -1.96306,-0.2234 -3.38557,0.25896 -4.249998,1.44113 -0.71462,0.9773 -1.29931,1.25844 -1.29931,0.62474 0,-1.66852 4.095558,-5.23009 6.014248,-5.23009 0.90042,0 2.65499,1.08348 3.89905,2.40772 l 2.26193,2.40771 -1.95178,4.34229 c -1.07348,2.38826 -3.23328,5.46728 -4.79956,6.84228 l -2.84778,2.5 z"
       id="path861" />
  </g>
</svg>
