<?xml version="1.0" encoding="UTF-8" standalone="no"?>
<svg
   version="1.1"
   width="1320"
   height="880"
   id="svg1272"
   sodipodi:docname="marea.svg"
   inkscape:version="1.1.1 (3bf5ae0d25, 2021-09-20)"
   xmlns:inkscape="http://www.inkscape.org/namespaces/inkscape"
   xmlns:sodipodi="http://sodipodi.sourceforge.net/DTD/sodipodi-0.dtd"
   xmlns="http://www.w3.org/2000/svg"
   xmlns:svg="http://www.w3.org/2000/svg">
  <sodipodi:namedview
     id="namedview1274"
     pagecolor="#ffffff"
     bordercolor="#666666"
     borderopacity="1.0"
     inkscape:pageshadow="2"
     inkscape:pageopacity="0.0"
     inkscape:pagecheckerboard="0"
     showgrid="false"
     inkscape:zoom="20.48"
     inkscape:cx="72.314454"
     inkscape:cy="394.16504"
     inkscape:window-width="1920"
     inkscape:window-height="1050"
     inkscape:window-x="0"
     inkscape:window-y="30"
     inkscape:window-maximized="1"
     inkscape:current-layer="g3924" />
  <defs
     id="defs1076">
    <clipPath
       id="TRzUBihtFWFJ">
      <path
         fill="none"
         stroke="none"
         d=" M 0 0 L 1320 0 L 1320 880 L 0 880 L 0 0 Z"
         id="path1073" />
    </clipPath>
  </defs>
  <g
     clip-path="url(#TRzUBihtFWFJ)"
     id="g1270">
    <g
       id="g1268">
      <path
         fill="#99ffff"
         stroke="none"
         paint-order="stroke fill markers"
         d="m 1183.4193,369.96582 c 0,-171.24279 -161.8902,-310.062502 -361.59186,-310.062502 -199.7017,0 -361.59191,138.819712 -361.59191,310.062502 0,171.24279 161.89021,310.0625 361.59191,310.0625 199.70166,0 361.59186,-138.81971 361.59186,-310.0625 z"
         fill-opacity="0.329412"
         id="path1080" />
      <path
         fill="none"
         stroke="#99ffff"
         paint-order="fill stroke markers"
         d="m 1183.4193,369.96582 c 0,-171.24279 -161.8902,-310.062502 -361.59186,-310.062502 -199.7017,0 -361.59191,138.819712 -361.59191,310.062502 0,171.24279 161.89021,310.0625 361.59191,310.0625 199.70166,0 361.59186,-138.81971 361.59186,-310.0625 z"
         stroke-opacity="0.698039"
         stroke-linecap="round"
         stroke-linejoin="round"
         stroke-miterlimit="10"
         stroke-width="2.5"
         id="path1082" />
      <g
         id="g1850"
         transform="matrix(1.2283618,0,0,1.2283618,-162.74076,-8.5020262)"
         style="stroke-width:3;stroke-miterlimit:10;stroke-dasharray:none">
        <g
           aria-label="Océano"
           id="text1086"
           style="font-size:28px;font-family:'TeX Gyre Pagella';-inkscape-font-specification:'TeX Gyre Pagella, Normal';dominant-baseline:alphabetic;fill:none;stroke:#000000;stroke-width:1.62818;stroke-linejoin:bevel;stroke-miterlimit:10;stroke-dasharray:none">
          <path
             d="m 663.616,39.452 c 0,5.88 4.088,10.108 9.744,10.108 6.272,0 11.032,-4.676 11.032,-10.836 0,-5.88 -3.92,-9.576 -10.136,-9.576 -6.384,0 -10.64,4.144 -10.64,10.304 z m 2.996,-1.036 c 0,-5.18 2.576,-8.092 7.168,-8.092 4.788,0 7.616,3.416 7.616,9.24 0,5.544 -2.576,8.82 -6.916,8.82 -4.704,0 -7.868,-3.976 -7.868,-9.968 z"
             style="font-size:28px;font-family:'TeX Gyre Pagella';-inkscape-font-specification:'TeX Gyre Pagella, Normal';dominant-baseline:alphabetic;fill:none;stroke:#000000;stroke-width:1.62818;stroke-linejoin:bevel;stroke-miterlimit:10;stroke-dasharray:none"
             id="path76503" />
          <path
             d="m 685.73598,43.12 c 0,3.78 2.66,6.44 6.412,6.44 1.456,0 3.556,-0.532 3.836,-0.952 l 0.588,-0.896 -0.28,-0.42 c -1.036,0.56 -1.932,0.812 -2.94,0.812 -3.108,0 -5.152,-2.408 -5.152,-6.104 0,-2.996 1.4,-4.676 3.92,-4.676 1.232,0 2.576,0.56 3.08,1.26 l 0.196,1.708 h 0.784 c 0,-1.288 0.14,-2.436 0.392,-3.444 -1.12,-0.672 -2.1,-0.98 -3.248,-0.98 -1.344,0 -2.912,0.532 -4.592,1.596 -1.96,1.232 -2.996,3.192 -2.996,5.656 z"
             style="font-size:28px;font-family:'TeX Gyre Pagella';-inkscape-font-specification:'TeX Gyre Pagella, Normal';dominant-baseline:alphabetic;fill:none;stroke:#000000;stroke-width:1.62818;stroke-linejoin:bevel;stroke-miterlimit:10;stroke-dasharray:none"
             id="path76505" />
          <path
             d="m 698.16793,42.868 c 0,1.764 0.392,3.276 1.176,4.34 1.092,1.484 2.996,2.352 5.096,2.352 1.036,0 2.072,-0.224 3.22,-0.728 0.756,-0.308 1.344,-0.672 1.456,-0.84 l 0.56,-0.952 -0.364,-0.28 c -1.792,1.064 -2.436,1.316 -3.64,1.316 -1.82,0 -3.332,-0.812 -4.116,-2.184 -0.532,-0.924 -0.728,-1.708 -0.784,-3.332 h 4.088 c 1.932,0 3.136,-0.084 5.068,-0.392 0.028,-0.392 0.056,-0.644 0.056,-0.98 0,-3.22 -2.072,-5.32 -5.208,-5.32 -1.036,0 -2.24,0.364 -3.388,1.036 -2.296,1.316 -3.22,3.052 -3.22,5.964 z m 2.66,-1.428 c 0,-1.316 0.112,-1.932 0.476,-2.66 0.588,-1.232 1.792,-1.988 3.136,-1.988 0.924,0 1.652,0.364 2.156,1.12 0.616,0.924 0.896,1.736 0.896,3.612 l -3.136,0.084 c -1.288,0 -2.016,-0.028 -3.528,-0.168 z m 1.456,-6.608 h 1.12 l 4.032,-2.52 c 0.924,-0.588 1.12,-0.812 1.12,-1.316 0,-0.532 -0.392,-0.952 -0.868,-0.952 -0.42,0 -0.924,0.308 -1.54,0.924 z"
             style="font-size:28px;font-family:'TeX Gyre Pagella';-inkscape-font-specification:'TeX Gyre Pagella, Normal';dominant-baseline:alphabetic;fill:none;stroke:#000000;stroke-width:1.62818;stroke-linejoin:bevel;stroke-miterlimit:10;stroke-dasharray:none"
             id="path76507" />
          <path
             d="m 711.74788,45.892 c 0,2.184 1.316,3.444 3.528,3.444 0.504,0 0.98,-0.084 1.176,-0.224 l 3.472,-2.408 -0.14,2.38 c 0.728,-0.056 1.456,-0.084 2.184,-0.084 0.7,0 1.372,0.028 2.072,0.084 v -0.84 l -1.092,-0.056 c -0.672,-0.028 -0.784,-0.252 -0.784,-1.624 V 41.44 c 0,-4.088 -1.176,-5.572 -4.424,-5.572 -1.204,0 -2.324,0.308 -3.388,0.952 l -1.484,0.896 v 1.82 l 0.728,0.196 0.364,-0.868 c 0.56,-1.316 0.868,-1.512 2.156,-1.512 2.632,0 3.724,1.036 3.808,3.584 l -2.772,0.504 c -3.808,0.7 -5.404,2.016 -5.404,4.452 z m 2.408,-0.392 c 0,-1.036 0.56,-2.016 1.4,-2.548 0.7,-0.42 2.24,-0.812 4.368,-1.12 v 3.696 c -0.812,1.148 -2.576,2.212 -3.668,2.212 -1.12,0 -2.1,-1.036 -2.1,-2.24 z"
             style="font-size:28px;font-family:'TeX Gyre Pagella';-inkscape-font-specification:'TeX Gyre Pagella, Normal';dominant-baseline:alphabetic;fill:none;stroke:#000000;stroke-width:1.62818;stroke-linejoin:bevel;stroke-miterlimit:10;stroke-dasharray:none"
             id="path76509" />
          <path
             d="m 725.01983,49.084 c 1.148,-0.056 2.324,-0.084 3.472,-0.084 1.148,0 2.324,0.028 3.472,0.084 v -0.84 l -1.26,-0.084 c -0.952,-0.056 -1.036,-0.252 -1.036,-2.016 v -5.936 c 0,-1.26 1.848,-2.632 3.556,-2.632 1.876,0 3.108,1.4 3.108,3.556 v 7.952 c 0.728,-0.056 1.484,-0.084 2.212,-0.084 0.784,0 1.54,0.028 2.324,0.084 v -0.84 l -1.148,-0.084 c -0.952,-0.056 -1.036,-0.224 -1.036,-2.016 V 40.74 c 0,-3.276 -1.54,-4.872 -4.676,-4.872 -1.036,0 -1.624,0.196 -2.212,0.7 l -2.128,1.848 V 35.98 l -0.252,-0.112 c -1.428,0.588 -2.884,0.98 -4.368,1.148 V 37.8 h 1.036 c 1.12,0 1.232,0.196 1.232,2.044 v 6.3 c 0,1.764 -0.084,1.96 -1.036,2.016 l -1.26,0.084 z"
             style="font-size:28px;font-family:'TeX Gyre Pagella';-inkscape-font-specification:'TeX Gyre Pagella, Normal';dominant-baseline:alphabetic;fill:none;stroke:#000000;stroke-width:1.62818;stroke-linejoin:bevel;stroke-miterlimit:10;stroke-dasharray:none"
             id="path76511" />
          <path
             d="m 742.0438,42.924 c 0,3.948 2.492,6.636 6.104,6.636 4.312,0 7.392,-2.996 7.392,-7.196 0,-3.78 -2.744,-6.496 -6.58,-6.496 -4.088,0 -6.916,2.884 -6.916,7.056 z m 2.604,-0.952 c 0,-3.36 1.344,-5.18 3.808,-5.18 2.576,0 4.48,2.8 4.48,6.608 0,3.22 -1.428,5.236 -3.696,5.236 -2.744,0 -4.592,-2.688 -4.592,-6.664 z"
             style="font-size:28px;font-family:'TeX Gyre Pagella';-inkscape-font-specification:'TeX Gyre Pagella, Normal';dominant-baseline:alphabetic;fill:none;stroke:#000000;stroke-width:1.62818;stroke-linejoin:bevel;stroke-miterlimit:10;stroke-dasharray:none"
             id="path76513" />
        </g>
        <g
           aria-label="Océano"
           id="text1088"
           style="font-size:28px;font-family:'TeX Gyre Pagella';-inkscape-font-specification:'TeX Gyre Pagella, Normal';dominant-baseline:alphabetic;fill:#99ffff">
          <path
             d="m 663.616,39.452 c 0,5.88 4.088,10.108 9.744,10.108 6.272,0 11.032,-4.676 11.032,-10.836 0,-5.88 -3.92,-9.576 -10.136,-9.576 -6.384,0 -10.64,4.144 -10.64,10.304 z m 2.996,-1.036 c 0,-5.18 2.576,-8.092 7.168,-8.092 4.788,0 7.616,3.416 7.616,9.24 0,5.544 -2.576,8.82 -6.916,8.82 -4.704,0 -7.868,-3.976 -7.868,-9.968 z"
             style="font-size:28px;font-family:'TeX Gyre Pagella';-inkscape-font-specification:'TeX Gyre Pagella, Normal';dominant-baseline:alphabetic;fill:#99ffff"
             id="path76516" />
          <path
             d="m 685.73598,43.12 c 0,3.78 2.66,6.44 6.412,6.44 1.456,0 3.556,-0.532 3.836,-0.952 l 0.588,-0.896 -0.28,-0.42 c -1.036,0.56 -1.932,0.812 -2.94,0.812 -3.108,0 -5.152,-2.408 -5.152,-6.104 0,-2.996 1.4,-4.676 3.92,-4.676 1.232,0 2.576,0.56 3.08,1.26 l 0.196,1.708 h 0.784 c 0,-1.288 0.14,-2.436 0.392,-3.444 -1.12,-0.672 -2.1,-0.98 -3.248,-0.98 -1.344,0 -2.912,0.532 -4.592,1.596 -1.96,1.232 -2.996,3.192 -2.996,5.656 z"
             style="font-size:28px;font-family:'TeX Gyre Pagella';-inkscape-font-specification:'TeX Gyre Pagella, Normal';dominant-baseline:alphabetic;fill:#99ffff"
             id="path76518" />
          <path
             d="m 698.16793,42.868 c 0,1.764 0.392,3.276 1.176,4.34 1.092,1.484 2.996,2.352 5.096,2.352 1.036,0 2.072,-0.224 3.22,-0.728 0.756,-0.308 1.344,-0.672 1.456,-0.84 l 0.56,-0.952 -0.364,-0.28 c -1.792,1.064 -2.436,1.316 -3.64,1.316 -1.82,0 -3.332,-0.812 -4.116,-2.184 -0.532,-0.924 -0.728,-1.708 -0.784,-3.332 h 4.088 c 1.932,0 3.136,-0.084 5.068,-0.392 0.028,-0.392 0.056,-0.644 0.056,-0.98 0,-3.22 -2.072,-5.32 -5.208,-5.32 -1.036,0 -2.24,0.364 -3.388,1.036 -2.296,1.316 -3.22,3.052 -3.22,5.964 z m 2.66,-1.428 c 0,-1.316 0.112,-1.932 0.476,-2.66 0.588,-1.232 1.792,-1.988 3.136,-1.988 0.924,0 1.652,0.364 2.156,1.12 0.616,0.924 0.896,1.736 0.896,3.612 l -3.136,0.084 c -1.288,0 -2.016,-0.028 -3.528,-0.168 z m 1.456,-6.608 h 1.12 l 4.032,-2.52 c 0.924,-0.588 1.12,-0.812 1.12,-1.316 0,-0.532 -0.392,-0.952 -0.868,-0.952 -0.42,0 -0.924,0.308 -1.54,0.924 z"
             style="font-size:28px;font-family:'TeX Gyre Pagella';-inkscape-font-specification:'TeX Gyre Pagella, Normal';dominant-baseline:alphabetic;fill:#99ffff"
             id="path76520" />
          <path
             d="m 711.74788,45.892 c 0,2.184 1.316,3.444 3.528,3.444 0.504,0 0.98,-0.084 1.176,-0.224 l 3.472,-2.408 -0.14,2.38 c 0.728,-0.056 1.456,-0.084 2.184,-0.084 0.7,0 1.372,0.028 2.072,0.084 v -0.84 l -1.092,-0.056 c -0.672,-0.028 -0.784,-0.252 -0.784,-1.624 V 41.44 c 0,-4.088 -1.176,-5.572 -4.424,-5.572 -1.204,0 -2.324,0.308 -3.388,0.952 l -1.484,0.896 v 1.82 l 0.728,0.196 0.364,-0.868 c 0.56,-1.316 0.868,-1.512 2.156,-1.512 2.632,0 3.724,1.036 3.808,3.584 l -2.772,0.504 c -3.808,0.7 -5.404,2.016 -5.404,4.452 z m 2.408,-0.392 c 0,-1.036 0.56,-2.016 1.4,-2.548 0.7,-0.42 2.24,-0.812 4.368,-1.12 v 3.696 c -0.812,1.148 -2.576,2.212 -3.668,2.212 -1.12,0 -2.1,-1.036 -2.1,-2.24 z"
             style="font-size:28px;font-family:'TeX Gyre Pagella';-inkscape-font-specification:'TeX Gyre Pagella, Normal';dominant-baseline:alphabetic;fill:#99ffff"
             id="path76522" />
          <path
             d="m 725.01983,49.084 c 1.148,-0.056 2.324,-0.084 3.472,-0.084 1.148,0 2.324,0.028 3.472,0.084 v -0.84 l -1.26,-0.084 c -0.952,-0.056 -1.036,-0.252 -1.036,-2.016 v -5.936 c 0,-1.26 1.848,-2.632 3.556,-2.632 1.876,0 3.108,1.4 3.108,3.556 v 7.952 c 0.728,-0.056 1.484,-0.084 2.212,-0.084 0.784,0 1.54,0.028 2.324,0.084 v -0.84 l -1.148,-0.084 c -0.952,-0.056 -1.036,-0.224 -1.036,-2.016 V 40.74 c 0,-3.276 -1.54,-4.872 -4.676,-4.872 -1.036,0 -1.624,0.196 -2.212,0.7 l -2.128,1.848 V 35.98 l -0.252,-0.112 c -1.428,0.588 -2.884,0.98 -4.368,1.148 V 37.8 h 1.036 c 1.12,0 1.232,0.196 1.232,2.044 v 6.3 c 0,1.764 -0.084,1.96 -1.036,2.016 l -1.26,0.084 z"
             style="font-size:28px;font-family:'TeX Gyre Pagella';-inkscape-font-specification:'TeX Gyre Pagella, Normal';dominant-baseline:alphabetic;fill:#99ffff"
             id="path76524" />
          <path
             d="m 742.0438,42.924 c 0,3.948 2.492,6.636 6.104,6.636 4.312,0 7.392,-2.996 7.392,-7.196 0,-3.78 -2.744,-6.496 -6.58,-6.496 -4.088,0 -6.916,2.884 -6.916,7.056 z m 2.604,-0.952 c 0,-3.36 1.344,-5.18 3.808,-5.18 2.576,0 4.48,2.8 4.48,6.608 0,3.22 -1.428,5.236 -3.696,5.236 -2.744,0 -4.592,-2.688 -4.592,-6.664 z"
             style="font-size:28px;font-family:'TeX Gyre Pagella';-inkscape-font-specification:'TeX Gyre Pagella, Normal';dominant-baseline:alphabetic;fill:#99ffff"
             id="path76526" />
        </g>
      </g>
      <path
         fill="#339900"
         stroke="none"
         paint-order="stroke fill markers"
         d="m 1069.8774,369.96582 c 0,136.99423 -111.05573,248.05 -248.04996,248.05 -136.99424,0 -248.05,-111.05577 -248.05,-248.05 0,-136.99423 111.05576,-248.05 248.05,-248.05 136.99423,0 248.04996,111.05577 248.04996,248.05 z"
         fill-opacity="0.556863"
         id="path1090" />
      <path
         fill="none"
         stroke="#339900"
         paint-order="fill stroke markers"
         d="m 1069.8774,369.96582 c 0,136.99423 -111.05573,248.05 -248.04996,248.05 -136.99424,0 -248.05,-111.05577 -248.05,-248.05 0,-136.99423 111.05576,-248.05 248.05,-248.05 136.99423,0 248.04996,111.05577 248.04996,248.05 z"
         stroke-opacity="0.698039"
         stroke-linecap="round"
         stroke-linejoin="round"
         stroke-miterlimit="10"
         stroke-width="2.5"
         id="path1092" />
      <g
         id="g2426"
         transform="matrix(1.411151,0,0,1.411151,-300.20193,-62.961506)"
         style="stroke-width:3;stroke-miterlimit:10;stroke-dasharray:none">
        <g
           aria-label="Tierra"
           id="text1096"
           style="font-size:28px;font-family:'TeX Gyre Pagella';-inkscape-font-specification:'TeX Gyre Pagella, Normal';dominant-baseline:alphabetic;fill:none;stroke:#000000;stroke-width:1.41728;stroke-linejoin:bevel;stroke-miterlimit:10;stroke-dasharray:none">
          <path
             d="m 712.504,162.624 c 0.14,1.596 0.196,2.688 0.196,4.508 h 0.868 l 0.112,-2.212 c 0.028,-0.672 0.336,-0.924 1.12,-0.924 h 4.34 c 0.084,0.952 0.112,1.596 0.112,2.8 v 11.844 c 0,2.212 -0.14,2.436 -1.428,2.52 l -1.344,0.084 v 0.84 c 1.372,-0.056 2.716,-0.084 4.088,-0.084 1.372,0 2.744,0.028 4.116,0.084 v -0.84 l -1.344,-0.084 c -1.288,-0.084 -1.428,-0.308 -1.428,-2.52 v -11.844 c 0,-1.26 0.028,-1.876 0.112,-2.8 h 4.34 c 0.784,0 1.092,0.252 1.12,0.924 l 0.112,2.212 h 0.868 c 0,-1.82 0.056,-2.912 0.196,-4.508 l -6.048,0.084 h -4.424 z"
             style="font-size:28px;font-family:'TeX Gyre Pagella';-inkscape-font-specification:'TeX Gyre Pagella, Normal';dominant-baseline:alphabetic;fill:none;stroke:#000000;stroke-width:1.41728;stroke-linejoin:bevel;stroke-miterlimit:10;stroke-dasharray:none"
             id="path79477" />
          <path
             d="m 729.05193,182.084 c 1.176,-0.056 2.324,-0.084 3.5,-0.084 1.176,0 2.324,0.028 3.5,0.084 v -0.84 l -1.288,-0.084 c -0.952,-0.056 -1.036,-0.252 -1.036,-2.016 V 168.98 l -0.252,-0.112 c -1.428,0.588 -2.884,0.98 -4.368,1.148 v 0.784 h 1.036 c 1.12,0 1.232,0.196 1.232,2.044 v 6.3 c 0,1.764 -0.084,1.96 -1.036,2.016 l -1.288,0.084 z m 2.1,-16.66 c 0,0.84 0.56,1.4 1.4,1.4 0.84,0 1.4,-0.56 1.4,-1.4 0,-0.812 -0.56,-1.4 -1.372,-1.4 -0.868,0 -1.428,0.56 -1.428,1.4 z"
             style="font-size:28px;font-family:'TeX Gyre Pagella';-inkscape-font-specification:'TeX Gyre Pagella, Normal';dominant-baseline:alphabetic;fill:none;stroke:#000000;stroke-width:1.41728;stroke-linejoin:bevel;stroke-miterlimit:10;stroke-dasharray:none"
             id="path79479" />
          <path
             d="m 737.22789,175.868 c 0,1.764 0.392,3.276 1.176,4.34 1.092,1.484 2.996,2.352 5.096,2.352 1.036,0 2.072,-0.224 3.22,-0.728 0.756,-0.308 1.344,-0.672 1.456,-0.84 l 0.56,-0.952 -0.364,-0.28 c -1.792,1.064 -2.436,1.316 -3.64,1.316 -1.82,0 -3.332,-0.812 -4.116,-2.184 -0.532,-0.924 -0.728,-1.708 -0.784,-3.332 h 4.088 c 1.932,0 3.136,-0.084 5.068,-0.392 0.028,-0.392 0.056,-0.644 0.056,-0.98 0,-3.22 -2.072,-5.32 -5.208,-5.32 -1.036,0 -2.24,0.364 -3.388,1.036 -2.296,1.316 -3.22,3.052 -3.22,5.964 z m 2.66,-1.428 c 0,-1.316 0.112,-1.932 0.476,-2.66 0.588,-1.232 1.792,-1.988 3.136,-1.988 0.924,0 1.652,0.364 2.156,1.12 0.616,0.924 0.896,1.736 0.896,3.612 l -3.136,0.084 c -1.288,0 -2.016,-0.028 -3.528,-0.168 z"
             style="font-size:28px;font-family:'TeX Gyre Pagella';-inkscape-font-specification:'TeX Gyre Pagella, Normal';dominant-baseline:alphabetic;fill:none;stroke:#000000;stroke-width:1.41728;stroke-linejoin:bevel;stroke-miterlimit:10;stroke-dasharray:none"
             id="path79481" />
          <path
             d="m 750.49984,182.084 c 1.148,-0.056 2.296,-0.084 3.444,-0.084 1.344,0 2.66,0.028 4.004,0.084 v -0.84 l -1.456,-0.084 c -1.26,-0.084 -1.316,-0.168 -1.316,-2.016 v -4.816 c 0,-1.68 1.12,-3.08 2.492,-3.08 0.84,0 1.428,0.392 1.876,1.288 h 0.588 l 0.252,-3.36 c -0.308,-0.196 -0.812,-0.308 -1.316,-0.308 -0.84,0 -1.736,0.448 -2.324,1.148 l -1.568,1.848 v -2.884 l -0.252,-0.112 c -1.428,0.588 -2.884,0.98 -4.368,1.148 v 0.784 h 1.036 c 1.12,0 1.232,0.196 1.232,2.044 v 6.3 c 0,1.764 -0.084,1.96 -1.036,2.016 l -1.288,0.084 z"
             style="font-size:28px;font-family:'TeX Gyre Pagella';-inkscape-font-specification:'TeX Gyre Pagella, Normal';dominant-baseline:alphabetic;fill:none;stroke:#000000;stroke-width:1.41728;stroke-linejoin:bevel;stroke-miterlimit:10;stroke-dasharray:none"
             id="path79483" />
          <path
             d="m 761.5598,182.084 c 1.148,-0.056 2.296,-0.084 3.444,-0.084 1.344,0 2.66,0.028 4.004,0.084 v -0.84 l -1.456,-0.084 c -1.26,-0.084 -1.316,-0.168 -1.316,-2.016 v -4.816 c 0,-1.68 1.12,-3.08 2.492,-3.08 0.84,0 1.428,0.392 1.876,1.288 h 0.588 l 0.252,-3.36 c -0.308,-0.196 -0.812,-0.308 -1.316,-0.308 -0.84,0 -1.736,0.448 -2.324,1.148 l -1.568,1.848 v -2.884 l -0.252,-0.112 c -1.428,0.588 -2.884,0.98 -4.368,1.148 v 0.784 h 1.036 c 1.12,0 1.232,0.196 1.232,2.044 v 6.3 c 0,1.764 -0.084,1.96 -1.036,2.016 l -1.288,0.084 z"
             style="font-size:28px;font-family:'TeX Gyre Pagella';-inkscape-font-specification:'TeX Gyre Pagella, Normal';dominant-baseline:alphabetic;fill:none;stroke:#000000;stroke-width:1.41728;stroke-linejoin:bevel;stroke-miterlimit:10;stroke-dasharray:none"
             id="path79485" />
          <path
             d="m 772.50772,178.892 c 0,2.184 1.316,3.444 3.528,3.444 0.504,0 0.98,-0.084 1.176,-0.224 l 3.472,-2.408 -0.14,2.38 c 0.728,-0.056 1.456,-0.084 2.184,-0.084 0.7,0 1.372,0.028 2.072,0.084 v -0.84 l -1.092,-0.056 c -0.672,-0.028 -0.784,-0.252 -0.784,-1.624 v -5.124 c 0,-4.088 -1.176,-5.572 -4.424,-5.572 -1.204,0 -2.324,0.308 -3.388,0.952 l -1.484,0.896 v 1.82 l 0.728,0.196 0.364,-0.868 c 0.56,-1.316 0.868,-1.512 2.156,-1.512 2.632,0 3.724,1.036 3.808,3.584 l -2.772,0.504 c -3.808,0.7 -5.404,2.016 -5.404,4.452 z m 2.408,-0.392 c 0,-1.036 0.56,-2.016 1.4,-2.548 0.7,-0.42 2.24,-0.812 4.368,-1.12 v 3.696 c -0.812,1.148 -2.576,2.212 -3.668,2.212 -1.12,0 -2.1,-1.036 -2.1,-2.24 z"
             style="font-size:28px;font-family:'TeX Gyre Pagella';-inkscape-font-specification:'TeX Gyre Pagella, Normal';dominant-baseline:alphabetic;fill:none;stroke:#000000;stroke-width:1.41728;stroke-linejoin:bevel;stroke-miterlimit:10;stroke-dasharray:none"
             id="path79487" />
        </g>
        <g
           aria-label="Tierra"
           id="text1098"
           style="font-size:28px;font-family:'TeX Gyre Pagella';-inkscape-font-specification:'TeX Gyre Pagella, Normal';dominant-baseline:alphabetic;fill:#339900">
          <path
             d="m 712.504,162.624 c 0.14,1.596 0.196,2.688 0.196,4.508 h 0.868 l 0.112,-2.212 c 0.028,-0.672 0.336,-0.924 1.12,-0.924 h 4.34 c 0.084,0.952 0.112,1.596 0.112,2.8 v 11.844 c 0,2.212 -0.14,2.436 -1.428,2.52 l -1.344,0.084 v 0.84 c 1.372,-0.056 2.716,-0.084 4.088,-0.084 1.372,0 2.744,0.028 4.116,0.084 v -0.84 l -1.344,-0.084 c -1.288,-0.084 -1.428,-0.308 -1.428,-2.52 v -11.844 c 0,-1.26 0.028,-1.876 0.112,-2.8 h 4.34 c 0.784,0 1.092,0.252 1.12,0.924 l 0.112,2.212 h 0.868 c 0,-1.82 0.056,-2.912 0.196,-4.508 l -6.048,0.084 h -4.424 z"
             style="font-size:28px;font-family:'TeX Gyre Pagella';-inkscape-font-specification:'TeX Gyre Pagella, Normal';dominant-baseline:alphabetic;fill:#339900"
             id="path79490" />
          <path
             d="m 729.05193,182.084 c 1.176,-0.056 2.324,-0.084 3.5,-0.084 1.176,0 2.324,0.028 3.5,0.084 v -0.84 l -1.288,-0.084 c -0.952,-0.056 -1.036,-0.252 -1.036,-2.016 V 168.98 l -0.252,-0.112 c -1.428,0.588 -2.884,0.98 -4.368,1.148 v 0.784 h 1.036 c 1.12,0 1.232,0.196 1.232,2.044 v 6.3 c 0,1.764 -0.084,1.96 -1.036,2.016 l -1.288,0.084 z m 2.1,-16.66 c 0,0.84 0.56,1.4 1.4,1.4 0.84,0 1.4,-0.56 1.4,-1.4 0,-0.812 -0.56,-1.4 -1.372,-1.4 -0.868,0 -1.428,0.56 -1.428,1.4 z"
             style="font-size:28px;font-family:'TeX Gyre Pagella';-inkscape-font-specification:'TeX Gyre Pagella, Normal';dominant-baseline:alphabetic;fill:#339900"
             id="path79492" />
          <path
             d="m 737.22789,175.868 c 0,1.764 0.392,3.276 1.176,4.34 1.092,1.484 2.996,2.352 5.096,2.352 1.036,0 2.072,-0.224 3.22,-0.728 0.756,-0.308 1.344,-0.672 1.456,-0.84 l 0.56,-0.952 -0.364,-0.28 c -1.792,1.064 -2.436,1.316 -3.64,1.316 -1.82,0 -3.332,-0.812 -4.116,-2.184 -0.532,-0.924 -0.728,-1.708 -0.784,-3.332 h 4.088 c 1.932,0 3.136,-0.084 5.068,-0.392 0.028,-0.392 0.056,-0.644 0.056,-0.98 0,-3.22 -2.072,-5.32 -5.208,-5.32 -1.036,0 -2.24,0.364 -3.388,1.036 -2.296,1.316 -3.22,3.052 -3.22,5.964 z m 2.66,-1.428 c 0,-1.316 0.112,-1.932 0.476,-2.66 0.588,-1.232 1.792,-1.988 3.136,-1.988 0.924,0 1.652,0.364 2.156,1.12 0.616,0.924 0.896,1.736 0.896,3.612 l -3.136,0.084 c -1.288,0 -2.016,-0.028 -3.528,-0.168 z"
             style="font-size:28px;font-family:'TeX Gyre Pagella';-inkscape-font-specification:'TeX Gyre Pagella, Normal';dominant-baseline:alphabetic;fill:#339900"
             id="path79494" />
          <path
             d="m 750.49984,182.084 c 1.148,-0.056 2.296,-0.084 3.444,-0.084 1.344,0 2.66,0.028 4.004,0.084 v -0.84 l -1.456,-0.084 c -1.26,-0.084 -1.316,-0.168 -1.316,-2.016 v -4.816 c 0,-1.68 1.12,-3.08 2.492,-3.08 0.84,0 1.428,0.392 1.876,1.288 h 0.588 l 0.252,-3.36 c -0.308,-0.196 -0.812,-0.308 -1.316,-0.308 -0.84,0 -1.736,0.448 -2.324,1.148 l -1.568,1.848 v -2.884 l -0.252,-0.112 c -1.428,0.588 -2.884,0.98 -4.368,1.148 v 0.784 h 1.036 c 1.12,0 1.232,0.196 1.232,2.044 v 6.3 c 0,1.764 -0.084,1.96 -1.036,2.016 l -1.288,0.084 z"
             style="font-size:28px;font-family:'TeX Gyre Pagella';-inkscape-font-specification:'TeX Gyre Pagella, Normal';dominant-baseline:alphabetic;fill:#339900"
             id="path79496" />
          <path
             d="m 761.5598,182.084 c 1.148,-0.056 2.296,-0.084 3.444,-0.084 1.344,0 2.66,0.028 4.004,0.084 v -0.84 l -1.456,-0.084 c -1.26,-0.084 -1.316,-0.168 -1.316,-2.016 v -4.816 c 0,-1.68 1.12,-3.08 2.492,-3.08 0.84,0 1.428,0.392 1.876,1.288 h 0.588 l 0.252,-3.36 c -0.308,-0.196 -0.812,-0.308 -1.316,-0.308 -0.84,0 -1.736,0.448 -2.324,1.148 l -1.568,1.848 v -2.884 l -0.252,-0.112 c -1.428,0.588 -2.884,0.98 -4.368,1.148 v 0.784 h 1.036 c 1.12,0 1.232,0.196 1.232,2.044 v 6.3 c 0,1.764 -0.084,1.96 -1.036,2.016 l -1.288,0.084 z"
             style="font-size:28px;font-family:'TeX Gyre Pagella';-inkscape-font-specification:'TeX Gyre Pagella, Normal';dominant-baseline:alphabetic;fill:#339900"
             id="path79498" />
          <path
             d="m 772.50772,178.892 c 0,2.184 1.316,3.444 3.528,3.444 0.504,0 0.98,-0.084 1.176,-0.224 l 3.472,-2.408 -0.14,2.38 c 0.728,-0.056 1.456,-0.084 2.184,-0.084 0.7,0 1.372,0.028 2.072,0.084 v -0.84 l -1.092,-0.056 c -0.672,-0.028 -0.784,-0.252 -0.784,-1.624 v -5.124 c 0,-4.088 -1.176,-5.572 -4.424,-5.572 -1.204,0 -2.324,0.308 -3.388,0.952 l -1.484,0.896 v 1.82 l 0.728,0.196 0.364,-0.868 c 0.56,-1.316 0.868,-1.512 2.156,-1.512 2.632,0 3.724,1.036 3.808,3.584 l -2.772,0.504 c -3.808,0.7 -5.404,2.016 -5.404,4.452 z m 2.408,-0.392 c 0,-1.036 0.56,-2.016 1.4,-2.548 0.7,-0.42 2.24,-0.812 4.368,-1.12 v 3.696 c -0.812,1.148 -2.576,2.212 -3.668,2.212 -1.12,0 -2.1,-1.036 -2.1,-2.24 z"
             style="font-size:28px;font-family:'TeX Gyre Pagella';-inkscape-font-specification:'TeX Gyre Pagella, Normal';dominant-baseline:alphabetic;fill:#339900"
             id="path79500" />
        </g>
      </g>
      <path
         fill="#000000"
         stroke="none"
         paint-order="stroke fill markers"
         d="m 139.68994,369.96582 c 0,34.24856 -27.76395,62.0125 -62.012504,62.0125 -34.248558,0 -62.0125,-27.76394 -62.0125,-62.0125 0,-34.24856 27.763942,-62.0125 62.0125,-62.0125 34.248554,0 62.012504,27.76394 62.012504,62.0125 z"
         fill-opacity="0.356863"
         id="path1100" />
      <path
         fill="none"
         stroke="#000000"
         paint-order="fill stroke markers"
         d="m 139.68994,369.96582 c 0,34.24856 -27.76395,62.0125 -62.012504,62.0125 -34.248558,0 -62.0125,-27.76394 -62.0125,-62.0125 0,-34.24856 27.763942,-62.0125 62.0125,-62.0125 34.248554,0 62.012504,27.76394 62.012504,62.0125 z"
         stroke-opacity="0.698039"
         stroke-linecap="round"
         stroke-linejoin="round"
         stroke-miterlimit="10"
         stroke-width="6.5"
         id="path1102" />
      <text
         fill="#000000"
         stroke="none"
         font-family="geogebra-sans-serif, sans-serif"
         font-size="28px"
         font-style="normal"
         font-weight="normal"
         text-decoration="normal"
         x="29.372347"
         y="293.86591"
         text-anchor="start"
         dominant-baseline="alphabetic"
         fill-opacity="1"
         id="text1108"
         style="font-style:normal;font-variant:normal;font-weight:normal;font-stretch:normal;font-size:28px;font-family:'TeX Gyre Pagella';-inkscape-font-specification:'TeX Gyre Pagella, Normal';font-variant-ligatures:normal;font-variant-caps:normal;font-variant-numeric:normal;font-variant-east-asian:normal">Luna</text>
      <path
         fill="none"
         stroke="#000000"
         paint-order="fill stroke markers"
         d="M 77.677436,369.96582 572.67012,136.59223"
         stroke-opacity="1"
         stroke-linecap="round"
         stroke-linejoin="round"
         stroke-miterlimit="10"
         stroke-width="6.5"
         id="path1110" />
      <path
         fill="#000000"
         stroke="none"
         paint-order="stroke fill markers"
         fill-rule="evenodd"
         d="m 607.94607,119.96072 -31.11807,25.4505 -8.31576,-17.63798 z"
         fill-opacity="1"
         id="path1112" />
      <text
         fill="#000000"
         stroke="none"
         font-family="geogebra-sans-serif, sans-serif"
         font-size="28px"
         font-style="normal"
         font-weight="normal"
         text-decoration="normal"
         x="465.1319"
         y="143.08124"
         text-anchor="start"
         dominant-baseline="alphabetic"
         fill-opacity="1"
         id="text1118">$d\mathbf{e}_d$</text>
      <path
         fill="none"
         stroke="#000000"
         paint-order="fill stroke markers"
         d="M 77.677436,369.96582 H 782.82744"
         stroke-opacity="1"
         stroke-linecap="round"
         stroke-linejoin="round"
         stroke-miterlimit="10"
         stroke-width="6.5"
         id="path1120" />
      <path
         fill="#000000"
         stroke="none"
         paint-order="stroke fill markers"
         fill-rule="evenodd"
         d="m 821.82744,369.96582 -39,9.75 v -19.5 z"
         fill-opacity="1"
         id="path1122" />
      <text
         fill="#000000"
         stroke="none"
         font-family="geogebra-sans-serif, sans-serif"
         font-size="28px"
         font-style="normal"
         font-weight="normal"
         text-decoration="normal"
         x="667.38696"
         y="344.16809"
         text-anchor="start"
         dominant-baseline="alphabetic"
         fill-opacity="1"
         id="text1128">$d_0\mathbf{e}_{d_0}$</text>
      <path
         fill="none"
         stroke="#000000"
         paint-order="fill stroke markers"
         d="M 821.82744,369.96582 633.299,149.59565"
         stroke-opacity="1"
         stroke-linecap="round"
         stroke-linejoin="round"
         stroke-miterlimit="10"
         stroke-width="6.5"
         id="path1136" />
      <path
         fill="#000000"
         stroke="none"
         paint-order="stroke fill markers"
         fill-rule="evenodd"
         d="m 607.94607,119.96072 32.76166,23.2967 -14.81747,12.67646 z"
         fill-opacity="1"
         id="path1138" />
      <text
         fill="#000000"
         stroke="none"
         font-family="geogebra-sans-serif, sans-serif"
         font-size="28px"
         font-style="normal"
         font-weight="normal"
         text-decoration="normal"
         x="656.83392"
         y="254.55545"
         text-anchor="start"
         dominant-baseline="alphabetic"
         fill-opacity="1"
         id="text1144">$\mathbf{r}$</text>
      <path
         fill="none"
         stroke="#0000ff"
         paint-order="fill stroke markers"
         d="M 460.23553,369.96582 H 364.72744"
         stroke-opacity="1"
         stroke-linecap="round"
         stroke-linejoin="round"
         stroke-miterlimit="10"
         stroke-width="6.5"
         id="path1146" />
      <path
         fill="#0000ff"
         stroke="none"
         paint-order="stroke fill markers"
         fill-rule="evenodd"
         d="m 325.72744,369.96582 39,-9.75 v 19.5 z"
         fill-opacity="1"
         id="path1148" />
      <text
         fill="#0000ff"
         stroke="none"
         font-family="geogebra-sans-serif, sans-serif"
         font-size="28px"
         font-style="normal"
         font-weight="normal"
         text-decoration="normal"
         x="340.49698"
         y="417.97797"
         text-anchor="start"
         dominant-baseline="alphabetic"
         fill-opacity="1"
         id="text1154">$\mathbf{F}_{\mbox{\small marea}}$</text>
      <text
         fill="#0000ff"
         stroke="none"
         font-family="geogebra-sans-serif, sans-serif"
         font-size="28px"
         font-style="normal"
         font-weight="normal"
         text-decoration="normal"
         x="834.1803"
         y="578.17523"
         text-anchor="start"
         dominant-baseline="alphabetic"
         fill-opacity="1"
         id="text1154-6">$\mathbf{F}_{\mbox{\small marea}}$</text>
      <text
         fill="#0000ff"
         stroke="none"
         font-family="geogebra-sans-serif, sans-serif"
         font-size="28px"
         font-style="normal"
         font-weight="normal"
         text-decoration="normal"
         x="1181.5286"
         y="410.73669"
         text-anchor="start"
         dominant-baseline="alphabetic"
         fill-opacity="1"
         id="text1154-7">$\mathbf{F}_{\mbox{\small marea}}$</text>
      <text
         fill="#0000ff"
         stroke="none"
         font-family="geogebra-sans-serif, sans-serif"
         font-size="28px"
         font-style="normal"
         font-weight="normal"
         text-decoration="normal"
         x="837.82074"
         y="191.54219"
         text-anchor="start"
         dominant-baseline="alphabetic"
         fill-opacity="1"
         id="text1154-3">$\mathbf{F}_{\mbox{\small marea}}$</text>
      <path
         fill="none"
         stroke="#0000ff"
         paint-order="fill stroke markers"
         d="M 821.82744,59.903318 V 144.92832"
         stroke-opacity="1"
         stroke-linecap="round"
         stroke-linejoin="round"
         stroke-miterlimit="10"
         stroke-width="6.5"
         id="path1156" />
      <path
         fill="#0000ff"
         stroke="none"
         paint-order="stroke fill markers"
         fill-rule="evenodd"
         d="m 821.82744,183.92832 -9.75,-39 h 19.5 z"
         fill-opacity="1"
         id="path1158" />
      <path
         fill="none"
         stroke="#0000ff"
         paint-order="fill stroke markers"
         d="m 821.82744,680.02832 v -85.025"
         stroke-opacity="1"
         stroke-linecap="round"
         stroke-linejoin="round"
         stroke-miterlimit="10"
         stroke-width="6.5"
         id="path1166" />
      <path
         fill="#0000ff"
         stroke="none"
         paint-order="stroke fill markers"
         fill-rule="evenodd"
         d="m 821.82744,556.00332 9.75,39 h -19.5 z"
         fill-opacity="1"
         id="path1168" />
      <path
         fill="none"
         stroke="#0000ff"
         paint-order="fill stroke markers"
         d="m 1183.4193,369.96582 h 95.5081"
         stroke-opacity="1"
         stroke-linecap="round"
         stroke-linejoin="round"
         stroke-miterlimit="10"
         stroke-width="6.5"
         id="path1176" />
      <path
         fill="#0000ff"
         stroke="none"
         paint-order="stroke fill markers"
         fill-rule="evenodd"
         d="m 1317.9274,369.96582 -39,9.75 v -19.5 z"
         fill-opacity="1"
         id="path1178" />
      <path
         fill="#ff0000"
         stroke="none"
         paint-order="stroke fill markers"
         d="m 830.82744,59.903318 c 0,4.970563 -4.02944,9 -9,9 -4.97057,0 -9,-4.029437 -9,-9 0,-4.970563 4.02943,-9 9,-9 4.97056,0 9,4.029437 9,9 z"
         fill-opacity="1"
         id="path1186" />
      <path
         fill="none"
         stroke="#000000"
         paint-order="fill stroke markers"
         d="m 830.82744,59.903318 c 0,4.970563 -4.02944,9 -9,9 -4.97057,0 -9,-4.029437 -9,-9 0,-4.970563 4.02943,-9 9,-9 4.97056,0 9,4.029437 9,9 z"
         stroke-opacity="1"
         stroke-linecap="round"
         stroke-linejoin="round"
         stroke-miterlimit="10"
         id="path1188"
         style="stroke-width:3;stroke-miterlimit:10;stroke-dasharray:none" />
      <g
         id="g2086"
         transform="matrix(1.3389174,0,0,1.3389174,-287.65566,-13.221857)"
         style="stroke-width:3;stroke-miterlimit:10;stroke-dasharray:none">
        <g
           aria-label="C"
           id="text1192"
           style="font-size:28px;font-family:'TeX Gyre Pagella Math';-inkscape-font-specification:'TeX Gyre Pagella Math, Normal';dominant-baseline:alphabetic;fill:none;stroke:#000000;stroke-width:1.49374;stroke-linejoin:bevel;stroke-miterlimit:10;stroke-dasharray:none">
          <path
             d="m 856.76,83.648 -0.252,-0.28 c -1.736,1.12 -3.668,1.68 -5.796,1.68 -5.46,0 -9.1,-3.64 -9.1,-9.156 0,-5.152 3.192,-8.568 8.008,-8.568 2.744,0 5.572,1.12 5.572,2.212 v 2.016 h 0.868 c 0.028,-1.4 0.14,-2.408 0.532,-4.256 -2.38,-0.784 -4.424,-1.148 -6.468,-1.148 -2.436,0 -4.76,0.588 -6.636,1.68 -3.192,1.876 -4.872,4.816 -4.872,8.596 0,6.048 4.424,10.136 11.004,10.136 2.324,0 4.424,-0.504 6.356,-1.512 z"
             style="font-size:28px;font-family:'TeX Gyre Pagella Math';-inkscape-font-specification:'TeX Gyre Pagella Math, Normal';dominant-baseline:alphabetic;fill:none;stroke:#000000;stroke-width:1.49374;stroke-linejoin:bevel;stroke-miterlimit:10;stroke-dasharray:none"
             id="path152621" />
        </g>
        <g
           aria-label="C"
           id="text1194"
           style="font-size:28px;font-family:geogebra-sans-serif, sans-serif;dominant-baseline:alphabetic;fill:#ff0000">
          <path
             d="m 856.76,83.648 -0.252,-0.28 c -1.736,1.12 -3.668,1.68 -5.796,1.68 -5.46,0 -9.1,-3.64 -9.1,-9.156 0,-5.152 3.192,-8.568 8.008,-8.568 2.744,0 5.572,1.12 5.572,2.212 v 2.016 h 0.868 c 0.028,-1.4 0.14,-2.408 0.532,-4.256 -2.38,-0.784 -4.424,-1.148 -6.468,-1.148 -2.436,0 -4.76,0.588 -6.636,1.68 -3.192,1.876 -4.872,4.816 -4.872,8.596 0,6.048 4.424,10.136 11.004,10.136 2.324,0 4.424,-0.504 6.356,-1.512 z"
             style="font-family:'TeX Gyre Pagella Math';-inkscape-font-specification:'TeX Gyre Pagella Math, Normal'"
             id="path152624" />
        </g>
      </g>
      <path
         fill="#ff0000"
         stroke="none"
         paint-order="stroke fill markers"
         d="m 830.82744,680.02832 c 0,4.97056 -4.02944,9 -9,9 -4.97057,0 -9,-4.02944 -9,-9 0,-4.97056 4.02943,-9 9,-9 4.97056,0 9,4.02944 9,9 z"
         fill-opacity="1"
         id="path1196" />
      <path
         fill="none"
         stroke="#000000"
         paint-order="fill stroke markers"
         d="m 830.82744,680.02832 c 0,4.97056 -4.02944,9 -9,9 -4.97057,0 -9,-4.02944 -9,-9 0,-4.97056 4.02943,-9 9,-9 4.97056,0 9,4.02944 9,9 z"
         stroke-opacity="1"
         stroke-linecap="round"
         stroke-linejoin="round"
         stroke-miterlimit="10"
         id="path1198"
         style="stroke-width:3;stroke-miterlimit:10;stroke-dasharray:none" />
      <g
         id="g3504"
         transform="matrix(1.1974373,0,0,1.1974373,-171.01635,-129.91104)"
         style="stroke-width:3;stroke-miterlimit:10;stroke-dasharray:none">
        <g
           aria-label="D"
           id="text1202"
           style="font-size:28px;font-family:'TeX Gyre Pagella Math';-inkscape-font-specification:'TeX Gyre Pagella Math, Normal';dominant-baseline:alphabetic;fill:none;stroke:#010101;stroke-width:1.67023;stroke-linejoin:bevel;stroke-miterlimit:10;stroke-dasharray:none">
          <path
             d="m 858.028,655.22 c 0,-5.208 -3.864,-8.596 -9.772,-8.596 -1.624,0 -3.248,0.084 -4.872,0.084 l -5.768,-0.084 v 0.84 l 1.12,0.084 c 1.288,0.084 1.428,0.336 1.428,2.52 v 13.272 c 0,0.812 -0.252,1.428 -0.7,1.652 l -0.868,0.448 v 0.644 L 842.488,666 c 1.344,0 2.716,0.084 4.06,0.084 3.584,0 6.272,-0.924 8.232,-2.856 2.016,-1.988 3.248,-5.012 3.248,-8.008 z m -2.996,0.728 c 0,3.136 -0.952,5.544 -2.8,7.056 -1.68,1.372 -3.36,1.848 -6.524,1.848 -1.288,0 -2.156,-0.056 -2.884,-0.224 v -16.66 c 0.728,-0.14 1.708,-0.224 3.108,-0.224 3.108,0 5.628,0.56 7.112,2.044 1.344,1.344 1.988,3.36 1.988,6.16 z"
             style="font-size:28px;font-family:'TeX Gyre Pagella Math';-inkscape-font-specification:'TeX Gyre Pagella Math, Normal';dominant-baseline:alphabetic;fill:none;stroke:#010101;stroke-width:1.67023;stroke-linejoin:bevel;stroke-miterlimit:10;stroke-dasharray:none"
             id="path152645" />
        </g>
        <g
           aria-label="D"
           id="text1204"
           style="font-size:28px;font-family:'TeX Gyre Pagella Math';-inkscape-font-specification:'TeX Gyre Pagella Math, Normal';dominant-baseline:alphabetic;fill:#ff0000">
          <path
             d="m 858.028,655.22 c 0,-5.208 -3.864,-8.596 -9.772,-8.596 -1.624,0 -3.248,0.084 -4.872,0.084 l -5.768,-0.084 v 0.84 l 1.12,0.084 c 1.288,0.084 1.428,0.336 1.428,2.52 v 13.272 c 0,0.812 -0.252,1.428 -0.7,1.652 l -0.868,0.448 v 0.644 L 842.488,666 c 1.344,0 2.716,0.084 4.06,0.084 3.584,0 6.272,-0.924 8.232,-2.856 2.016,-1.988 3.248,-5.012 3.248,-8.008 z m -2.996,0.728 c 0,3.136 -0.952,5.544 -2.8,7.056 -1.68,1.372 -3.36,1.848 -6.524,1.848 -1.288,0 -2.156,-0.056 -2.884,-0.224 v -16.66 c 0.728,-0.14 1.708,-0.224 3.108,-0.224 3.108,0 5.628,0.56 7.112,2.044 1.344,1.344 1.988,3.36 1.988,6.16 z"
             style="font-size:28px;font-family:'TeX Gyre Pagella Math';-inkscape-font-specification:'TeX Gyre Pagella Math, Normal';dominant-baseline:alphabetic;fill:#ff0000"
             id="path152648" />
        </g>
      </g>
      <path
         fill="#ffd700"
         stroke="none"
         paint-order="stroke fill markers"
         d="m 830.82744,369.96582 c 0,4.97056 -4.02944,9 -9,9 -4.97057,0 -9,-4.02944 -9,-9 0,-4.97056 4.02943,-9 9,-9 4.97056,0 9,4.02944 9,9 z"
         fill-opacity="1"
         id="path1206" />
      <path
         fill="none"
         stroke="#000000"
         paint-order="fill stroke markers"
         d="m 830.82744,369.96582 c 0,4.97056 -4.02944,9 -9,9 -4.97057,0 -9,-4.02944 -9,-9 0,-4.97056 4.02943,-9 9,-9 4.97056,0 9,4.02944 9,9 z"
         stroke-opacity="1"
         stroke-linecap="round"
         stroke-linejoin="round"
         stroke-miterlimit="10"
         id="path1208"
         style="stroke-width:3;stroke-miterlimit:10;stroke-dasharray:none" />
      <g
         id="g2226"
         transform="translate(-2.9104123,1.6249536)"
         style="stroke-width:3;stroke-miterlimit:10;stroke-dasharray:none">
        <g
           aria-label="C"
           id="text1212"
           style="font-size:28px;font-family:'TeX Gyre Pagella Math';-inkscape-font-specification:'TeX Gyre Pagella Math, Normal';dominant-baseline:alphabetic;fill:none;stroke:#000000;stroke-width:2;stroke-linejoin:bevel;stroke-miterlimit:10;stroke-dasharray:none">
          <path
             d="m 844.76,349.648 -0.252,-0.28 c -1.736,1.12 -3.668,1.68 -5.796,1.68 -5.46,0 -9.1,-3.64 -9.1,-9.156 0,-5.152 3.192,-8.568 8.008,-8.568 2.744,0 5.572,1.12 5.572,2.212 v 2.016 h 0.868 c 0.028,-1.4 0.14,-2.408 0.532,-4.256 -2.38,-0.784 -4.424,-1.148 -6.468,-1.148 -2.436,0 -4.76,0.588 -6.636,1.68 -3.192,1.876 -4.872,4.816 -4.872,8.596 0,6.048 4.424,10.136 11.004,10.136 2.324,0 4.424,-0.504 6.356,-1.512 z"
             style="font-size:28px;font-family:'TeX Gyre Pagella Math';-inkscape-font-specification:'TeX Gyre Pagella Math, Normal';dominant-baseline:alphabetic;fill:none;stroke:#000000;stroke-width:2;stroke-linejoin:bevel;stroke-miterlimit:10;stroke-dasharray:none"
             id="path152669" />
        </g>
        <g
           aria-label="C"
           id="text1214"
           style="font-size:28px;font-family:'TeX Gyre Pagella Math';-inkscape-font-specification:'TeX Gyre Pagella Math, Normal';dominant-baseline:alphabetic;fill:#ffd700">
          <path
             d="m 844.76,349.648 -0.252,-0.28 c -1.736,1.12 -3.668,1.68 -5.796,1.68 -5.46,0 -9.1,-3.64 -9.1,-9.156 0,-5.152 3.192,-8.568 8.008,-8.568 2.744,0 5.572,1.12 5.572,2.212 v 2.016 h 0.868 c 0.028,-1.4 0.14,-2.408 0.532,-4.256 -2.38,-0.784 -4.424,-1.148 -6.468,-1.148 -2.436,0 -4.76,0.588 -6.636,1.68 -3.192,1.876 -4.872,4.816 -4.872,8.596 0,6.048 4.424,10.136 11.004,10.136 2.324,0 4.424,-0.504 6.356,-1.512 z"
             style="font-size:28px;font-family:'TeX Gyre Pagella Math';-inkscape-font-specification:'TeX Gyre Pagella Math, Normal';dominant-baseline:alphabetic;fill:#ffd700"
             id="path152672" />
        </g>
        <g
           aria-label="T"
           id="text1218"
           style="font-size:25px;font-family:'TeX Gyre Pagella Math';-inkscape-font-specification:'TeX Gyre Pagella Math, Normal';dominant-baseline:alphabetic;fill:none;stroke:#000000;stroke-width:2;stroke-linejoin:bevel;stroke-miterlimit:10;stroke-dasharray:none">
          <path
             d="m 860.875,346.7 -5.4,0.075 h -3.95 L 846.45,346.7 c 0.125,1.425 0.175,2.4 0.175,4.025 h 0.775 l 0.1,-1.975 c 0.025,-0.6 0.3,-0.825 1,-0.825 h 3.875 c 0.075,0.85 0.1,1.425 0.1,2.5 V 361 c 0,1.975 -0.125,2.175 -1.275,2.25 l -1.2,0.075 v 0.75 l 3.65,-0.075 3.675,0.075 v -0.75 l -1.2,-0.075 c -1.15,-0.075 -1.275,-0.275 -1.275,-2.25 v -10.575 c 0,-1.125 0.025,-1.675 0.1,-2.5 h 3.875 c 0.7,0 0.975,0.225 1,0.825 l 0.1,1.975 h 0.775 c 0,-1.625 0.05,-2.6 0.175,-4.025 z"
             style="font-size:25px;font-family:'TeX Gyre Pagella Math';-inkscape-font-specification:'TeX Gyre Pagella Math, Normal';dominant-baseline:alphabetic;fill:none;stroke:#000000;stroke-width:2;stroke-linejoin:bevel;stroke-miterlimit:10;stroke-dasharray:none"
             id="path152675" />
        </g>
        <g
           aria-label="T"
           id="text1220"
           style="font-size:25px;font-family:'TeX Gyre Pagella Math';-inkscape-font-specification:'TeX Gyre Pagella Math, Normal';dominant-baseline:alphabetic;fill:#ffd700">
          <path
             d="m 860.875,346.7 -5.4,0.075 h -3.95 L 846.45,346.7 c 0.125,1.425 0.175,2.4 0.175,4.025 h 0.775 l 0.1,-1.975 c 0.025,-0.6 0.3,-0.825 1,-0.825 h 3.875 c 0.075,0.85 0.1,1.425 0.1,2.5 V 361 c 0,1.975 -0.125,2.175 -1.275,2.25 l -1.2,0.075 v 0.75 l 3.65,-0.075 3.675,0.075 v -0.75 l -1.2,-0.075 c -1.15,-0.075 -1.275,-0.275 -1.275,-2.25 v -10.575 c 0,-1.125 0.025,-1.675 0.1,-2.5 h 3.875 c 0.7,0 0.975,0.225 1,0.825 l 0.1,1.975 h 0.775 c 0,-1.625 0.05,-2.6 0.175,-4.025 z"
             style="font-size:25px;font-family:'TeX Gyre Pagella Math';-inkscape-font-specification:'TeX Gyre Pagella Math, Normal';dominant-baseline:alphabetic;fill:#ffd700"
             id="path152678" />
        </g>
      </g>
      <path
         fill="#ff0000"
         stroke="none"
         paint-order="stroke fill markers"
         d="m 469.23553,369.96582 c 0,4.97056 -4.02944,9 -9,9 -4.97056,0 -9,-4.02944 -9,-9 0,-4.97056 4.02944,-9 9,-9 4.97056,0 9,4.02944 9,9 z"
         fill-opacity="1"
         id="path1222" />
      <path
         fill="none"
         stroke="#000000"
         paint-order="fill stroke markers"
         d="m 469.23553,369.96582 c 0,4.97056 -4.02944,9 -9,9 -4.97056,0 -9,-4.02944 -9,-9 0,-4.97056 4.02944,-9 9,-9 4.97056,0 9,4.02944 9,9 z"
         stroke-opacity="1"
         stroke-linecap="round"
         stroke-linejoin="round"
         stroke-miterlimit="10"
         id="path1224"
         style="stroke-width:3;stroke-miterlimit:10;stroke-dasharray:none" />
      <g
         id="g3366"
         transform="matrix(1.286998,0,0,1.286998,-140.27707,-101.84161)"
         style="stroke-width:3;stroke-miterlimit:10;stroke-dasharray:none">
        <g
           aria-label="A"
           id="text1228"
           style="font-size:28px;font-family:'TeX Gyre Pagella Math';-inkscape-font-specification:'TeX Gyre Pagella Math, Normal';dominant-baseline:alphabetic;fill:none;stroke:#020202;stroke-width:1.554;stroke-linejoin:bevel;stroke-miterlimit:10;stroke-dasharray:none">
          <path
             d="m 498.168,355.084 v -0.84 l -0.952,-0.084 c -0.728,-0.056 -1.036,-0.588 -2.016,-2.856 L 488.424,335.4 h -0.896 c 0,0 -0.308,0.952 -1.372,3.332 l -6.188,14.056 c -0.364,0.812 -0.896,1.316 -1.512,1.372 l -1.036,0.084 v 0.84 c 1.008,-0.056 2.044,-0.084 3.052,-0.084 l 3.388,0.084 v -0.84 l -1.036,-0.084 c -0.98,-0.084 -1.344,-0.28 -1.344,-0.728 0,-0.364 0.392,-1.568 0.98,-2.968 l 0.784,-1.876 h 8.064 l 1.288,3.22 c 0.476,1.176 0.588,1.54 0.588,1.792 0,0.308 -0.448,0.504 -1.148,0.56 l -1.316,0.084 v 0.84 L 494.612,355 Z m -7.364,-7.616 h -7.084 l 3.556,-8.344 z"
             style="font-size:28px;font-family:'TeX Gyre Pagella Math';-inkscape-font-specification:'TeX Gyre Pagella Math, Normal';dominant-baseline:alphabetic;fill:none;stroke:#020202;stroke-width:1.554;stroke-linejoin:bevel;stroke-miterlimit:10;stroke-dasharray:none"
             id="path152717" />
        </g>
        <g
           aria-label="A"
           id="text1230"
           style="font-size:28px;font-family:'TeX Gyre Pagella Math';-inkscape-font-specification:'TeX Gyre Pagella Math, Normal';dominant-baseline:alphabetic;fill:#ff0000">
          <path
             d="m 498.168,355.084 v -0.84 l -0.952,-0.084 c -0.728,-0.056 -1.036,-0.588 -2.016,-2.856 L 488.424,335.4 h -0.896 c 0,0 -0.308,0.952 -1.372,3.332 l -6.188,14.056 c -0.364,0.812 -0.896,1.316 -1.512,1.372 l -1.036,0.084 v 0.84 c 1.008,-0.056 2.044,-0.084 3.052,-0.084 l 3.388,0.084 v -0.84 l -1.036,-0.084 c -0.98,-0.084 -1.344,-0.28 -1.344,-0.728 0,-0.364 0.392,-1.568 0.98,-2.968 l 0.784,-1.876 h 8.064 l 1.288,3.22 c 0.476,1.176 0.588,1.54 0.588,1.792 0,0.308 -0.448,0.504 -1.148,0.56 l -1.316,0.084 v 0.84 L 494.612,355 Z m -7.364,-7.616 h -7.084 l 3.556,-8.344 z"
             style="font-size:28px;font-family:'TeX Gyre Pagella Math';-inkscape-font-specification:'TeX Gyre Pagella Math, Normal';dominant-baseline:alphabetic;fill:#ff0000"
             id="path152720" />
        </g>
      </g>
      <path
         fill="#ff0000"
         stroke="none"
         paint-order="stroke fill markers"
         d="m 1192.4193,369.96582 c 0,4.97056 -4.0294,9 -9,9 -4.9705,0 -9,-4.02944 -9,-9 0,-4.97056 4.0295,-9 9,-9 4.9706,0 9,4.02944 9,9 z"
         fill-opacity="1"
         id="path1232" />
      <path
         fill="none"
         stroke="#000000"
         paint-order="fill stroke markers"
         d="m 1192.4193,369.96582 c 0,4.97056 -4.0294,9 -9,9 -4.9705,0 -9,-4.02944 -9,-9 0,-4.97056 4.0295,-9 9,-9 4.9706,0 9,4.02944 9,9 z"
         stroke-opacity="1"
         stroke-linecap="round"
         stroke-linejoin="round"
         stroke-miterlimit="10"
         id="path1234"
         style="stroke-width:3;stroke-miterlimit:10;stroke-dasharray:none" />
      <g
         id="g3642"
         transform="matrix(1.2903887,0,0,1.2903887,-351.98991,-101.71045)"
         style="stroke-width:3;stroke-miterlimit:10;stroke-dasharray:none">
        <g
           aria-label="B"
           id="text1238"
           style="font-size:28px;font-family:'TeX Gyre Pagella Math';-inkscape-font-specification:'TeX Gyre Pagella Math, Normal';dominant-baseline:alphabetic;fill:none;stroke:#000000;stroke-width:1.54992;stroke-linejoin:bevel;stroke-miterlimit:10;stroke-dasharray:none">
          <path
             d="m 1211.128,347.616 c 0,-1.428 -0.56,-2.576 -1.624,-3.332 -1.064,-0.784 -2.016,-1.036 -4.172,-1.204 1.372,-0.28 2.016,-0.532 2.8,-1.064 1.344,-0.924 2.044,-2.128 2.044,-3.584 0,-2.464 -1.624,-3.808 -5.012,-3.808 -1.68,0 -3.332,0.084 -5.012,0.084 l -4.424,-0.084 v 0.84 l 1.008,0.084 c 1.316,0.112 1.428,0.308 1.428,2.52 v 13.272 c 0,1.036 -0.224,1.68 -0.616,1.82 l -0.728,0.28 v 0.644 c 1.008,-0.056 2.044,-0.084 3.052,-0.084 1.148,0 2.324,0.084 3.472,0.084 2.072,0 3.892,-0.504 5.152,-1.428 1.652,-1.176 2.632,-3.08 2.632,-5.04 z m -2.884,0.56 c 0,2.968 -1.932,4.732 -5.264,4.732 -0.812,0 -1.456,-0.056 -2.156,-0.224 v -8.82 c 1.092,-0.056 1.344,-0.056 1.876,-0.056 3.78,0 5.544,1.372 5.544,4.368 z m -0.84,-9.1 c 0,2.436 -1.68,3.752 -4.872,3.752 -0.476,0 -0.84,0 -1.708,-0.056 v -6.804 c 0.728,-0.168 1.372,-0.224 2.268,-0.224 2.996,0 4.312,1.008 4.312,3.332 z"
             style="font-size:28px;font-family:'TeX Gyre Pagella Math';-inkscape-font-specification:'TeX Gyre Pagella Math, Normal';dominant-baseline:alphabetic;fill:none;stroke:#000000;stroke-width:1.54992;stroke-linejoin:bevel;stroke-miterlimit:10;stroke-dasharray:none"
             id="path152597" />
        </g>
        <g
           aria-label="B"
           id="text1240"
           style="font-size:28px;font-family:'TeX Gyre Pagella Math';-inkscape-font-specification:'TeX Gyre Pagella Math, Normal';dominant-baseline:alphabetic;fill:#ff0000">
          <path
             d="m 1211.128,347.616 c 0,-1.428 -0.56,-2.576 -1.624,-3.332 -1.064,-0.784 -2.016,-1.036 -4.172,-1.204 1.372,-0.28 2.016,-0.532 2.8,-1.064 1.344,-0.924 2.044,-2.128 2.044,-3.584 0,-2.464 -1.624,-3.808 -5.012,-3.808 -1.68,0 -3.332,0.084 -5.012,0.084 l -4.424,-0.084 v 0.84 l 1.008,0.084 c 1.316,0.112 1.428,0.308 1.428,2.52 v 13.272 c 0,1.036 -0.224,1.68 -0.616,1.82 l -0.728,0.28 v 0.644 c 1.008,-0.056 2.044,-0.084 3.052,-0.084 1.148,0 2.324,0.084 3.472,0.084 2.072,0 3.892,-0.504 5.152,-1.428 1.652,-1.176 2.632,-3.08 2.632,-5.04 z m -2.884,0.56 c 0,2.968 -1.932,4.732 -5.264,4.732 -0.812,0 -1.456,-0.056 -2.156,-0.224 v -8.82 c 1.092,-0.056 1.344,-0.056 1.876,-0.056 3.78,0 5.544,1.372 5.544,4.368 z m -0.84,-9.1 c 0,2.436 -1.68,3.752 -4.872,3.752 -0.476,0 -0.84,0 -1.708,-0.056 v -6.804 c 0.728,-0.168 1.372,-0.224 2.268,-0.224 2.996,0 4.312,1.008 4.312,3.332 z"
             style="font-size:28px;font-family:'TeX Gyre Pagella Math';-inkscape-font-specification:'TeX Gyre Pagella Math, Normal';dominant-baseline:alphabetic;fill:#ff0000"
             id="path152600" />
        </g>
      </g>
      <path
         fill="#800000"
         stroke="none"
         paint-order="stroke fill markers"
         d="m 616.94607,119.96072 c 0,4.97056 -4.02943,9 -9,9 -4.97056,0 -9,-4.02944 -9,-9 0,-4.97056 4.02944,-9 9,-9 4.97057,0 9,4.02944 9,9 z"
         fill-opacity="1"
         id="path1242" />
      <path
         fill="none"
         stroke="#000000"
         paint-order="fill stroke markers"
         d="m 616.94607,119.96072 c 0,4.97056 -4.02943,9 -9,9 -4.97056,0 -9,-4.02944 -9,-9 0,-4.97056 4.02944,-9 9,-9 4.97057,0 9,4.02944 9,9 z"
         stroke-opacity="1"
         stroke-linecap="round"
         stroke-linejoin="round"
         stroke-miterlimit="10"
         id="path1244"
         style="stroke-width:3;stroke-miterlimit:10;stroke-dasharray:none" />
      <g
         id="g1846"
         transform="translate(-23.223239,-3.6127663)">
        <text
           fill="none"
           stroke="#ffffff"
           font-family="geogebra-sans-serif, sans-serif"
           font-size="28px"
           font-style="normal"
           font-weight="normal"
           text-decoration="normal"
           x="612"
           y="102"
           text-anchor="start"
           dominant-baseline="alphabetic"
           stroke-opacity="1"
           stroke-linejoin="bevel"
           stroke-miterlimit="10"
           stroke-width="3"
           id="text1248"
           style="font-style:normal;font-variant:normal;font-weight:normal;font-stretch:normal;font-size:28px;font-family:'TeX Gyre Pagella Math';-inkscape-font-specification:'TeX Gyre Pagella Math, Normal';font-variant-ligatures:normal;font-variant-caps:normal;font-variant-numeric:normal;font-variant-east-asian:normal;dominant-baseline:alphabetic;text-anchor:start;fill:none;stroke:#000000;stroke-width:2;stroke-linejoin:bevel;stroke-miterlimit:10;stroke-dasharray:none;stroke-opacity:1">m</text>
        <text
           fill="#800000"
           stroke="none"
           font-family="geogebra-sans-serif, sans-serif"
           font-size="28px"
           font-style="normal"
           font-weight="normal"
           text-decoration="normal"
           x="612"
           y="102"
           text-anchor="start"
           dominant-baseline="alphabetic"
           fill-opacity="1"
           id="text1250"
           style="font-style:normal;font-variant:normal;font-weight:normal;font-stretch:normal;font-size:28px;font-family:'TeX Gyre Pagella Math';-inkscape-font-specification:'TeX Gyre Pagella Math, Normal';font-variant-ligatures:normal;font-variant-caps:normal;font-variant-numeric:normal;font-variant-east-asian:normal;dominant-baseline:alphabetic;text-anchor:start;fill:#800000;fill-opacity:1;stroke:none">m</text>
      </g>
      <path
         fill="#ffd700"
         stroke="none"
         paint-order="stroke fill markers"
         d="m 86.677436,369.96582 c 0,4.97056 -4.029437,9 -9,9 -4.970562,0 -9,-4.02944 -9,-9 0,-4.97056 4.029438,-9 9,-9 4.970563,0 9,4.02944 9,9 z"
         fill-opacity="1"
         id="path1252" />
      <path
         fill="none"
         stroke="#000000"
         paint-order="fill stroke markers"
         d="m 86.677436,369.96582 c 0,4.97056 -4.029437,9 -9,9 -4.970562,0 -9,-4.02944 -9,-9 0,-4.97056 4.029438,-9 9,-9 4.970563,0 9,4.02944 9,9 z"
         stroke-opacity="1"
         stroke-linecap="round"
         stroke-linejoin="round"
         stroke-miterlimit="10"
         id="path1254"
         style="stroke-width:3;stroke-miterlimit:10;stroke-dasharray:none" />
      <g
         id="g3924"
         transform="translate(-7.2210176,-10.500482)"
         style="stroke-width:3;stroke-miterlimit:10;stroke-dasharray:none">
        <g
           aria-label="C"
           id="text1258"
           style="font-size:28px;font-family:'TeX Gyre Pagella Math';-inkscape-font-specification:'TeX Gyre Pagella Math, Normal';dominant-baseline:alphabetic;fill:none;stroke:#000000;stroke-linejoin:bevel;stroke-width:2;stroke-miterlimit:10;stroke-dasharray:none">
          <path
             d="m 68.76,399.648 -0.252,-0.28 c -1.736,1.12 -3.668,1.68 -5.796,1.68 -5.46,0 -9.1,-3.64 -9.1,-9.156 0,-5.152 3.192,-8.568 8.008,-8.568 2.744,0 5.572,1.12 5.572,2.212 v 2.016 h 0.868 c 0.028,-1.4 0.14,-2.408 0.532,-4.256 -2.38,-0.784 -4.424,-1.148 -6.468,-1.148 -2.436,0 -4.76,0.588 -6.636,1.68 -3.192,1.876 -4.872,4.816 -4.872,8.596 0,6.048 4.424,10.136 11.004,10.136 2.324,0 4.424,-0.504 6.356,-1.512 z"
             style="font-size:28px;font-family:'TeX Gyre Pagella Math';-inkscape-font-specification:'TeX Gyre Pagella Math, Normal';dominant-baseline:alphabetic;fill:none;stroke:#000000;stroke-linejoin:bevel;stroke-width:2;stroke-miterlimit:10;stroke-dasharray:none"
             id="path152741" />
        </g>
        <g
           aria-label="C"
           id="text1260"
           style="font-size:28px;font-family:'TeX Gyre Pagella Math';-inkscape-font-specification:'TeX Gyre Pagella Math, Normal';dominant-baseline:alphabetic;fill:#ffd700">
          <path
             d="m 68.76,399.648 -0.252,-0.28 c -1.736,1.12 -3.668,1.68 -5.796,1.68 -5.46,0 -9.1,-3.64 -9.1,-9.156 0,-5.152 3.192,-8.568 8.008,-8.568 2.744,0 5.572,1.12 5.572,2.212 v 2.016 h 0.868 c 0.028,-1.4 0.14,-2.408 0.532,-4.256 -2.38,-0.784 -4.424,-1.148 -6.468,-1.148 -2.436,0 -4.76,0.588 -6.636,1.68 -3.192,1.876 -4.872,4.816 -4.872,8.596 0,6.048 4.424,10.136 11.004,10.136 2.324,0 4.424,-0.504 6.356,-1.512 z"
             style="font-size:28px;font-family:'TeX Gyre Pagella Math';-inkscape-font-specification:'TeX Gyre Pagella Math, Normal';dominant-baseline:alphabetic;fill:#ffd700"
             id="path152744" />
        </g>
        <g
           aria-label="L"
           id="text1264"
           style="font-size:25px;font-family:'TeX Gyre Pagella Math';-inkscape-font-specification:'TeX Gyre Pagella Math, Normal';dominant-baseline:alphabetic;fill:none;stroke:#000000;stroke-linejoin:bevel;stroke-width:2;stroke-miterlimit:10;stroke-dasharray:none">
          <path
             d="m 84.65,409.7 h -0.8 l -0.3,1.25 c -0.225,0.975 -0.4,1.5 -0.55,1.625 -0.325,0.275 -2.5,0.45 -5.475,0.45 -0.9,0 -1.475,-0.05 -2.125,-0.2 v -13.05 c 0,-1.975 0.125,-2.175 1.275,-2.25 l 1.2,-0.075 V 396.7 L 74.2,396.775 70.55,396.7 v 0.75 l 1.2,0.075 c 1.15,0.075 1.275,0.275 1.275,2.25 v 11.85 c 0,0.725 -0.225,1.275 -0.625,1.475 l -0.775,0.4 v 0.575 C 72.45,414.025 73.275,414 74.1,414 l 5.825,0.075 c 1.05,0 0.8,0 4.2,-0.075 0.175,-1.075 0.275,-1.875 0.525,-4.3 z"
             style="font-size:25px;font-family:'TeX Gyre Pagella Math';-inkscape-font-specification:'TeX Gyre Pagella Math, Normal';dominant-baseline:alphabetic;fill:none;stroke:#000000;stroke-linejoin:bevel;stroke-width:2;stroke-miterlimit:10;stroke-dasharray:none"
             id="path152747" />
        </g>
        <g
           aria-label="L"
           id="text1266"
           style="font-size:25px;font-family:'TeX Gyre Pagella Math';-inkscape-font-specification:'TeX Gyre Pagella Math, Normal';dominant-baseline:alphabetic;fill:#ffd700">
          <path
             d="m 84.65,409.7 h -0.8 l -0.3,1.25 c -0.225,0.975 -0.4,1.5 -0.55,1.625 -0.325,0.275 -2.5,0.45 -5.475,0.45 -0.9,0 -1.475,-0.05 -2.125,-0.2 v -13.05 c 0,-1.975 0.125,-2.175 1.275,-2.25 l 1.2,-0.075 V 396.7 L 74.2,396.775 70.55,396.7 v 0.75 l 1.2,0.075 c 1.15,0.075 1.275,0.275 1.275,2.25 v 11.85 c 0,0.725 -0.225,1.275 -0.625,1.475 l -0.775,0.4 v 0.575 C 72.45,414.025 73.275,414 74.1,414 l 5.825,0.075 c 1.05,0 0.8,0 4.2,-0.075 0.175,-1.075 0.275,-1.875 0.525,-4.3 z"
             style="font-size:25px;font-family:'TeX Gyre Pagella Math';-inkscape-font-specification:'TeX Gyre Pagella Math, Normal';dominant-baseline:alphabetic;fill:#ffd700"
             id="path152750" />
        </g>
      </g>
    </g>
  </g>
</svg>
