<?xml version="1.0" encoding="UTF-8" standalone="no"?>
<!-- Created with Inkscape (http://www.inkscape.org/) -->

<svg
   width="160.4901mm"
   height="371.47501mm"
   viewBox="0 0 160.4901 371.47501"
   version="1.1"
   id="svg5"
   inkscape:version="1.1.1 (3bf5ae0d25, 2021-09-20, custom)"
   sodipodi:docname="peonza.svg"
   xmlns:inkscape="http://www.inkscape.org/namespaces/inkscape"
   xmlns:sodipodi="http://sodipodi.sourceforge.net/DTD/sodipodi-0.dtd"
   xmlns="http://www.w3.org/2000/svg"
   xmlns:svg="http://www.w3.org/2000/svg">
  <sodipodi:namedview
     id="namedview7"
     pagecolor="#ffffff"
     bordercolor="#666666"
     borderopacity="1.0"
     inkscape:pageshadow="2"
     inkscape:pageopacity="0.0"
     inkscape:pagecheckerboard="0"
     inkscape:document-units="mm"
     showgrid="false"
     inkscape:zoom="0.45795779"
     inkscape:cx="320.99028"
     inkscape:cy="553.54447"
     inkscape:window-width="1920"
     inkscape:window-height="1050"
     inkscape:window-x="0"
     inkscape:window-y="30"
     inkscape:window-maximized="1"
     inkscape:current-layer="layer1" />
  <defs
     id="defs2">
    <rect
       x="193.23153"
       y="14.392497"
       width="47.906019"
       height="59.838226"
       id="rect6258" />
  </defs>
  <g
     inkscape:label="Capa 1"
     inkscape:groupmode="layer"
     id="layer1"
     transform="translate(89.96645,74.070674)">
    <path
       style="fill:#000000;stroke-width:0.264583"
       d="m -8.4200196,296.71822 c -0.0947,-0.37735 -0.11125,-5.61956 -0.0368,-11.64931 0.12637,-10.22816 0.10457,-10.97976 -0.32502,-11.20966 -0.25326,-0.13554 -2.2709804,-0.37433 -4.4838304,-0.53062 -4.91966,-0.3475 -11.60675,-1.46352 -14.30686,-2.38773 -0.3638,-0.12452 -1.07814,-0.30935 -1.58741,-0.41077 -0.50927,-0.10139 -1.40224,-0.39542 -1.98438,-0.65336 -0.58213,-0.25797 -1.89186,-0.78812 -2.9105,-1.17811 -4.70171,-1.80012 -8.49537,-3.59437 -10.55411,-4.99168 -0.56601,-0.38415 -1.15365,-0.69848 -1.30587,-0.69848 -0.15221,0 -0.52255,-0.22312 -0.82297,-0.4958 -0.30042,-0.27271 -1.10373,-0.80163 -1.78513,-1.17541 -3.85329,-2.11373 -14.71602,-12.17777 -18.15441,-16.81962 -0.82066,-1.10791 -1.83502,-2.41884 -2.25413,-2.91319 -0.4191,-0.49435 -0.99691,-1.44685 -1.284,-2.11667 -0.2871,-0.66982 -0.67986,-1.39644 -0.87281,-1.61472 -0.80658,-0.91253 -4.06759,-7.25798 -5.4389,-10.58334 -1.53259,-3.71647 -1.65799,-4.08445 -2.6598,-7.80521 -0.48157,-1.78858 -1.31488,-5.70312 -1.68969,-7.9375 -0.2197,-1.30968 -0.52775,-3.09906 -0.68455,-3.97637 -0.49378,-2.76275 -0.35681,-16.0724 0.18099,-17.58717 0.0775,-0.21828 0.19675,-0.93266 0.265,-1.5875 0.0683,-0.65484 0.31071,-2.14312 0.53878,-3.30729 0.22807,-1.16417 0.473,-2.47386 0.54428,-2.91042 0.24093,-1.47565 1.70016,-6.5404 2.31574,-8.03759 0.33636,-0.81807 0.87633,-2.14225 1.19995,-2.94262 0.99728,-2.46646 4.03394,-8.54242 4.81334,-9.63084 0.4064,-0.56754 0.74156,-1.16285 0.74479,-1.32292 0.003,-0.16007 0.2486,-0.58869 0.54525,-0.95249 0.29665,-0.3638 1.06247,-1.45786 1.70183,-2.43125 0.63935,-0.97339 1.76321,-2.43316 2.49746,-3.24395 0.73425,-0.81078 1.335,-1.5748 1.335,-1.69781 0,-0.43718 5.19598,-5.84214 7.45215,-7.75189 2.83824,-2.40244 6.7463,-5.40651 7.6291,-5.86439 0.3638,-0.18869 1.23612,-0.78204 1.93849,-1.31855 0.70237,-0.53652 1.42338,-0.97549 1.60225,-0.97549 0.17886,0 0.73529,-0.30628 1.2365,-0.68062 0.50121,-0.37435 1.32802,-0.88757 1.83734,-1.1405 0.50932,-0.25293 1.16417,-0.59686 1.45521,-0.76428 0.83707,-0.48154 3.46618,-1.64733 3.7297,-1.65382 0.13148,-0.003 0.53671,-0.23871 0.90051,-0.52328 0.3638,-0.28457 0.92232,-0.52005 1.24115,-0.52328 0.31884,-0.003 0.65329,-0.12495 0.74322,-0.27047 0.0899,-0.14552 0.40602,-0.26459 0.7024,-0.26459 0.29638,0 0.8549,-0.16639 1.24116,-0.36976 0.38625,-0.20336 1.23806,-0.5104 1.8929,-0.6823 0.65484,-0.1719 1.96453,-0.5365 2.91042,-0.81022 2.11175,-0.61111 4.56466,-1.17356 4.81947,-1.1051 0.10409,0.028 0.47974,-0.0596 0.83477,-0.19458 0.35504,-0.13498 1.20178,-0.31084 1.88166,-0.3908 0.67987,-0.08 1.33579,-0.20697 1.4576,-0.28225 0.1218,-0.0753 1.03536,-0.19912 2.03013,-0.27521 4.86559,-0.37214 7.9152704,-0.71365 8.1171004,-0.90895 0.22607,-0.21878 0.25593,-16.32981 0.0309,-16.69385 -0.0672,-0.10874 -0.3602,-0.13547 -0.6511,-0.0594 -0.6516804,0.17042 -0.6928104,-0.39163 -0.15105,-2.06416 0.80476,-2.48451 1.1735,-3.2832 1.51578,-3.2832 0.19988,0 0.4558,0.463 0.58501,1.05833 0.12632,0.58209 0.4429,1.73395 0.7035,2.5597 0.5107,1.61821 0.46963,1.80593 -0.39513,1.80593 h -0.56438 l 0.0688,8.3427 c 0.0379,4.58848 0.13005,8.44174 0.20487,8.56279 0.0748,0.12106 1.00226,0.25052 2.06099,0.2877 1.05872,0.0372 2.34168,0.10074 2.851,0.14126 0.50932,0.0405 1.87854,0.14941 3.04271003,0.24197 1.16415997,0.0926 2.53337997,0.27318 3.04270997,0.40138 0.50932,0.12821 1.87854,0.37271 3.0427,0.54334 2.33958,0.34289 6.7018396,1.42752 7.9374996,1.97356 0.43657,0.19292 1.15094,0.47401 1.5875,0.62465 2.32639,0.80271 6.50678,2.5187 6.63284,2.72268 0.0799,0.12928 0.38735,0.23505 0.68323,0.23505 0.29589,0 0.8407,0.23812 1.2107,0.52916 0.36999,0.29104 0.82083,0.52917 1.00186,0.52917 0.18103,0 1.02817,0.41008 1.88255,0.91129 0.85437,0.50122 2.12964,1.24536 2.83392,1.65365 0.70428,0.40829 1.96458,1.23368 2.80067,1.83419 0.83609,0.60051 1.80767,1.24552 2.15907,1.43335 0.3514,0.18783 1.53733,1.12526 2.6354,2.08316 1.09807,0.95791 2.58217,2.2179 3.298,2.79998 2.48702,2.02234 4.69313,4.24693 6.55963,6.61459 1.03247,1.30968 2.37643,2.92793 2.98659,3.5961 1.0438,1.14305 4.60617,6.37576 4.60617,6.76593 0,0.0988 0.1702,0.3677 0.37822,0.59756 0.8127,0.89802 4.21581,7.6832 5.25206,10.47166 1.1794,3.17363 2.78191,8.59936 3.4775,11.77396 1.21427,5.5418 1.52467,8.67095 1.52227,15.34583 -0.002,6.41596 -0.34181,10.20046 -1.37667,15.34583 -0.7982,3.96873 -3.72574,12.73824 -5.34374,16.0073 -1.54954,3.13073 -3.5043,6.68213 -4.14448,7.52964 -0.38016,0.50329 -0.92933,1.29728 -1.22037,1.76446 -1.30671,2.0974 -2.71807,4.0568 -3.97795,5.52256 -0.75048,0.87313 -1.92233,2.27497 -2.60411,3.11521 -1.66805,2.05576 -5.51789,5.90508 -7.30856,7.30761 -0.80037,0.62685 -1.89047,1.53892 -2.42245,2.02678 -0.53199,0.48787 -1.78215,1.3847 -2.77813,1.99298 -0.99598,0.60825 -2.13766,1.37951 -2.53706,1.71391 -0.3994,0.33439 -0.99471,0.69287 -1.32291,0.79664 -0.32821,0.10374 -0.95393,0.45013 -1.3905,0.76972 -0.43656,0.31962 -1.32953,0.8458 -1.98437,1.16928 -0.65484,0.32348 -1.84547,0.94991 -2.64583,1.392 -1.81384,1.00195 -8.1462,3.66067 -8.71875,3.66067 -0.23316,0 -0.65878,0.16219 -0.94582,0.36041 -0.28704,0.19825 -1.11721,0.44564 -1.84481,0.54981 -0.7276,0.10414 -1.58662,0.35867 -1.90892,0.5656 -0.3223,0.20695 -1.01474,0.37626 -1.5387496,0.37626 -0.52401,0 -1.15328,0.10597 -1.39837,0.23551 -0.73692,0.38944 -8.44986997,1.56244 -11.42583,1.73767 -1.52797,0.09 -3.10555,0.22805 -3.50573,0.30684 l -0.72761,0.14327 v 11.75295 c 0,10.20345 -0.0517,11.75293 -0.39183,11.75293 -0.21551,0 -0.46933,-0.30874 -0.56404,-0.68612 z m 6.98192,-24.83263 c 1.56549003,-0.11292 6.59171,-0.89442 7.20312,-1.11993 0.21828,-0.0805 0.91994,-0.19687 1.55925,-0.25857 0.6393,-0.0617 1.37561,-0.22633 1.63625,-0.36582 0.26063,-0.13949 0.75555,-0.2536 1.0998096,-0.2536 0.34427,0 0.73905,-0.10583 0.87729,-0.23521 0.13825,-0.12936 0.9062,-0.35727 1.70657,-0.5065 2.08356,-0.3884 4.77189,-1.34977 7.23133,-2.58595 0.41198,-0.20709 0.96295,-0.37651 1.22438,-0.37651 0.26143,0 0.61719,-0.17094 0.79059,-0.37986 0.17339,-0.20894 0.69399,-0.46032 1.15687,-0.55861 0.46289,-0.0983 1.02021,-0.32023 1.23849,-0.49313 0.21828,-0.17294 0.87313,-0.54663 1.45521,-0.83045 0.58208,-0.28385 1.55604,-0.84349 2.16434,-1.24368 0.6083,-0.40018 1.24422,-0.7276 1.41315,-0.7276 0.16893,0 0.79398,-0.41672 1.38901,-0.92604 0.59503,-0.50932 1.23869,-0.92604 1.43036,-0.92604 0.19167,0 0.84186,-0.44649 1.44487,-0.99219 0.60302,-0.5457 1.48249,-1.23031 1.9544,-1.52136 0.4719,-0.29104 1.37785,-0.87198 2.01323,-1.291 1.54299,-1.01756 8.7583,-8.1466 9.9769,-9.85761 0.53235,-0.74748 1.63303,-2.17623 2.44596,-3.175 0.81293,-0.99878 1.63383,-2.11363 1.82422,-2.47743 0.19039,-0.3638 0.7159,-1.13215 1.16778,-1.70741 1.05137,-1.33847 2.76834,-4.26818 2.96831,-5.06492 0.0848,-0.33787 0.32109,-0.75281 0.5251,-0.92212 0.204,-0.16931 0.37091,-0.50374 0.37091,-0.74319 0,-0.23945 0.28394,-0.8532 0.63097,-1.3639 0.34703,-0.5107 0.82387,-1.49675 1.05964,-2.1912 0.23578,-0.69445 0.65628,-1.70879 0.93445,-2.25404 0.27817,-0.54525 0.5886,-1.46209 0.68984,-2.0374 0.10124,-0.57531 0.36135,-1.3281 0.57802,-1.67288 0.21666,-0.34475 0.43117,-0.88053 0.47667,-1.19062 0.1174,-0.79997 0.54269,-2.09897 0.8835,-2.69854 0.30446,-0.53562 0.95305,-3.57965 1.36553,-6.40884 0.13347,-0.91544 0.30479,-1.76499 0.38073,-1.88783 0.3041,-0.49205 0.53902,-6.03806 0.49955,-11.79357 -0.0423,-6.16902 -0.21931,-9.14578 -0.62933,-10.58333 -0.12451,-0.43656 -0.29171,-1.45674 -0.37155,-2.26706 -0.0798,-0.81032 -0.37426,-2.17954 -0.65428,-3.04271 -0.28001,-0.86317 -0.54855,-1.842 -0.59674,-2.17519 -0.16544,-1.14382 -0.6169,-0.71614 -0.77911,0.73808 -0.37996,3.40633 -2.60344,8.26754 -4.81959,10.53706 -0.53417,0.54705 -0.97121,1.12019 -0.97121,1.27365 0,0.43104 -5.99075,6.13185 -8.20839,7.81111 -1.9812,1.50022 -3.41067,2.38863 -5.44885,3.38651 -0.59924,0.2934 -1.23384,0.70731 -1.41022,0.91985 -0.17639,0.21254 -0.75767,0.52663 -1.29173,0.698 -0.53406,0.17134 -1.15743,0.47368 -1.38526,0.67185 -0.22783,0.19815 -0.82314,0.43797 -1.32292,0.53293 -0.49977,0.095 -1.02774,0.26302 -1.17326,0.37348 -0.26665,0.20236 -6.87883,2.46407 -8.59896,2.94127 -1.45781,0.40444 -3.9046,0.99634 -6.35,1.53612 -1.23692,0.27302 -2.76711,0.62838 -3.4004,0.78967 -1.17216,0.29856 -5.83645,0.8318 -12.7391796,1.45638 -3.54203997,0.32049 -16.9863804,0.33242 -21.1666704,0.0188 -3.15157,-0.23646 -7.17371,-0.65479 -7.3523,-0.76467 -0.10358,-0.0637 -1.08129,-0.19674 -2.1727,-0.29557 -3.14848,-0.28506 -10.11758,-1.7504 -15.74271,-3.31009 -0.43656,-0.12105 -1.4881,-0.41003 -2.33675,-0.64217 -0.84865,-0.23212 -1.77493,-0.54618 -2.05841,-0.69789 -0.28348,-0.15172 -1.19647,-0.50025 -2.02887,-0.77452 -4.01398,-1.32255 -9.51994,-3.84117 -11.84191,-5.41689 -0.54461,-0.36957 -1.11117,-0.67197 -1.25903,-0.67197 -0.14785,0 -0.63725,-0.27664 -1.08755,-0.61478 -0.4503,-0.33814 -0.99732,-0.68239 -1.2156,-0.76499 -1.32402,-0.50107 -6.96736,-5.09392 -8.15263,-6.63504 -3.09467,-4.02371 -5.5148,-9.26422 -5.68377,-12.30751 -0.0371,-0.66761 -0.1798,-0.97661 -0.4511,-0.97661 -0.29598,0 -0.4476,0.47085 -0.59639,1.85209 -0.10973,1.01864 -0.30841,2.14973 -0.44152,2.51354 -0.41185,1.12572 -0.62676,2.1999 -0.68814,3.43958 -0.0324,0.65484 -0.20763,2.14313 -0.38934,3.30729 -0.34998,2.24219 -0.46854,10.91142 -0.18272,13.36146 0.0934,0.80037 0.28973,2.52677 0.43637,3.83646 0.14664,1.30969 0.43685,3.15516 0.64492,4.10104 0.97639,4.43876 1.22226,5.37631 1.49662,5.70688 0.16221,0.19545 0.21488,0.48487 0.11704,0.64317 -0.0978,0.1583 0.011,0.57603 0.24181,0.92832 0.23082,0.35229 0.41968,0.88445 0.41968,1.18258 0,0.29814 0.10445,0.7488 0.2321,1.0015 0.12766,0.25268 0.37305,0.93568 0.54531,1.51776 0.37697,1.27378 0.95478,2.80083 1.60183,4.23333 1.57158,3.47935 1.99408,4.31491 2.55453,5.05206 0.34237,0.4503 0.62248,1.00672 0.62248,1.23648 0,0.22977 0.27052,0.7543 0.60115,1.16565 0.33064,0.41135 0.80894,1.16462 1.06289,1.67394 0.43634,0.87511 0.80421,1.45568 2.70159,4.26371 0.82429,1.21994 2.51698,3.33348 3.44714,4.30426 0.2952,0.30809 1.36141,1.55901 2.36936,2.77985 1.00795,1.22084 2.15577,2.4162 2.5507,2.65639 0.70327,0.42767 2.98774,2.37659 5.64443,4.81534 1.34079,1.23079 5.53525,4.1992 5.93362,4.1992 0.11735,0 0.42886,0.23812 0.69225,0.52917 0.26339,0.29104 0.59207,0.52916 0.73041,0.52916 0.13834,0 0.60527,0.29766 1.03763,0.66146 0.43235,0.3638 0.97408,0.66146 1.20384,0.66146 0.22976,0 0.808,0.29766 1.28497,0.66146 0.47697,0.3638 1.09483,0.66146 1.37303,0.66146 0.27819,0 0.72131,0.23812 0.9847,0.52916 0.26339,0.29104 0.75106,0.52917 1.08372,0.52917 0.33267,0 0.66596,0.0989 0.74066,0.21976 0.12549,0.20304 2.24787,1.12361 4.7902,2.07767 0.58209,0.21844 1.41552,0.55327 1.85209,0.74409 2.77118,1.21121 11.10529,3.07295 15.47812,3.45765 6.9337404,0.60997 9.3346004,0.65249 14.7573004,0.26125 z m 1.77916003,-58.63445 c 1.74624997,-0.0201 3.77030997,-0.1361 4.49791997,-0.25794 0.7276,-0.12184 2.3738,-0.28728 3.65821,-0.36769 1.28441,-0.0804 2.4289396,-0.20402 2.5433996,-0.27477 0.11447,-0.0708 1.32578,-0.20063 2.69179,-0.28863 1.36603,-0.088 2.59289,-0.26578 2.72636,-0.39503 0.28152,-0.2726 0.13553,-0.33326 -2.22705,-0.92572 -2.46889,-0.6191 -5.9902796,-2.52815 -8.3024596,-4.50101 -1.09888,-0.93763 -2.11809,-1.70477 -2.26492,-1.70477 -0.14682,0 -0.44146,0.33745 -0.65474,0.74991 -1.26116,2.43883 -5.3956,6.00681 -8.41395,7.26118 -1.81701,0.75512 -1.59535,1.05629 0.65221,0.88614 1.05503,-0.0799 3.34698,-0.16161 5.09323003,-0.18167 z m -9.92188003,-0.62312 c 0.65485,-0.10138 1.67471,-0.41584 2.26635,-0.69881 0.59165,-0.28295 1.26923,-0.51446 1.50574,-0.51446 0.23651,0 0.50472,-0.12086 0.59602,-0.2686 0.0913,-0.14772 0.58508,-0.44368 1.09728,-0.65771 0.51221,-0.21399 1.39725,-0.75816 1.96676,-1.20922 1.33925003,-1.06069 5.00327,-5.17737 5.00327,-5.62134 0,-0.18788 -0.38695,-0.91956 -0.85989,-1.62592 -1.27383997,-1.90253 -2.82927997,-4.45217 -2.99219997,-4.90471 -0.0786,-0.21828 -0.37511003,-0.83719 -0.65894003,-1.37533 -0.28383,-0.53816 -0.51605,-1.26246 -0.51605,-1.60957 0,-0.34708 -0.0851,-0.71622 -0.18921,-0.82028 -0.41971,-0.41971 -0.84644,-2.79752 -0.85745,-4.77785 -0.0161,-2.89961 0.69318,-6.70465 1.49631,-8.02705 0.55179,-0.90855 0.21144,-1.13872 -1.45947,-0.98698 -2.09656,0.19039 -4.66627,0.20256 -8.4276904,0.0399 -5.7349,-0.24801 -10.2839,-0.62505 -11.39873,-0.94478 -0.45087,-0.12931 -0.86628,-0.18859 -0.92313,-0.13173 -0.0569,0.0568 -1.15086,-0.0795 -2.43111,-0.30293 -1.28025,-0.22346 -2.38932,-0.3447 -2.4646,-0.26942 -0.0753,0.0753 0.0831,0.70673 0.35205,1.40322 0.3726,0.96508 0.48984,1.99022 0.4928,4.30906 0.004,3.26516 -0.0456,3.45003 -2.06399,7.67292 -0.99061,2.0725 -3.73325,6.18474 -5.50055,8.24732 -1.41049,1.64619 -1.48303,1.84283 -0.86813,2.35313 0.22963,0.19058 0.72088,0.9493 1.09166,1.68606 1.23662,2.45716 5.8324,6.37598 8.80957,7.51189 1.11547,0.42561 3.26695,1.01872 5.42396,1.49529 1.65852,0.36645 9.20472,0.38473 11.5093704,0.0279 z M -28.42984,211.62081 c -0.0592,-0.17772 -0.53081,-0.56468 -1.04795,-0.8599 -1.98622,-1.13392 -4.32076,-3.27107 -5.93328,-5.43158 -0.92319,-1.23692 -1.68031,-2.45028 -1.68247,-2.69636 -0.007,-0.84249 -0.52379,-0.7674 -1.91704,0.27881 -2.08316,1.56425 -5.96582,3.47517 -7.07067,3.47994 -0.99509,0.004 -1.81867,0.35848 -1.41446,0.60827 0.34973,0.21617 4.08517,1.50445 4.70969,1.62431 0.56257,0.10795 7.83804,1.89796 8.73125,2.14818 0.29104,0.0815 1.05623,0.20275 1.70042,0.26937 0.64419,0.0667 1.29903,0.2268 1.4552,0.35591 0.24712,0.20429 0.94105,0.36233 2.22424,0.50652 0.19403,0.0217 0.30431,-0.10575 0.24507,-0.28347 z m 51.92194,-2.08529 c 1.3984,-0.25238 2.33997,-0.57221 4.63021,-1.57276 0.58208,-0.25429 1.18543,-0.50438 1.34077,-0.55571 0.58006,-0.19171 3.73551,-3.0467 4.63578,-4.19438 0.51368,-0.65485 1.26766,-1.84547 1.6755,-2.64584 0.40785,-0.80036 0.84728,-1.66195 0.97652,-1.91463 0.12923,-0.2527 0.23497,-0.81121 0.23497,-1.24116 0,-0.42995 0.11907,-0.85532 0.26459,-0.94525 0.14552,-0.0899 0.26228,-0.54345 0.25947,-1.0078 -0.004,-0.69588 -0.42104,-1.28611 -2.37132,-3.35782 -1.30142,-1.38245 -2.37069,-2.59371 -2.37615,-2.69168 -0.005,-0.098 -0.29887,-0.52154 -0.65203,-0.94125 -0.81079,-0.96356 -3.02626,-4.5683 -3.82795,-6.22837 -0.75284,-1.5589 -1.61536,-4.93406 -1.61536,-6.3211 0,-0.56878 0.17354,-1.29899 0.38564,-1.6227 0.73328,-1.11913 0.12234,-1.28209 -1.64705,-0.43933 -0.90293,0.43006 -1.79216,0.78266 -1.97607,0.78356 -0.18392,7.9e-4 -0.69158,0.19294 -1.12814,0.42676 -0.43657,0.23382 -1.38907,0.58568 -2.11667,0.7819 -0.7276,0.19623 -2.21588,0.61355 -3.30729,0.92739 -1.09141,0.31383 -2.65708,0.66124 -3.47928,0.772 -0.8222,0.11077 -1.59611,0.26351 -1.71979,0.33944 -0.12369,0.0759 -0.85551,0.20577 -1.62627,0.28854 -0.7707596,0.0828 -1.5011296,0.21214 -1.6230296,0.28749 -0.12191,0.0753 -1.09803,0.209 -2.16916,0.29702 -1.07113,0.088 -2.04337,0.21928 -2.16053,0.29169 -0.11716,0.0724 0.0671,0.5079 0.40949,0.96775 1.00542,1.35038 1.78524,2.81334 1.78524,3.34914 0,0.27414 0.10805,0.56521 0.24011,0.64683 0.13206,0.0816 0.44193,0.83279 0.6886,1.66926 0.24668,0.83648 0.54313,1.81852 0.65879,2.18232 0.36241,1.14 0.98246,3.51743 1.27659,4.8948 0.57654,2.69988 0.60561,2.99286 0.31481,3.17259 -0.5078,0.31382 -1.06209,-0.42384 -1.06629,-1.41904 -0.005,-1.2273 -0.41801,-1.98401 -0.66393,-1.21698 -0.092,0.28697 -0.33653,0.83778 -0.5434,1.22404 -0.20686,0.38627 -0.37612,1.10231 -0.37612,1.59123 0,0.48893 -0.24704,1.54213 -0.54898,2.34043 -0.30195,0.79833 -0.65502,1.7935 -0.78459,2.21154 -0.12959,0.41805 -0.41832,1.03892 -0.64164,1.37975 -0.22332,0.34084 -0.40604,0.75266 -0.40604,0.9152 0,0.47791 2.66364,2.8679 4.13619,3.7112 0.74693,0.42778 1.5056496,0.9556 1.6860396,1.17298 0.18039,0.21735 0.54188,0.39518 0.80331,0.39518 0.26143,0 0.8124,0.16759 1.22437,0.3724 1.65451,0.82257 2.15059,0.96872 4.05634,1.19515 2.12896,0.25292 4.79942,0.15134 7.14375,-0.27178 z m 11.136,-3.16457 c 0.42165,-0.30025 0.86544,-0.48485 0.98619,-0.41021 0.19162,0.11842 1.41005,-0.44665 5.07573,-2.35398 0.50932,-0.265 1.20999,-0.70022 1.55704,-0.96713 0.34704,-0.26691 0.79874,-0.4853 1.00377,-0.4853 0.20504,0 1.09051,-0.59729 1.96771,-1.3273 0.87721,-0.73002 2.00309,-1.49786 2.50196,-1.7063 1.04308,-0.43582 1.31739,-1.38642 0.31171,-1.08016 -2.12295,0.64643 -4.62095,0.23802 -7.28641,-1.19132 -1.28618,-0.68969 -1.95914,-0.9258 -2.0203,-0.70882 -0.0504,0.17894 -0.23067,0.86114 -0.40051,1.51599 -0.56685,2.18561 -2.46237,5.60263 -4.05112,7.30287 -0.83674,0.89545 -1.52135,1.70222 -1.52135,1.79281 0,0.36592 1.15648,0.13087 1.87558,-0.38115 z m -80.85371,-1.4468 c 2.64717,-0.67884 4.89271,-1.75117 6.54205,-3.12401 1.51444,-1.26056 1.65251,-1.63119 1.16222,-3.11963 -0.20951,-0.636 -0.46585,-1.68777 -0.56965,-2.33722 -0.27842,-1.74212 -0.19278,-7.40738 0.12812,-8.47471 0.15284,-0.50836 0.27789,-1.31071 0.27789,-1.78298 0,-1.05747 0.90618,-4.42211 1.63429,-6.06814 0.29702,-0.67146 1.01361,-1.7346 1.59241,-2.36253 0.57881,-0.62793 0.98519,-1.2504 0.90308,-1.38327 -0.0821,-0.13286 -0.64981,-0.3216 -1.26154,-0.41942 -1.30418,-0.20855 -4.09623,-1.26413 -7.36616,-2.7849 -1.19505,-0.5558 -2.23276,-1.12449 -3.30729,-1.81248 -0.58208,-0.37269 -1.53458,-0.9827 -2.11667,-1.35558 -0.58208,-0.37288 -1.47505,-0.99123 -1.98437,-1.37409 -1.36606,-1.0269 -1.84828,-1.13716 -1.87032,-0.42766 -0.0636,2.0489 -0.80072,4.52537 -1.7163,5.76637 -0.35569,0.48211 -0.64672,0.96023 -0.64672,1.06249 0,0.71439 -3.94701,5.69178 -6.85891,8.64943 l -3.45984,3.51419 v 2.12464 c 0,1.16856 0.18312,2.74232 0.40693,3.49726 1.08651,3.66496 1.36656,4.34919 2.13198,5.20909 0.45337,0.50932 0.96416,1.19285 1.13508,1.51892 0.30245,0.577 2.68577,2.53913 3.82767,3.15124 0.31248,0.16751 1.16345,0.56195 1.89105,0.87651 0.72761,0.31457 1.5529,0.69805 1.83399,0.85217 0.86088,0.47205 2.06615,0.80759 3.58997,0.99944 1.53416,0.19315 1.97129,0.15102 4.10104,-0.39513 z M 4.5663804,199.9013 c 0.36821,-1.01515 0.66947,-2.10709 0.66947,-2.42657 0,-0.31946 0.11906,-0.65442 0.26459,-0.74435 0.14552,-0.0899 0.26458,-0.46199 0.26458,-0.82677 0,-0.36479 0.12659,-0.89977 0.28131,-1.18886 0.15472,-0.28911 0.23634,-0.72776 0.18137,-0.9748 -0.0693,-0.31134 -0.25721,-0.12549 -0.61246,0.60563 -0.58648,1.20703 -1.43772,1.58541 -1.43772,0.6391 0,-0.32665 0.15444,-0.78187 0.3432,-1.01161 0.18876,-0.22973 0.61375,-1.13207 0.94443,-2.00519 0.33067,-0.87313 0.73163,-1.82563 0.89102,-2.11667 0.46749,-0.85361 0.47737,-1.75641 0.0362,-3.30729 -1.44599,-5.0832 -3.5117,-7.60718 -5.70997997,-6.97672 -1.54917,0.44429 -2.72298003,3.79732 -2.95179003,8.43193 -0.14681,2.97357 1.52372003,7.96163 3.79201,11.32257 0.44156,0.65427 0.80284,1.28371 0.80284,1.39875 0,0.3946 1.15709,1.44095 1.36431,1.23373 0.11394,-0.11393 0.50842,-1.03773 0.87663,-2.05288 z M -64.19709,197.72256 c -0.48908,-0.83674 -1.02881,-2.05713 -1.19939,-2.71198 -0.17058,-0.65484 -0.41473,-1.54781 -0.54255,-1.98437 -0.12782,-0.43656 -0.31437,-1.6596 -0.41457,-2.71785 -0.10019,-1.05826 -0.2815,-1.9855 -0.40291,-2.06053 -0.12141,-0.075 -0.73084,0.13125 -1.35429,0.4584 -0.90177,0.47321 -1.57966,0.59698 -3.31523,0.60532 -1.19993,0.006 -2.18219,0.0366 -2.18282,0.0685 -0.0168,0.85542 5.42955,7.21535 6.18266,7.21982 0.16417,0 1.07241,0.59195 2.01829,1.31328 0.94589,0.72134 1.80535,1.31585 1.90992,1.32115 0.10457,0.005 -0.21003,-0.67498 -0.69911,-1.51173 z m 28.6413,-0.0382 c 1.96939,-2.26425 4.00879,-5.3525 5.08547,-7.70086 1.39021,-3.03219 1.70994,-4.33652 1.68631,-6.87917 -0.0184,-1.97966 -0.12122,-2.44578 -0.85868,-3.89264 -0.46077,-0.90402 -1.04668,-1.74777 -1.30201,-1.87499 -0.43358,-0.21603 -0.73082,-0.2284 -2.45274,-0.10204 -0.50412,0.037 -0.9374,0.4652 -1.78603,1.76512 -1.69306,2.59339 -2.52391,5.09856 -2.9847,8.99935 -0.52583,4.45145 0.11643,11.24479 1.06311,11.24479 0.10604,0 0.80321,-0.70181 1.54927,-1.55956 z m 84.0174,-1.34369 c 0.14946,-0.14946 0.52713,-0.27175 0.83926,-0.27175 0.69337,0 3.43934,-1.76229 4.37589,-2.80834 2.16796,-2.42142 3.41743,-6.66773 3.41743,-11.6141 v -3.22529 l -1.62979,-1.42874 c -0.89639,-0.78581 -1.83042,-1.5478 -2.07562,-1.69333 -0.24521,-0.14552 -1.25802,-1.21708 -2.2507,-2.38125 -0.99267,-1.16416 -2.3607,-2.71197 -3.04007,-3.43958 -1.47174,-1.57624 -3.25129,-4.42809 -4.74662,-7.60677 -0.59899,-1.27331 -1.19269,-2.3151 -1.31934,-2.3151 -0.12665,0 -0.49144,0.50601 -0.81065,1.12448 -0.31921,0.61846 -0.78822,1.3626 -1.04225,1.65364 -0.25402,0.29104 -0.72357,0.96693 -1.04344,1.50199 -0.67604,1.13083 -3.98695,4.13429 -6.18475,5.61043 -1.64254,1.1032 -1.90367,1.75657 -0.88717,2.21972 0.34881,0.15893 0.96684,0.74359 1.37341,1.29924 0.40657,0.55566 1.1732,1.6056 1.70363,2.3332 1.01189,1.38806 2.37419,4.11594 2.37419,4.75412 0,0.20572 0.11906,0.44761 0.26458,0.53755 0.14552,0.0899 0.26459,0.46198 0.26459,0.82676 0,0.36478 0.10771,0.86451 0.23936,1.11051 0.52577,0.98239 1.10159,5.56491 1.0644,8.47073 -0.0212,1.66034 0.0708,3.0934 0.20457,3.18457 0.13376,0.0912 0.67262,0.49975 1.19746,0.90795 1.28778,1.00158 3.906,1.71881 5.87277,1.60877 0.86191,-0.0482 1.6894,-0.20995 1.83886,-0.35941 z m -10.31368,-3.86466 c 0.0882,-0.22985 0.10648,-0.67633 0.0406,-0.99219 -0.0659,-0.31586 -0.18873,-1.92293 -0.27303,-3.57128 -0.15163,-2.9647 -0.67925,-5.72196 -1.1933,-6.23601 -0.14604,-0.14604 -0.26552,-0.53235 -0.26552,-0.85846 0,-0.32611 -0.11907,-0.66651 -0.26459,-0.75644 -0.14552,-0.0899 -0.26458,-0.38489 -0.26458,-0.65544 0,-0.77043 -2.89406,-5.21522 -4.1487,-6.37171 -1.56877,-1.44604 -3.14927,-1.31135 -3.39306,0.28916 -0.0547,0.35891 -0.20629,1.06929 -0.33695,1.57861 -0.29597,1.15376 -0.2088,2.19165 0.36664,4.36563 0.33149,1.25233 2.43605,5.58313 2.90042,5.96852 0.19489,0.16175 0.67634,0.84953 1.06988,1.5284 0.85075,1.46758 1.49276,2.27124 3.57527,4.47547 1.65259,1.74919 1.92978,1.90582 2.18691,1.23574 z m -106.80947,-5.13323 c 0.54827,-0.29386 1.14999,-0.53428 1.33717,-0.53428 0.18717,0 0.44963,-0.26789 0.58324,-0.59531 0.24792,-0.60755 0.66734,-3.07877 0.58412,-3.4416 -0.0253,-0.11024 0.0839,-0.76509 0.24266,-1.4552 0.15875,-0.69012 0.32252,-1.49289 0.36393,-1.78393 0.1326,-0.93208 1.22216,-3.92634 1.92553,-5.29167 1.66778,-3.23738 2.09335,-3.93072 3.25835,-5.30855 1.90039,-2.24757 3.86349,-3.81957 4.76983,-3.81957 1.05071,0 0.98922,-0.51311 -0.22004,-1.83622 -0.92473,-1.01178 -2.32871,-3.24672 -3.00175,-4.77837 -0.15987,-0.3638 -0.45343,-1.01864 -0.65236,-1.45521 -0.19894,-0.43656 -0.39576,-1.20949 -0.43739,-1.71762 -0.11891,-1.4514 -0.8548,-1.36815 -1.57969,0.17872 -0.43336,0.92477 -2.26853,2.95967 -6.69033,7.41845 -6.05589,6.10655 -6.09924,6.15838 -7.08536,8.47131 -0.5457,1.27994 -0.99219,2.53344 -0.99219,2.78555 0,0.25211 -0.11747,0.45839 -0.26105,0.45839 -0.321,0 -0.14063,7.1207 0.21446,8.46666 0.33013,1.25138 1.50043,3.50479 2.08488,4.01444 1.18494,1.03329 3.84588,1.14057 5.55599,0.22401 z m 127.49106,-1.52647 c 0.0869,-0.40018 0.25415,-0.96573 0.37176,-1.25677 0.59007,-1.46018 0.92834,-3.04299 0.93179,-4.35999 0.004,-1.42716 -0.0134,-1.46084 -0.74276,-1.46084 h -0.74658 l -0.0994,3.04271 c -0.0547,1.67349 -0.1787,3.42966 -0.27563,3.9026 -0.11348,0.5537 -0.0731,0.8599 0.11333,0.8599 0.15927,0 0.36064,-0.32742 0.44749,-0.72761 z M -62.54182,182.6235 c 2.9177,-2.97468 5.21509,-5.63023 5.90056,-6.82046 0.32723,-0.56819 0.86986,-1.36964 1.20583,-1.78099 0.33598,-0.41134 0.61086,-1.02184 0.61086,-1.35666 0,-0.33482 0.16565,-0.74624 0.3681,-0.91425 0.66056,-0.54823 1.21467,-4.55136 0.71356,-5.15516 -0.91174,-1.09858 -4.97734,1.18331 -6.10336,3.42562 -0.21533,0.42878 -0.66181,1.14804 -0.99219,1.59833 -0.33038,0.4503 -0.60069,0.99979 -0.60069,1.22109 0,0.2213 -0.22926,0.69382 -0.50945,1.05003 -1.03761,1.31911 -3.19472,8.26629 -3.19472,10.28892 0,0.88126 0.50938,0.57651 2.6015,-1.55647 z m 64.3380904,-4.52147 c 1.52797,-0.15324 3.07578,-0.3436 3.43958,-0.42301 0.3638,-0.0794 1.60599,-0.26687 2.76042,-0.41657 1.15443,-0.1497 2.2081196,-0.33965 2.3415496,-0.42211 0.206,-0.12731 1.84498,-0.41428 4.05498,-0.70998 0.30689,-0.0411 0.9022,-0.20275 1.32291,-0.3593 0.42071,-0.15656 1.6579,-0.54178 2.74931,-0.85606 1.09141,-0.31427 2.28203,-0.69665 2.64583,-0.84972 0.3638,-0.15308 1.3165,-0.48923 2.11711,-0.74701 1.62039,-0.52173 6.45328,-2.9876 7.2756,-3.71221 0.29104,-0.25646 1.22915,-0.90963 2.08469,-1.45149 1.98014,-1.25415 5.42821,-4.51954 5.86624,-5.55545 0.1846,-0.43656 0.70358,-1.2566 1.15329,-1.82231 0.44971,-0.56572 0.81766,-1.18399 0.81766,-1.37394 0,-0.18996 0.24226,-0.75598 0.53836,-1.25784 0.2961,-0.50185 0.66512,-1.60998 0.82004,-2.46252 0.15491,-0.85253 0.34497,-1.89171 0.42234,-2.30928 0.0774,-0.41758 -0.01,-1.42961 -0.19423,-2.24896 -0.79898,-3.55393 -1.38533,-4.64966 -3.895,-7.27862 -1.34085,-1.40458 -2.62475,-2.41274 -7.21651,-5.66659 -1.57855,-1.1186 -11.03036,-5.87473 -11.67481,-5.87473 -0.21719,0 -0.626,-0.17481 -0.90848,-0.38846 -0.28247,-0.21365 -0.77445,-0.39224 -1.09329,-0.39687 -0.31883,-0.005 -0.65328,-0.12748 -0.74322,-0.273 -0.0899,-0.14552 -0.40601,-0.26458 -0.70239,-0.26458 -0.29638,0 -0.8549,-0.17081 -1.24116,-0.37958 -0.98375,-0.5317 -4.7196296,-1.56743 -8.6397796,-2.39527 -1.83569,-0.38765 -7.1149,-0.95399 -10.2526,-1.09987 -2.74517,-0.12763 -3.38027,-0.0894 -3.41011,0.20529 -0.0202,0.19917 -0.0607,2.1419 -0.0901,4.31718 -0.0447,3.3106 -0.12292,3.99886 -0.4798,4.22397 -0.2345,0.14791 -0.51485,0.18044 -0.62301,0.0723 -0.10816,-0.10816 -0.18852,-2.10057 -0.17858,-4.42757 0.0117,-2.73756 -0.0818,-4.29263 -0.26491,-4.4058 -0.39063,-0.24142 -5.1019304,-0.10002 -6.3966904,0.19198 -0.58209,0.13128 -1.71318,0.29107 -2.51355,0.3551 -1.70827,0.13665 -7.30432,1.16672 -8.06979,1.48541 -0.29104,0.12117 -1.12448,0.36409 -1.85208,0.53982 -2.39307,0.57798 -5.41887,1.52356 -5.81435,1.81701 -0.14909,0.11063 -0.78324,0.34768 -1.40923,0.52678 -0.62599,0.17909 -1.68553,0.61666 -2.35451,0.97236 -0.66899,0.35571 -1.42971,0.64674 -1.69049,0.64674 -0.26078,0 -0.55165,0.1254 -0.64638,0.27868 -0.0947,0.15327 -0.78637,0.57054 -1.53697,0.92727 -2.44554,1.16226 -6.19173,3.47726 -8.2439,5.0944 -0.72761,0.57337 -1.79917,1.28491 -2.38125,1.58122 -1.96471,1.0001 -4.56291,4.43688 -5.79819,7.66957 -1.43903,3.76591 -0.74977,7.27698 2.42642,12.3601 1.88405,3.01519 4.52122,5.44111 8.90234,8.18921 0.45069,0.28269 1.29568,0.81446 1.87776,1.18171 1.44294,0.91038 5.27778,2.52362 8.59896,3.6174 0.65484,0.21566 1.39915,0.50854 1.65402,0.65084 0.25487,0.1423 0.94974,0.31983 1.54415,0.39451 0.59442,0.0747 1.51699,0.32025 2.05015,0.5457 0.90638,0.38328 3.55797,0.84801 8.24543,1.44514 1.0914,0.13903 2.16297,0.32195 2.38125,0.40648 0.21828,0.0845 2.89719,0.21492 5.95312,0.28974 3.05594,0.0748 5.5823104,0.15999 5.6141504,0.18927 0.16969,0.15602 8.27461003,-0.10745 10.65773,-0.34646 z M 60.10481,175.65798 c 0.17775,-0.88872 -0.41788,-2.95715 -1.52612,-5.29978 -0.37991,-0.80308 -0.69075,-1.60542 -0.69075,-1.78299 0,-0.17757 -0.28247,-0.70186 -0.6277,-1.16509 -0.34523,-0.46324 -0.73332,-1.1399 -0.86242,-1.5037 -0.23956,-0.67511 -1.18579,-2.29012 -2.61865,-4.4695 -0.44081,-0.67047 -0.94136,-1.54008 -1.11234,-1.93244 -0.17097,-0.39238 -0.70974,-1.16628 -1.19727,-1.7198 -0.48753,-0.55351 -1.35281,-1.66123 -1.92286,-2.4616 -0.9667,-1.35727 -6.77023,-7.7309 -6.91112,-7.59001 -0.0351,0.0351 0.0586,0.59629 0.20808,1.24719 0.1495,0.65089 0.32507,1.42157 0.39016,1.71261 0.0651,0.29105 0.12633,1.39237 0.1361,2.4474 l 0.0178,1.91823 h 0.99675 c 1.12173,0 1.76128,0.41258 4.06491,2.62229 1.52944,1.46708 4.14694,4.56455 4.14694,4.90736 0,0.0982 0.29397,0.56399 0.65327,1.03506 0.3593,0.47106 0.83733,1.26679 1.06228,1.76828 0.22496,0.50149 0.52205,1.0904 0.6602,1.30868 0.48195,0.76146 1.32842,2.74808 1.32842,3.11772 0,0.20488 0.16639,0.68853 0.36976,1.07479 0.20337,0.38625 0.51342,1.23806 0.68901,1.8929 0.17559,0.65485 0.4179,1.44654 0.53847,1.75931 0.12058,0.31277 0.1567,0.80778 0.0803,1.10002 -0.0872,0.33341 0.0753,0.74558 0.43621,1.10649 0.53491,0.53491 0.60855,0.54493 1.05242,0.14323 0.26251,-0.23756 0.5497,-0.79406 0.63822,-1.23665 z m -3.53979,-0.63426 c 0,-0.6936 -1.04518,-3.85485 -2.00136,-6.05329 -1.74315,-4.00784 -3.22642,-6.1952 -6.33892,-9.34787 -2.69661,-2.7314 -3.01964,-2.97656 -3.92207,-2.97656 -0.5584,0 -1.03997,0.14736 -1.11426,0.34096 -0.13879,0.36167 0.78713,3.51199 1.17577,4.00041 0.1264,0.15886 0.31079,0.55306 0.40974,0.87601 0.24364,0.79512 2.36618,4.29917 3.04332,5.02416 0.30013,0.32134 0.5457,0.70204 0.5457,0.846 0,0.44866 7.32,7.69788 7.77303,7.69788 0.23598,0 0.42905,-0.18347 0.42905,-0.4077 z M -68.18586,161.07463 c 1.89168,-1.92988 4.03473,-4.24475 4.76234,-5.14416 1.46194,-1.80714 2.71271,-3.936 2.46062,-4.18809 -0.55026,-0.55025 -3.99771,2.6773 -5.95562,5.57574 -0.59376,0.87898 -1.28911,1.77195 -1.54521,1.98437 -0.37074,0.3075 -2.15125,2.90791 -3.38947,4.95028 -0.60175,0.99254 0.60023,-0.0491 3.66734,-3.17814 z m 8.81616,-12.1966 c 0.56708,-1.16355 0.22438,-1.38012 -0.76075,-0.48075 -0.76207,0.69572 -0.84664,0.87584 -0.51495,1.09669 0.5538,0.36875 0.87026,0.21595 1.2757,-0.61594 z m 43.32186,-28.71983 c -0.0845,-0.13667 -0.1289,-5.35098 -0.0987,-11.58735 0.0302,-6.23638 -0.035,-11.484303 -0.14489,-11.662063 -0.1347,-0.217945 -1.0348,-0.324911 -2.76383,-0.328443 -2.73577,-0.0056 -8.07753,-0.561094 -10.24513,-1.065419 -5.61787,-1.30709 -6.8922,-1.642684 -9.64915,-2.541109 -1.52796,-0.497927 -3.01625,-1.005819 -3.30729,-1.128646 -0.29104,-0.122828 -1.06495,-0.430144 -1.71979,-0.682927 -0.65484,-0.252783 -1.60734,-0.669245 -2.11667,-0.925475 -0.50932,-0.256228 -1.363,-0.605531 -1.89706,-0.77623 -0.53406,-0.170696 -1.11419,-0.482862 -1.28917,-0.693698 -0.17498,-0.210838 -0.50068,-0.383341 -0.72379,-0.383341 -0.22311,0 -0.83361,-0.327221 -1.35667,-0.727157 -0.52306,-0.399936 -2.10411,-1.441733 -3.51344,-2.315104 -3.70735,-2.297462 -6.73475,-4.493898 -8.55007,-6.203228 -0.87313,-0.822145 -2.03226,-1.829494 -2.57585,-2.238547 -1.27812,-0.961806 -7.09192,-7.40209 -8.71849,-9.658004 -0.69178,-0.959432 -1.6448,-2.266606 -2.11782,-2.904837 -0.47302,-0.63823 -1.07839,-1.648121 -1.34526,-2.244201 -0.26687,-0.59608 -0.645,-1.264518 -0.84027,-1.485416 -0.19528,-0.220898 -0.94175,-1.532726 -1.65883,-2.915174 -0.71708,-1.382448 -1.4321,-2.751667 -1.58894,-3.042708 -0.60383,-1.120482 -1.90571,-4.021932 -2.31502,-5.159376 -1.05826,-2.940865 -2.03969,-5.986542 -2.25038,-6.983616 -0.12624,-0.597395 -0.47843,-2.06121 -0.78266,-3.25292 -0.77886,-3.050921 -1.3651,-6.849274 -1.60529,-10.400964 -0.24011,-3.550528 -0.18439,-3.2546 -0.56812,-3.017443 -0.21097,0.130389 -0.23143,0.07384 -0.0661,-0.182822 0.13162,-0.204385 0.24939,-2.047759 0.2617,-4.096385 0.0123,-2.048627 0.0991,-3.848942 0.19292,-4.000704 0.0938,-0.15176 0.23932,-1.333111 0.32338,-2.625225 0.0841,-1.292111 0.21414,-2.52789 0.28904,-2.746172 0.0749,-0.218281 0.18529,-0.813593 0.24531,-1.322916 0.21744,-1.8452944 0.74875,-4.4243946 1.49891,-7.2760426 0.42108,-1.600729 0.86365,-3.28995301 0.98348,-3.75383101 0.11983,-0.463881 0.46384,-1.35684999 0.76448,-1.98437499 0.30063,-0.627529 0.73734,-1.736273 0.97046,-2.463877 0.40944,-1.277893 1.51106,-3.814419 2.01092,-4.630209 0.13375,-0.218281 0.37419,-0.694531 0.53431,-1.0583334 0.16013,-0.363802 0.41929,-0.899583 0.57592,-1.190625 0.15664,-0.291042 0.46001,-0.886354 0.67417,-1.322917 1.08301,-2.207688 5.12862,-8.415864 6.37947,-9.789583 0.39752,-0.436563 1.00094,-1.210469 1.34095,-1.719792 0.34,-0.509323 2.05553,-2.397668 3.81229,-4.196324 4.86643,-4.98249 9.80028,-8.95536 14.70348,-11.839652 0.65484,-0.385207 1.52019,-0.928444 1.923,-1.207191 0.4028,-0.278746 1.23624,-0.734155 1.85208,-1.012023 0.61584,-0.277865 1.41737,-0.671729 1.78117,-0.87525 1.18166,-0.661056 3.76237,-1.781783 8.33438,-3.619389 1.69383,-0.680799 6.24963,-2.031232 7.67291,-2.274414 0.58209,-0.09945 1.25723,-0.28334 1.50032,-0.408636 0.24309,-0.125295 1.07653,-0.276562 1.85209,-0.336149 0.77555,-0.05959 2.54985,-0.295399 3.94289,-0.524027 1.39303,-0.228628 3.83381,-0.490593 5.42395,-0.582145 2.32295,-0.133744 2.99315,-0.264559 3.41005,-0.665607 0.40621,-0.39077 0.4493,-0.568724 0.19843,-0.819588 -0.23179,-0.2318 -0.32096,-1.970847 -0.32232,-6.286794 -0.001,-3.281495 -0.0778,-6.770026 -0.17055,-7.752292 -0.15598,-1.651632 -0.21553,-1.785937 -0.79187,-1.785937 -0.76748,0 -0.76743,-0.01686 0.007,-2.268762 0.7691,-2.237444 1.24659,-3.287489 1.49493,-3.287489 0.10326,0 0.33702,0.565547 0.51948,1.256771 0.18246,0.691224 0.49559,1.766948 0.69585,2.390497 0.51747,1.611323 0.47027,1.908983 -0.30272,1.908983 h -0.6668 l 0.13828,8.387937 c 0.0761,4.613365 0.2273,8.470674 0.33608,8.571798 0.10879,0.101123 1.74561,0.250079 3.63738,0.331014 3.3449204,0.143103 8.1833804,0.744229 9.7895804,1.216249 0.43656,0.128294 1.62719003,0.376036 2.64583003,0.550538 2.61388997,0.447778 8.81606997,2.330833 9.52291957,2.891266 0.14667,0.116289 0.56432,0.296558 0.92813,0.400597 1.57332,0.44994 7.84217,3.516078 10.53493,5.152708 1.21031,0.735613 2.28451,1.337477 2.38711,1.337477 0.10261,0 0.60064,0.339849 1.10674,0.755219 0.50609,0.415369 1.28841,0.944528 1.73846,1.175903 0.45006,0.231376 1.68125,1.141685 2.73597,2.022907 1.05472,0.881221 2.02889,1.602221 2.16482,1.602221 0.13593,0 0.36623,-0.313206 0.51177,-0.696015 0.46576,-1.22505 1.29905,-2.201913 1.73543,-2.034456 0.28266,0.108466 2.60095,-2.032945 7.60354,-7.02341 3.95829,-3.9487 7.28336,-7.179453 7.38906,-7.179453 0.61815,0 -0.49947,1.244591 -6.95006,7.739582 -3.92822,3.955264 -7.11314,7.365807 -7.0776,7.578984 0.0575,0.344998 -0.5054,0.825751 -2.08629,1.781776 -0.44724,0.270465 -0.23441,0.550873 2.20906,2.910417 1.48719,1.436116 3.09454,3.109203 3.57188,3.717978 0.47734,0.608774 1.88506,2.33518 3.12828,3.836458 2.21226,2.671482 4.35637,5.692537 5.41252,7.626263 0.29104,0.532874 0.77763,1.315993 1.08131,1.740265 0.30368,0.424273 1.55384,2.819048 2.77813,5.3217294 1.22429,2.502678 2.30351,4.556506 2.39828,4.564063 0.0948,0.0075 0.41817,-0.402982 0.71868,-0.912305 0.36817,-0.623999 0.74142,-0.926042 1.14435,-0.926042 0.42942,0 2.63043,-2.027536 7.80871,-7.1932694 3.96591,-3.956299 7.2857,-7.118311 7.37732,-7.026691 0.31212,0.312116 -0.91256,1.649905 -7.54985,8.247201 -4.98895,4.9588734 -6.59785,6.7118024 -6.48544,7.0659814 0.11478,0.36163 -0.15338,0.624514 -1.15454,1.13184 -0.71722,0.363445 -1.36697,0.824804 -1.44388,1.025242 -0.0769,0.20044 0.26541,1.543245 0.76073,2.98401299 0.49532,1.44077001 0.90058,2.92536001 0.90058,3.29909001 0,0.373732 0.12026,0.799774 0.26725,0.946766 0.35681,0.356804 1.5303,6.0944416 1.9374,9.4726156 0.53408,4.431948 0.54945,12.674603 0.0321,17.221171 -0.52375,4.602933 -1.61906,10.102197 -2.50314,12.567709 -2.55337,7.120771 -3.73964,10.083229 -4.9266,12.303125 -2.09509,3.918308 -2.64558,4.882486 -3.24548,5.684396 -0.37931,0.507042 -0.80872,1.130237 -0.95424,1.38488 -0.68473,1.198179 -3.5164,5.193056 -4.62643,6.526898 -2.8394,3.411887 -10.70071,10.960177 -12.90371,12.389908 -0.83592,0.542513 -1.92792,1.332085 -2.42666,1.754603 -0.49874,0.422521 -1.27265,0.921105 -1.71979,1.107964 -0.44715,0.186857 -1.11065,0.572553 -1.47445,0.857105 -0.64017,0.500705 -1.08932,0.749033 -4.26251,2.356678 -0.81641,0.413621 -1.64985,0.87512 -1.85209,1.025554 -0.20223,0.150434 -1.08207,0.543179 -1.9552,0.872768 -0.87312,0.329586 -1.94468,0.761386 -2.38125,0.959554 -3.2657696,1.482418 -9.2899996,3.431357 -12.69999957,4.108659 -4.30384003,0.85484 -6.04738003,1.063821 -10.15589043,1.217285 -2.75995,0.103089 -4.81209,0.294293 -5.0318,0.46882 -0.31332,0.248896 -0.34199,2.091222 -0.18436,11.846239 0.17409,10.77296 0.0986,12.5734 -0.48768,11.62485 z m 7.0031804,-25.296725 c 0.15064,-0.0931 1.19296,-0.213013 2.31626,-0.266469 1.12331,-0.05345 2.87581,-0.291794 3.89446,-0.529641 1.01865,-0.237847 2.44740003,-0.527391 3.17500003,-0.643432 1.27949997,-0.204063 2.68382997,-0.631087 3.63442997,-1.105149 0.25269,-0.126016 0.72894,-0.234175 1.05833,-0.240353 0.99515,-0.01868 7.7573696,-2.529445 8.6382296,-3.207337 0.34705,-0.267078 0.85526,-0.485595 1.12935,-0.485595 0.4347,0 2.12908,-0.74009 3.79591,-1.658017 0.29104,-0.160279 0.88635,-0.467633 1.32292,-0.683011 0.43656,-0.215376 1.29145,-0.729255 1.89975,-1.14195 0.6083,-0.412697 1.18289,-0.750356 1.27687,-0.750356 0.094,0 0.84643,-0.508717 1.67212,-1.13048 0.82569,-0.621765 1.79891,-1.282271 2.16272,-1.467792 0.3638,-0.185517 1.1377,-0.764137 1.71979,-1.285822 0.58208,-0.521681 1.47505,-1.256363 1.98437,-1.632622 4.01445,-2.965662 10.53672,-9.849673 12.40744,-13.095587 0.34841,-0.604536 1.09255,-1.656297 1.65364,-2.33725 0.5611,-0.68095 1.02017,-1.319842 1.02017,-1.419759 0,-0.09992 0.41672,-0.749353 0.92604,-1.443189 0.50933,-0.693835 0.92605,-1.405784 0.92605,-1.582105 0,-0.176321 0.21771,-0.636619 0.4838,-1.022884 0.83406,-1.210742 3.74185,-7.343725 3.92464,-8.277675 0.0959,-0.490212 0.32217,-1.129419 0.50273,-1.420461 0.18056,-0.291042 0.64951,-1.600729 1.0421,-2.910417 0.3926,-1.309687 0.80324,-2.500312 0.91254,-2.645833 0.1093,-0.145521 0.3462,-1.03849 0.52644,-1.984375 0.18024,-0.945886 0.43122,-1.957917 0.55774,-2.248959 0.12652,-0.291041 0.34647,-1.481666 0.48879,-2.645833 0.14231,-1.164167 0.331,-2.414323 0.41931,-2.778125 0.75998,-3.13081 0.57714,-18.961595 -0.25515,-22.092709 C 55.97872,10.000684 55.64532,8.4528714 55.43124,7.2887047 55.21717,6.1245384 54.83183,4.6957874 54.57494,4.1137044 l -0.46708,-1.058333 -0.2231,1.190625 c -0.1227,0.654844 -0.32994,1.488281 -0.46052,1.852083 -0.13059,0.363802 -0.38804,1.1972398 -0.57211,1.8520836 -0.39104,1.391129 -1.45531,3.798586 -2.10215,4.755216 -0.2487,0.367808 -0.79186,1.204524 -1.20703,1.859368 -1.46491,2.310606 -10.4952,10.847917 -11.47431,10.847917 -0.17839,0 -0.70335,0.285974 -1.16659,0.6355 -1.24705,0.940942 -3.05078,1.922586 -6.13391,3.338245 -1.01864,0.467725 -2.55571,1.193723 -3.41569,1.613331 -0.85999,0.419608 -1.72481,0.762923 -1.92182,0.762923 -0.19702,0 -0.56495,0.108816 -0.81764,0.241814 -0.59487,0.313102 -5.89051,1.985692 -6.42366,2.028867 -0.22439,0.01818 -0.66305,0.169545 -0.9748,0.336389 -0.31174,0.166841 -0.94777,0.303347 -1.4134,0.303347 -0.46563,0 -1.27712,0.114583 -1.80333,0.25463 -1.69055,0.449929 -6.4499696,1.304798 -8.7640996,1.574176 -1.23575,0.143846 -3.61603,0.440388 -5.28950997,0.658979 -4.50053003,0.587862 -16.85535043,0.898141 -21.82813043,0.548193 -1.16417,-0.08193 -3.06917,-0.1909 -4.23333,-0.242163 -1.16417,-0.05126 -2.89058,-0.218443 -3.83646,-0.371515 -0.94589,-0.153069 -2.60546,-0.350845 -3.68795,-0.439504 -1.08248,-0.08866 -2.05354,-0.213966 -2.1579,-0.278466 -0.10436,-0.0645 -0.82604,-0.188061 -1.60372,-0.274585 -0.77769,-0.08652 -2.6046,-0.391059 -4.05981,-0.676749 -1.45521,-0.285686 -2.88396,-0.566097 -3.175,-0.62313 -2.11396,-0.414269 -4.35289,-1.01 -6.00258,-1.597166 -1.0642,-0.378774 -2.53023,-0.85013 -3.25783,-1.047453 -2.9453,-0.798762 -10.81186,-4.19118 -14.02292,-6.047319 -0.58208,-0.336471 -1.65365,-0.9427 -2.38125,-1.347177 -1.80834,-1.005263 -4.25134,-2.733164 -5.44203,-3.849084 -0.54344,-0.509323 -1.4047,-1.24909 -1.9139,-1.643925 -2.05784,-1.595668 -5.94639,-7.493294 -6.76639,-10.2623256 -0.19392,-0.6548438 -0.4484,-1.4403282 -0.56552,-1.7455198 -0.11712,-0.305189 -0.29723,-1.2294972 -0.40025,-2.0540162 -0.21117,-1.690195 -0.55926,-2.141971 -0.80125,-1.039931 -0.0892,0.406135 -0.22413,0.917019 -0.29989,1.1353 -0.21244,0.612132 -0.91415,3.7566101 -1.00373,4.497917 -0.044,0.3638016 -0.22137,2.0902086 -0.39423,3.8364586 -0.17286,1.74625 -0.40034,3.591719 -0.50551,4.101042 -0.41414,2.005494 -0.0119,13.334844 0.50787,14.306124 0.14004,0.261665 0.25462,0.930111 0.25462,1.485434 0,0.555326 0.18327,1.843075 0.40726,2.861665 0.22399,1.018593 0.55435,2.52962 0.73415,3.357838 0.17979,0.82822 0.41324,1.592204 0.51878,1.697744 0.10554,0.105539 0.19189,0.501224 0.19189,0.8793 0,0.655476 1.69896,5.945841 2.08757,6.500437 0.10197,0.145521 0.45605,0.978958 0.78686,1.852083 0.33081,0.873126 0.71264,1.766094 0.84853,1.984376 0.23717,0.380989 0.36926,0.655481 1.01862,2.116666 0.28824,0.648624 1.30788,2.530573 2.79534,5.159375 0.41171,0.727605 0.95448,1.561042 1.20617,1.852084 0.25169,0.291042 0.72201,1.064948 1.04516,1.719792 0.32315,0.654843 0.92579,1.547812 1.33919,1.984375 0.4134,0.436562 1.20424,1.413782 1.75742,2.171599 1.68182,2.303995 5.52141,6.554912 7.14556,7.911045 0.84322,0.704069 2.01909,1.700064 2.61306,2.213324 0.59396,0.51326 1.31107,1.111793 1.59357,1.330074 2.07537,1.603589 3.52913,2.664759 4.2236,3.083018 1.36027,0.819258 3.91198,2.494454 4.61227,3.02795 0.3638,0.277153 1.16141,0.752234 1.77247,1.055737 0.61105,0.303504 1.25071,0.720157 1.42146,0.925894 0.17075,0.205737 0.42146,0.374068 0.55715,0.374068 0.24867,0 2.37604,0.882105 3.14678,1.304803 0.22856,0.125349 1.24059,0.546463 2.24896,0.93581 1.00836,0.389345 2.07151,0.800587 2.36256,0.913868 3.03898,1.182868 11.05556,3.308877 13.49375,3.578564 0.7276,0.08048 1.91823,0.21757 2.64583,0.304644 0.7276,0.08707 2.03729,0.238384 2.91042,0.336246 1.9396,0.217395 12.7228204,0.133286 13.1038604,-0.102209 z m 5.26861,-58.723881 c 3.42651003,-0.197744 7.74966,-0.68462 8.19493,-0.922917 0.23612,-0.126368 1.20114,-0.295161 2.14449,-0.375097 0.94336,-0.07994 2.54863,-0.33369 3.5672696,-0.563893 1.01865,-0.230204 2.36989,-0.475208 3.00276,-0.544455 0.63286,-0.06924 1.34724,-0.229335 1.5875,-0.355756 0.24025,-0.126423 0.73448,-0.231195 1.09829,-0.232833 0.3638,-0.0016 1.55442,-0.29482 2.64583,-0.651518 1.09141,-0.356695 2.52016,-0.802222 3.175,-0.990058 4.93845,-1.416547 5.54874,-1.882473 3.43958,-2.625981 -0.65484,-0.230844 -1.66687,-0.732809 -2.24896,-1.115481 -1.97553,-1.298747 -7.1781,-7.250181 -8.50299,-9.726933 -0.31102,-0.581424 -0.97189,-1.569797 -1.4686,-2.196383 -0.49671,-0.626589 -1.23673,-1.661194 -1.6445,-2.299126 -0.40776,-0.637932 -1.18813,-1.649963 -1.7341596,-2.248958 -0.54602,-0.598996 -1.50669,-1.8477895 -2.13482,-2.7750986 -1.52606,-2.252906 -4.45399,-5.125416 -5.93289,-5.820582 -1.58193997,-0.743598 -3.75782,-0.75569 -4.99161,-0.02774 -1.58345,0.934257 -3.80126,3.879731 -5.37419,7.137461 -1.8326304,3.7955906 -2.0808604,4.3733936 -2.4439104,5.6885416 -0.91118,3.300781 -0.97346,3.659442 -1.05684,6.085417 -0.0521,1.51602 -0.34198,2.127155 -0.90627,1.910617 -0.31941,-0.122568 -0.34893,-0.387572 -0.1574,-1.41279 0.27942,-1.495655 -0.11837,-2.219799 -0.55147,-1.003932 -0.151,0.423878 -0.39354,0.977431 -0.539,1.230119 -0.14546,0.252688 -0.26447,0.596625 -0.26447,0.764307 0,0.449241 -2.74585,5.913975 -3.9717,7.904387 -0.58255,0.945886 -1.89179,2.503594 -2.90942,3.461571 -1.01764,0.957979 -1.76093,1.835777 -1.65176,1.950664 0.18544,0.195136 15.2710904,0.008 19.6293104,-0.243553 z M -25.75199,35.584668 c 2.98175,-1.038379 5.75589,-4.229976 8.45921,-9.732161 2.76789,-5.633606 3.22466,-7.289599 1.36196,-4.93776 -0.89387,1.128606 -1.42822,1.325869 -1.69665,0.626345 -0.16775,-0.437144 1.39796,-2.341467 3.56049,-4.330512 0.94141,-0.865889 2.63408,-3.695298 2.63408,-4.403035 0,-0.299929 0.43943,-1.267227 1.24508,-2.740715 0.1989104,-0.3638023 0.6546004,-1.2567711 1.0126504,-1.9843753 0.94624,-1.9228913 2.26372,-3.9501183 3.11262,-4.7894163 0.99816,-0.98688 0.55152,-1.199375 -1.953,-0.929158 -2.8603704,0.308612 -16.2008104,0.327636 -18.3663104,0.02619 -1.01864,-0.141798 -2.92364,-0.37696 -4.23333,-0.522581 -1.30969,-0.145621 -3.27422,-0.45198 -4.36563,-0.680797 -1.0914,-0.22881401 -2.57968,-0.51839201 -3.30729,-0.64350301 -0.7276,-0.125109 -2.26788,-0.47507 -3.42285,-0.777688 -2.1986,-0.576069 -2.77506,-0.440031 -2.25479,0.532104 0.46296,0.86506101 1.0269,2.77698701 1.16534,3.95093001 0.42602,3.6123383 0.77816,6.1757756 1.10057,8.0117086 0.19908,1.133615 0.34087,2.145646 0.31509,2.248958 -0.0258,0.103309 0.0486,0.592188 0.16534,1.086398 0.11671,0.49421 0.25023,1.327647 0.2967,1.852083 0.10299,1.162183 0.68892,3.564507 1.71682,7.038939 0.31955,1.080127 1.65722,4.178027 2.11358,4.894791 0.13897,0.218281 0.4503,0.754063 0.69183,1.190625 2.2884,4.136234 6.91336,6.313369 10.64849,5.01263 z m -8.60464,-0.565632 c 0.10076,-0.100766 -0.40966,-0.785376 -1.13427,-1.521354 -1.87794,-1.907413 -3.67498,-5.502976 -5.09873,-10.201685 -0.67159,-2.216407 -1.26964,-5.183627 -1.27004,-6.301248 -1.7e-4,-0.48251 -0.11343,-1.088663 -0.2517,-1.347005 -0.13826,-0.258344 -0.27732,-0.994656 -0.30903,-1.636252 -0.0317,-0.641596 -0.14323,-1.406729 -0.24783,-1.700297 -0.1046,-0.293566 -0.26521,-1.511504 -0.3569,-2.7065235 -0.0917,-1.1950225 -0.26622,-2.4431124 -0.38785,-2.7735351 -0.12161,-0.330419 -0.23612,-1.075975 -0.25445,-1.656791 -0.0183,-0.580814 -0.14594,-1.35472 -0.28358,-1.719792 -0.13765,-0.365069 -0.39029,-1.289267 -0.56144,-2.05377 -0.59385,-2.652681 -3.50427,-4.327147 -6.01442,-3.460316 -1.8384,0.634854 -4.85588,3.157183 -9.57166,8.001016 -9.91186,10.1809946 -12.91738,13.1211796 -13.41277,13.1211796 -0.28969,0 -0.75783,0.179105 -1.0403,0.39801 -0.49983,0.387348 -0.49233,0.416306 0.28016,1.080831 0.43656,0.375553 1.15094,0.840894 1.5875,1.034095 0.43656,0.193202 1.08239,0.659329 1.43518,1.035836 0.35279,0.37651 0.78266,0.684562 0.95527,0.684562 0.17261,0 0.77693,0.317418 1.34294,0.705371 1.18853,0.814639 5.4732,2.963762 7.85981,3.94235 0.89978,0.368943 2.02292,0.843354 2.49586,1.054248 2.05803,0.917721 2.68959,1.152258 4.56406,1.694937 1.09141,0.31597 2.2225,0.683217 2.51355,0.816102 1.37819,0.629261 8.03165,2.374889 9.57936,2.51328 0.46646,0.04171 0.95327,0.140827 1.0818,0.220263 0.12853,0.07944 0.87797,0.207483 1.66543,0.284548 0.78746,0.07707 1.78893,0.25027 2.22549,0.384895 0.96919,0.298876 2.35967,0.355936 2.60856,0.107045 z m 63.8554,-6.933697 c 0.79132,-0.03645 3.25375,-2.529208 3.25375,-3.293817 0,-0.327768 0.0988,-0.709051 0.21947,-0.847296 0.76533,-0.87653 1.39751,-9.188035 0.99514,-13.083646 -0.0526,-0.509323 -0.17798,-1.7594794 -0.2786,-2.7781253 -0.22077,-2.2349933 -0.7384,-5.1577343 -1.43839,-8.12174331 -0.28537,-1.20835399 -0.57693,-2.55419499 -0.64792,-2.99075699 -0.071,-0.436563 -0.2497,-1.210469 -0.39715,-1.719792 -0.61575,-2.126967 -1.35694,-5.191466 -1.35984,-5.6223964 -0.005,-0.808871 -0.55221,-0.511376 -2.55288,1.3890634 -1.07237,1.018646 -2.11087,1.852083 -2.30779,1.852083 -0.19691,0 -0.89054,0.406599 -1.54138,0.903552 -0.65084,0.496954 -1.59069,1.089875 -2.08856,1.317599 -0.49788,0.227724 -1.08382,0.530979 -1.3021,0.673896 -0.81962,0.536649 -3.35881,1.59099 -4.7625,1.977528 -0.80037,0.220395 -2.34818,0.717018 -3.43958,1.103603 -2.1134996,0.74861999 -2.8388396,0.95705699 -5.5562496,1.59664999 -1.94599,0.458025 -2.47313,0.547568 -3.50573,0.59549001 -1.14934,0.05334 -0.87176,0.691332 0.78312,1.799891 1.37714,0.92252 2.95469,2.697166 5.6983,6.4102567 0.47342,0.6407097 1.7974996,2.3671159 2.9423996,3.8364589 1.14489,1.469345 2.18166,2.90966 2.30393,3.200701 0.12226,0.291042 0.64169,1.064948 1.15428,1.719792 0.5126,0.654844 1.49339,1.964531 2.17954,2.910417 1.42967,1.970841 4.94414,5.55625 5.44632,5.55625 0.18562,0 0.75209,0.279501 1.25881,0.621112 1.2453,0.839533 2.3252,1.183629 3.43486,1.094475 0.50932,-0.04092 1.18826,-0.08648 1.50875,-0.101245 z m 6.30166,-3.06677 c 0.87026,-0.653314 1.74545,-1.189095 1.94485,-1.190625 0.3656,-0.0028 4.33318,-3.355808 6.7812,-5.73079 2.07023,-2.008468 4.44439,-4.840214 5.05099,-6.024499 0.30419,-0.593882 0.86973,-1.65163 1.25677,-2.3505535 0.38703,-0.698926 0.7037,-1.4489775 0.7037,-1.6667851 0,-0.2178077 0.16632,-0.7176479 0.3696,-1.1107553 0.20329,-0.3931077 0.45513,-1.3992247 0.55966,-2.2358197 l 0.19004,-1.521079 h -0.90283 c -1.14731,0 -2.23154,-1.092062 -4.3049,-4.335978 -0.82666,-1.293384 -1.64393,-2.500487 -1.81616,-2.682455 -0.74372,-0.785817 -1.23916,-1.473004 -1.23916,-1.718741 0,-0.592645 -4.18077,-4.5942414 -5.80977,-5.5607884 -1.80909,-1.073398 -4.25528,-1.805265 -5.8319,-1.744829 -0.78191,0.02998 -0.99543,0.179631 -1.37185,0.961541 -0.35893,0.745548 -0.39556,1.158105 -0.18799,2.1166674 0.14181,0.654843 0.30495,1.42875 0.36254,1.719791 0.10215,0.516343 0.5387,1.847864 0.95418,2.910417 0.20265,0.51825 0.85249,3.724146 1.28715,6.35 0.12044,0.727605 0.34271,1.799167 0.49393,2.38125 0.15122,0.582084 0.33778,1.713178 0.41458,2.513542 0.0768,0.8003648 0.2685,2.5863024 0.42601,3.9687506 0.272,2.387214 0.33693,5.980644 0.14251,7.887279 -0.0491,0.481701 -0.17394,1.731857 -0.27738,2.778126 -0.10343,1.046265 -0.46268,2.635903 -0.79833,3.532526 -0.88067,2.352601 -0.66333,2.454833 1.60256,0.753808 z M -74.11064,17.736228 c 0.74869,-0.207971 3.03115,-2.321693 10.58333,-9.8009399 8.90205,-8.81606771 11.18098,-10.8330417 12.23997,-10.8330417 0.22016,0 0.47593,-0.122389 0.56839,-0.271976 0.2024,-0.327502 -0.89306,-1.294339 -1.48057,-1.306722 -0.39607,-0.0084 -1.42948,-0.606684 -3.81567,-2.209252 -2.31818,-1.556893 -5.35264,-4.1429844 -6.4509,-5.4977254 -0.63758,-0.786474 -1.53055,-1.87715 -1.98438,-2.423726 -0.45382,-0.546576 -1.18233,-1.824741 -1.61889,-2.840366 -0.43656,-1.015627 -0.87324,-1.84835 -0.97039,-1.850495 -0.20798,-0.0046 -0.3282,0.219008 -3.85825,7.176066 -1.49159,2.9396354 -2.71198,5.5390024 -2.71198,5.7763704 0,0.237366 -0.10427,0.544685 -0.23171,0.68293 -0.33786,0.366493 -2.19666,4.594698 -2.4331,5.53455099 -0.111,0.441222 -0.51776,1.87378201 -0.9039,3.18347001 -1.14797,3.8935633 -1.52908,5.9391338 -1.61686,8.6781506 -0.0871,2.719345 0.0406,3.310729 1.11199,5.146329 0.58565,1.003435 0.7619,1.12432 1.63733,1.123003 0.53957,-7.94e-4 1.41059,-0.120793 1.93559,-0.266626 z m -5.90566,-4.708383 c -0.14312,-0.518329 -0.19318,-1.366835 -0.11124,-1.885569 0.0819,-0.518736 0.22524,-1.7170608 0.31845,-2.6629463 0.0932,-0.9458854 0.26031,-1.8983853 0.37133,-2.1166663 0.11103,-0.218282 0.28414,-0.852247 0.38469,-1.408814 0.2202,-1.218912 2.23781,-7.343138 2.54524,-7.725799 0.11978,-0.149088 0.40977,-0.863463 0.64442,-1.5875 0.40488,-1.249286 1.94645,-4.668796 3.06231,-6.7928074 0.28272,-0.538152 0.51403,-1.110017 0.51403,-1.270807 0,-0.160793 0.29766,-0.730388 0.66146,-1.265772 0.3638,-0.535382 0.66146,-1.14477 0.66146,-1.354191 0,-0.209423 0.16191,-0.568738 0.35979,-0.798478 1.13909,-1.322456 2.97651,-5.568858 2.71008,-6.263175 -0.20351,-0.530344 -1.23588,-0.449804 -2.01154,0.156925 -0.3638,0.28457 -0.79902,0.520046 -0.96715,0.523282 -0.16813,0.0032 -0.77615,0.392838 -1.35114,0.86578 -0.575,0.472943 -1.34593,1.098021 -1.71318,1.389063 -2.55395,2.02397 -3.95494,3.637309 -5.28446,6.085417 -0.96689,1.780381 -3.16241,6.3851454 -4.03684,8.4666674 -0.24453,0.582083 -0.63146,1.426668 -0.85984,1.876854 -0.62833,1.23857 -0.34181,7.762663 0.45208,10.2939796 0.31948,1.0186459 0.68879,1.9651928 0.8207,2.1034376 0.13191,0.1382448 0.23983,0.4565304 0.23983,0.7073024 0,0.250775 0.29766,0.809697 0.66146,1.24205 0.3638,0.432355 0.66191,0.887973 0.66245,1.012489 5.5e-4,0.124513 0.24906,0.633312 0.55227,1.130665 0.67829,1.112626 1.10155,0.684593 0.71334,-0.721387 z M -7.4641496,1.2132204 c 4.42262,-0.161018 9.81195,-0.99754601 14.41979,-2.238222 4.7302496,-1.273635 6.3320896,-1.786175 7.6031796,-2.432788 0.25269,-0.128543 0.66941,-0.235709 0.92605,-0.238146 0.25663,-0.0024 1.41911,-0.476692 2.58327,-1.053902 1.16417,-0.57721 2.20187,-1.051465 2.306,-1.053901 0.10414,-0.0024 1.23523,-0.676963 2.51355,-1.498947 2.75102,-1.76897 8.60516,-7.4827404 9.24908,-9.0273244 0.22644,-0.543145 0.61537,-1.285193 0.86431,-1.648995 0.67617,-0.988176 1.60353,-4.090043 1.60348,-5.363369 -8e-5,-1.904021 -0.75716,-5.193729 -1.49444,-6.493711 -1.68599,-2.972745 -6.58216,-7.094242 -11.99927,-10.100731 -4.3591,-2.4193 -6.71097,-3.610362 -8.73125,-4.421802 -1.23692,-0.496805 -2.7536796,-1.134478 -3.3705496,-1.417045 -0.61688,-0.282567 -1.3031,-0.51376 -1.52495,-0.51376 -0.22184,0 -0.61009,-0.105058 -0.86278,-0.233463 -0.53671,-0.272738 -2.19573,-0.720021 -6.41254997,-1.728871 -4.86386003,-1.16365 -15.05795043,-2.157116 -15.45996043,-1.506651 -0.1,0.1618 -0.25266,2.199139 -0.33925,4.527417 -0.11876,3.192981 -0.2411,4.233235 -0.49788,4.233235 -0.64951,0 -0.76865,-0.681204 -0.79002,-4.517054 -0.0118,-2.120577 -0.11153,-4.001313 -0.2216,-4.179412 -0.25584,-0.413961 -5.3047,-0.138655 -9.5465,0.520554 -3.47461,0.539983 -9.93745,1.950846 -10.63463,2.32158 -0.26283,0.139761 -1.19225,0.457224 -2.06537,0.705472 -0.87313,0.248248 -2.36141,0.79893 -3.30729,1.22374 -0.94589,0.42481 -2.07698,0.930341 -2.51354,1.123402 -1.62039,0.71659 -4.65992,2.263355 -5.22374,2.658272 -0.3204,0.224417 -0.7557,0.40803 -0.96733,0.40803 -0.36575,0 -2.07507,1.049131 -4.39227,2.695847 -0.58208,0.413658 -1.62388,1.135266 -2.3151,1.603576 -0.69123,0.46831 -1.25677,0.942676 -1.25677,1.054151 0,0.111471 -0.15972,0.202676 -0.35494,0.202676 -0.19521,0 -1.05842,0.755785 -1.91823,1.679519 -2.25964,2.427645 -2.65448,2.947445 -3.29924,4.34348 -0.3183,0.689173 -0.75009,1.581869 -0.95954,1.983769 -0.23897,0.458528 -0.39687,1.641221 -0.42389,3.175 -0.0359,2.038863 0.0735,2.776064 0.65957,4.44468 1.35952,3.870584 5.19026,8.569524 9.16649,11.2439964 3.36678,2.264547 6.75811,4.114255 9.29124,5.067649 0.95104,0.357942 1.84823,0.743731 1.99375,0.857308 0.14552,0.113578 0.56224,0.26941 0.92604,0.346292 0.3638,0.07688 1.55442,0.372933 2.64583,0.65789 1.09141,0.284956 2.75828,0.66568899 3.70417,0.84607099 0.94588,0.180385 2.01745,0.432041 2.38125,0.559236 0.3638,0.127196 1.3163,0.291301 2.11666,0.364676 0.80037,0.07338 2.16959,0.258884 3.04271,0.412239 0.87313,0.153355 2.94581,0.33450501 4.60596,0.40255601 1.66015,0.06805 3.08801,0.193288 3.17303,0.278307 0.13786,0.137866 7.46671,0.0057 15.1074704,-0.272526 z m 59.7508196,0.04431 c 0.64558,-0.77787301 -1.40104,-8.879589 -2.72064,-10.769868 -0.32026,-0.458774 -0.52297,-0.8285084 -1.74072,-3.1750004 -0.49088,-0.945886 -1.20926,-2.136511 -1.5964,-2.645834 -0.38714,-0.509322 -0.91502,-1.34276 -1.17307,-1.852083 -0.25805,-0.509323 -0.83991,-1.359546 -1.29302,-1.889382 -0.45311,-0.529836 -1.38493,-1.720461 -2.0707,-2.645833 -0.68578,-0.925372 -1.52091,-1.98015 -1.85584,-2.343952 -0.33494,-0.363802 -1.37395,-1.592056 -2.30892,-2.729455 -1.73597,-2.111838 -2.94031,-3.122377 -2.53846,-2.12997 0.37092,0.91598 0.93862,3.925438 0.93862,4.975691 0,1.442807 -0.51427,4.107138 -0.95577,4.95164 -0.20193,0.386255 -0.36715,0.837438 -0.36715,1.002626 0,0.16519 -0.41672,0.919136 -0.92604,1.675437 -0.50932,0.7563 -0.92604,1.45226 -0.92604,1.546576 0,0.09432 0.67618,0.255966 1.50261,0.359223 0.82644,0.103256 1.77802,0.368191 2.11463,0.588743 0.3366,0.220554 0.78033,0.336412 0.98606,0.257466 0.20574,-0.07895 0.57824,0.08207 0.82779,0.357822 0.24955,0.275752 0.83887,0.628473 1.3096,0.783828 1.14419,0.377614 5.69473,5.0946664 5.69473,5.9031014 0,0.186319 0.54974,0.869569 1.22166,1.51833 0.67191,0.648763 1.49633,1.760969 1.83203,2.471568 0.69755,1.476531 2.88994,4.131958 3.41145,4.131958 0.19207,0 0.47719,-0.154183 0.63359,-0.342632 z M -71.26277,-22.85158 c 0.98444,-0.642625 2.13896,-1.208172 2.56561,-1.256771 0.72471,-0.08255 0.81474,-0.22562 1.36915,-2.175653 0.32639,-1.148008 0.72792,-2.249336 0.89229,-2.447396 0.16438,-0.198059 0.18972,-0.360105 0.0563,-0.360105 -0.35492,0 -2.24315,1.815078 -4.75803,4.573704 -2.95095,3.236957 -2.97261,3.524869 -0.12534,1.666221 z"
       id="path854" />
    <text
       xml:space="preserve"
       transform="matrix(0.26458333,0,0,0.26458333,-89.96645,-74.070674)"
       id="text6256"
       style="font-style:normal;font-weight:normal;font-size:40px;line-height:1.25;font-family:sans-serif;white-space:pre;shape-inside:url(#rect6258);fill:#000000;fill-opacity:1;stroke:none" />
    <text
       xml:space="preserve"
       style="font-style:normal;font-weight:normal;font-size:10.5833px;line-height:1.25;font-family:sans-serif;fill:#000000;fill-opacity:1;stroke:none;stroke-width:0.264583"
       x="-40.252647"
       y="-62.012966"
       id="text7518"><tspan
         sodipodi:role="line"
         id="tspan7516"
         style="stroke-width:0.264583"
         x="-40.252647"
         y="-62.012966">$\mathbf{e}_z$</tspan></text>
    <text
       xml:space="preserve"
       style="font-style:normal;font-weight:normal;font-size:10.5833px;line-height:1.25;font-family:sans-serif;fill:#000000;fill-opacity:1;stroke:none;stroke-width:0.264583"
       x="-3.5338159"
       y="110.94388"
       id="text7518-7"><tspan
         sodipodi:role="line"
         id="tspan7516-5"
         style="stroke-width:0.264583"
         x="-3.5338159"
         y="110.94388">$\mathbf{e}_z$</tspan></text>
    <text
       xml:space="preserve"
       style="font-style:normal;font-weight:normal;font-size:10.5833px;line-height:1.25;font-family:sans-serif;fill:#000000;fill-opacity:1;stroke:none;stroke-width:0.264583"
       x="47.911842"
       y="-54.153458"
       id="text15562"><tspan
         sodipodi:role="line"
         id="tspan15560"
         style="stroke-width:0.264583"
         x="47.911842"
         y="-54.153458">$\theta_1$</tspan></text>
    <text
       xml:space="preserve"
       style="font-style:normal;font-weight:normal;font-size:10.5833px;line-height:1.25;font-family:sans-serif;fill:#000000;fill-opacity:1;stroke:none;stroke-width:0.264583"
       x="71.334885"
       y="-22.506905"
       id="text17612"><tspan
         sodipodi:role="line"
         id="tspan17610"
         style="stroke-width:0.264583"
         x="71.334885"
         y="-22.506905">$\theta_2$</tspan></text>
  </g>
</svg>
