<?xml version="1.0" encoding="UTF-8" standalone="no"?>
<!-- Created with Inkscape (http://www.inkscape.org/) -->

<svg
   width="253.58437mm"
   height="168.30443mm"
   viewBox="0 0 958.42913 636.11123"
   version="1.1"
   id="svg5"
   inkscape:version="1.1.1 (3bf5ae0d25, 2021-09-20, custom)"
   sodipodi:docname="sigma.svg"
   xmlns:inkscape="http://www.inkscape.org/namespaces/inkscape"
   xmlns:sodipodi="http://sodipodi.sourceforge.net/DTD/sodipodi-0.dtd"
   xmlns="http://www.w3.org/2000/svg"
   xmlns:svg="http://www.w3.org/2000/svg">
  <sodipodi:namedview
     id="namedview7"
     pagecolor="#ffffff"
     bordercolor="#666666"
     borderopacity="1.0"
     inkscape:pageshadow="2"
     inkscape:pageopacity="0.0"
     inkscape:pagecheckerboard="0"
     inkscape:document-units="mm"
     showgrid="false"
     inkscape:zoom="0.78615037"
     inkscape:cx="597.85"
     inkscape:cy="244.8641"
     inkscape:window-width="1920"
     inkscape:window-height="1050"
     inkscape:window-x="0"
     inkscape:window-y="30"
     inkscape:window-maximized="1"
     inkscape:current-layer="layer1" />
  <defs
     id="defs2">
    <rect
       x="196.88217"
       y="420.34302"
       width="315.60902"
       height="80.471495"
       id="rect7409" />
  </defs>
  <g
     inkscape:label="Layer 1"
     inkscape:groupmode="layer"
     id="layer1"
     transform="translate(146.5911,-505.88392)">
    <path
       id="path683"
       style="fill:#000000"
       d="m 675.14132,505.91511 c -6.75337,0.28115 -23.33561,4.11837 -25.11914,5.81247 -1.85317,1.7602 -0.6906,4.4727 1.91602,4.4727 4.54116,0 2.46634,1.3214 -41.5293,26.4922 -13.2,7.552 -24.49654,14.1325 -25.10547,14.623 -0.60893,0.4904 -5.03992,2.9141 -9.8457,5.3867 -4.80577,2.4726 -9.93229,5.3416 -11.39258,6.375 -1.46029,1.0334 -6.2491,3.7902 -10.64062,6.125 -4.39163,2.3348 -9.55888,5.314 -11.48243,6.6211 -1.92355,1.3071 -3.873,2.377 -4.33203,2.377 -0.45902,0 -2.26678,1.0608 -4.01758,2.3574 -1.7508,1.2967 -4.53359,3.0385 -6.18359,3.8711 -5.99596,3.0257 -45.81171,25.9316 -56.73047,32.6367 -3.70256,2.2737 -6.97328,4.1348 -7.26758,4.1348 -0.2943,0 -3.78944,1.9433 -7.76758,4.3203 -3.97804,2.377 -11.50937,6.827 -16.73437,9.8887 -55.8876,32.7483 -66.97702,39.2729 -70,41.1875 -10.32382,6.5385 -63.97601,20.1697 -96.81445,24.5957 -4.5738,0.6165 -8.8488,1.3106 -9.5,1.5429 -1.44332,0.515 -37.12101,5.0025 -55.68555,7.004 -25.52321,2.7508 -65.53977,5.5798 -105.5,7.455 -22.190653,1.0412 -128.997288,0.2211 -136.365228,-1.0468 -2.95119,-0.5079 -5.78585,-0.662 -6.30079,-0.3438 -0.51494,0.3183 -22.62588,0.7984 -49.13476,1.0684 -26.508882,0.2699 -48.594552,0.8738 -49.080082,1.3418 -0.48553,0.4679 -0.61397,1.5559 -0.2832,2.4179 0.6219,1.6206 -1.35422,1.5656 72.318362,2.0117 5.03457,0.03 9.26418,0.2817 9.39843,0.5567 0.49808,1.0203 -3.94261,8.5775 -6.37109,10.8437 l -2.51367,2.3457 -35.333992,0.5118 c -19.43366,0.2814 -35.72931,0.8838 -36.21484,1.3379 -1.84074,1.7207 0.30154,3.9609 3.79102,3.9609 4.71909,0 10.81422,-1.9483 2.18554,5.8613 -1.85804,1.6817 -2.5957,4.5225 -2.5957,5.4727 0,2.2424 2.78061,3.2847 5.02539,1.8828 0.96785,-0.6044 2.03289,-0.8264 2.36719,-0.4922 1.0286,1.0287 0.70119,74.2754 -0.33203,74.2754 -0.51754,0 -1.22063,-0.45 -1.56055,-1 -0.92072,-1.4897 -5.42196,-1.2933 -5.09961,0.4023 0.48677,2.5605 -1.04717,1.6592 2.13282,6.1295 3.75344,5.2764 5.40655,4.8883 4.94949,5.3449 -0.45706,0.4566 -8.1327,0.157 -11.9827,0.3225 -6.70032,0.2881 -7,0.4061 -7,2.7754 0,2.3958 0.24095,2.4825 7.5,2.6777 4.125,0.1109 17.02566,0.4661 28.66602,0.7891 18.504312,0.5135 21.363582,0.3864 22.750002,-1 0.87214,-0.8721 1.58398,-2.2121 1.58398,-2.9785 0,-3.0289 -4.38318,-3.4497 -18.240922,-2.8622 l -15.68284,0.6648 c 3.12236,-1.8141 4.41392,-5.1698 5.09214,-7.3509 1.76491,-4.3426 0.0887,-6.9244 -3.64494,-4.9263 -1.38528,0.7414 -2.63316,1.1597 -2.77149,0.9297 -0.13833,-0.23 -0.0269,-17.068 0.24805,-37.418 l 0.5,-37 2.75391,0.3203 c 3.82814,0.4477 4.508,-2.0716 1.92773,-7.1523 -1.15777,-2.2797 -3.58445,-5.1041 -3.11756,-5.571 0.46689,-0.4669 6.02272,0.014 10.07264,0.362 4.04992,0.3483 14.675782,0.5635 23.613282,0.4765 14.00384,-0.1364 16.25,0.054 16.25,1.375 0,0.8434 -1.35,5.5025 -3,10.3536 -1.65,4.8501 -3,9.8307 -3,11.0664 0,1.2356 -0.87367,5.5141 -1.94336,9.5078 -2.17638,8.1253 -4.28238,25.1544 -4.60742,37.2617 -0.11812,4.4 -0.71778,10.4223 -1.33203,13.3848 -1.3503,6.5126 -1.46675,28.6804 -0.19922,37.9238 0.50467,3.6803 1.42853,12.5414 2.05273,19.6914 1.92092,22.0035 4.00568,32.8407 9.71094,50.498 4.75353,14.7118 9.61513,24.0649 15.45313,29.7305 10.56577,10.2537 18.79239,9.7197 29.93554,-1.9434 5.072506,-5.3092 7.353071,-8.6664 9.361331,-13.7851 1.46031,-3.7221 3.497363,-7.5308 4.527343,-8.4629 1.76025,-1.593 2.027885,-1.5929 4.4589854,0 1.82787,1.1977 5.486365,8.2073 5.333984,0.9219 -0.03283,-1.5698 11.298046,-1.0409 21.7480466,-1.3672 18.13556,-0.5664 19,-0.6827 19,-2.5918 0,-1.9103 -0.832999,-2.0224 -18.599609,-2.5 -13.6616106,-0.3672 -20.19510157,-0.2991 -20.24414057,-1.8692 -0.189982,-6.0828 -4.20877303,-1.2015 -8.03320303,0.3965 -2.1840104,0.9126 -2.2323714,1.3913 1.849609,-18.5273 3.32843,-16.2415 5.289668,-32.3486 6.14843803,-50.5235 0.50442,-10.6745 1.081119,-15.0362 2.13085897,-16.0859 1.241,-1.2406 19.5063826,-1.4095 132.0957046,-1.2246 134.74231,0.2212 180.41549,0.7542 181.78125,2.125 0.43403,0.4356 1.03235,2.9106 1.33007,5.5 0.4439,3.8608 0.90088,4.709 2.54102,4.709 1.65498,0 2.05655,-0.7731 2.32031,-4.4805 0.56755,-7.9774 -5.74668,-7.4263 74.67969,-6.5176 39.6,0.4474 76.91313,0.8533 82.91602,0.9043 11.14887,0.094 12.78915,-0.477 10.34765,-3.6074 -1.67376,-2.146 -38.60731,-2.579 -292.57812,-3.4258 -155.406871,-0.5181 -194.5707446,-0.9027 -195.5898446,-1.9218 -0.85994997,-0.86 -1.48104597,-6.2842 -1.91015597,-16.6836 -1.08773003,-26.3611 -4.85952303,-51.2065 -10.78906343,-71.0743 -2.01259,-6.7435 -2.130511,-7.9351 -0.863281,-8.748 0.86913,-0.5575 22.864196,-0.9419 53.966797,-0.9414 31.463873,5e-4 64.119948,-0.5741 81.499998,-1.4336 36.83233,-1.8216 86.05227,-5.2083 94.5,-6.502 3.575,-0.5475 12.35,-1.7016 19.5,-2.5664 42.19161,-5.1033 78.86822,-17.7051 123.19531,-42.33 5.94422,-3.3021 15.3126,-7.1166 26.5,-10.7871 37.12915,-12.1816 65.04209,-21.5274 81.80469,-27.3907 31.59798,-11.0527 51.01893,-17.2012 52.51563,-16.6269 1.11021,0.4261 1.24323,1.1254 0.53515,2.8476 -1.3744,3.3429 -6.05078,18.9287 -6.05078,20.168 0,0.5833 -0.86135,3.9974 -1.91602,7.5879 -1.05468,3.5905 -2.43341,9.2293 -3.0625,12.5293 -0.62909,3.3 -1.74925,8.025 -2.49023,10.5 -0.74099,2.475 -1.86581,8.1 -2.49805,12.5 -0.63223,4.4 -1.38716,9.125 -1.67773,10.5 -0.51067,2.4166 -1.07578,6.52 -3.24219,23.5 -0.56137,4.4 -1.44462,10.025 -1.96289,12.5 -0.51827,2.475 -1.44408,11.7 -2.05664,20.5 -0.61256,8.8 -1.60527,22.3 -2.20703,30 -1.26812,16.2266 -0.64603,91.127 0.94336,113.5 0.56655,7.975 1.32316,18.55 1.67969,23.5 0.35654,4.95 1.08021,11.025 1.60937,13.5 0.52916,2.475 1.39933,8.325 1.93359,13 0.53426,4.675 1.40284,11.2 1.92969,14.5 2.95872,18.53252 4.99146,29.83872 5.88672,32.73242 0.55588,1.7968 1.5228,5.9676 2.14844,9.2676 0.62564,3.3 1.77812,8.1876 2.56055,10.8633 0.78232,2.6756 1.42187,5.6472 1.42187,6.6035 0,0.9564 1.83029,7.2502 4.06641,13.9863 2.23612,6.736 3.82668,12.4879 3.5332,12.7813 -0.29348,0.2935 0.18067,2.6278 -3.53516,-0.709 -1.82483,-1.6387 -5.88101,-8.0583 -6.18164,-0.1348 -0.0745,1.9639 -10.41863,1.1094 -20.5625,1.1094 -14.85966,0 -17.47024,0.2266 -17.98437,1.5664 -1.28791,3.3562 1.39625,3.9263 20.14453,4.2773 16.5213,0.3094 20.18843,-0.057 20.09766,2.2403 -0.24563,6.2164 2.9792,3.2513 4.95703,-0.1055 3.88852,-6.5996 3.61093,-4.5398 4.6914,-1.4453 0.28196,0.8076 2.95177,4.0241 4.78321,8.2617 1.83145,4.2376 4.43908,9.7301 5.79492,12.2051 1.35585,2.475 4.03352,7.425 5.95117,11 10.38942,19.3686 23.52693,31.5734 37.21875,34.5801 8.05755,1.7695 10.9626,1.6599 18.11133,-0.6856 9.74464,-3.1973 10.93093,-4.0445 19.99609,-14.2558 8.1631,-9.1952 14.55153,-18.198 18.13477,-25.5606 0.95792,-1.9683 2.16056,-4.2531 2.67187,-5.0781 1.23521,-1.993 8.38744,-20.0603 13.06446,-33 5.13952,-14.2194 13.6495,-51.0076 17.51953,-75.73632 1.31147,-8.3801 2.62865,-16.0301 2.92578,-17 0.29713,-0.97 1.46698,-11.8887 2.60156,-24.2637 1.13458,-12.375 2.25018,-23.175 2.47852,-24 0.22833,-0.825 0.92168,-15.225 1.54101,-32 0.7656,-20.7369 1.5042,-30.8651 2.30469,-31.6387 0.84026,-0.8119 16.49103,-1.2414 54.66211,-1.5 l 53.48437,-0.3613 1.32032,2.75 c 0.72596,1.5125 1.83379,2.75 2.46289,2.75 2.57717,0 18.3533,-5.2699 19.71093,-6.584 1.28571,-1.2444 1.28571,-1.5876 0,-2.8242 -1.38235,-1.3295 -16.73263,-6.5918 -19.22851,-6.5918 -0.63844,0 -2.12728,1.2118 -3.3086,2.6933 l -2.14648,2.6934 -23.67188,0.4336 c -20.94523,0.3829 -23.88155,0.2431 -25.48828,-1.2109 -1.55117,-1.4038 -1.91411,-4.01 -2.49804,-17.877 -3.21889,-76.4416 -26.83618,-149.0874 -69.39844,-213.4648 -4.44762,-6.7272 -9.6646,-14.1236 -8.40625,-14.9258 7.65266,-4.8786 0.5619,-5.5493 -1.55797,-5.6893 -16.29502,-0.7758 14.11582,-9.7776 16.36852,-10.5685 18.18503,-6.3588 17.74405,-6.295 17.81445,-2.584 0.0984,5.1895 3.16209,4.1729 14.55664,-4.8242 8.20615,-6.4795 10.5,-8.823 10.5,-10.7325 v -2.4433 l -10,0.2988 c -5.5,0.1649 -12.475,0.6149 -15.5,1 -4.59994,0.5856 -5.5,1.0285 -5.5,2.7012 0,1.5207 0.83884,2.1228 3.5,2.5156 3.83708,0.5662 6.70886,-0.6153 -30.5,12.5586 -7.15,2.5315 -15.35085,5.4624 -18.22461,6.5137 -2.87376,1.0513 -5.95297,1.9121 -6.84375,1.9121 -0.89077,0 -4.82337,-3.4875 -8.73828,-7.75 -3.91492,-4.2625 -9.01043,-9.5718 -11.32422,-11.7969 -4.24947,-4.0867 -12.56152,-8.7457 -17.61914,-9.8769 -1.5125,-0.3383 -2.75,-1.0254 -2.75,-1.5274 0,-1.1933 4.49614,-4.3585 12.80078,-9.0097 3.6853,-2.0646 17.41724,-9.9387 30.51563,-17.4981 22.00707,-12.7009 26.99546,-15.031 23.71484,-11.0781 -1.63462,1.9696 -0.61115,4.5371 1.80859,4.5371 1.93549,0 4.18189,-2.1415 15.10352,-14.4004 7.48512,-8.4016 7.53732,-10.18651 0.28906,-9.88477 z m -89.78515,66.29687 c 6.34033,0.012 7.77796,0.4163 14.21484,3.9863 3.9389,2.1846 8.2139,5.3449 9.5,7.0235 1.2861,1.6787 4.13789,5.2134 6.33789,7.8554 2.2,2.6421 5.35,6.9672 7,9.6114 1.65,2.6442 4.00626,6.4293 5.23437,8.4101 5.70407,9.1993 15.92003,35.1423 19.81641,50.3223 9.02317,35.1535 13.31284,54.2956 13.89453,62.0137 0.36211,4.8046 1.31047,11.2391 2.10742,14.2988 0.79694,3.0596 1.4549,8.5799 1.4629,12.2656 0.008,3.6857 0.67582,9.5063 1.48437,12.9356 0.94342,4.0012 1.83779,16.7193 2.49609,35.5 0.56419,16.0958 1.46426,32.8656 2,37.2656 0.64042,5.2597 0.63022,10.9117 -0.0293,16.5 -0.55164,4.675 -0.91885,16.825 -0.81641,27 0.18027,17.905 -1.97248,55.6513 -4.04883,71 -0.55802,4.125 -1.26121,10.425 -1.56445,14 -0.5373,6.3345 -2.15293,15.56 -5.11914,29.2344 -0.80353,3.7043 -2.09456,10.95822 -2.86914,16.11712 -0.77459,5.1599 -2.56533,12.8254 -3.97852,17.0352 -1.4132,4.2098 -2.57031,9.3068 -2.57031,11.3262 0,8.68 -9.80527,34.065 -24.35156,63.0429 -8.39893,16.7317 -19.96686,28.2466 -33.02344,32.8711 -6.28655,2.2266 -14.45946,1.7566 -20.32813,-1.1679 -6.65052,-3.3141 -19.82903,-17.1714 -23.79687,-25.0235 -1.65,-3.2652 -4.01618,-7.6224 -5.25977,-9.6836 -1.24359,-2.0612 -2.96901,-5.8862 -3.83398,-8.5 -0.86497,-2.6138 -2.86001,-7.4519 -4.43359,-10.7519 -3.21819,-6.7489 -12.97266,-35.2629 -12.97266,-37.9219 0,-0.9497 -1.16322,-5.1804 -2.58594,-9.4023 -1.42273,-4.222 -3.27011,-11.0508 -4.10547,-15.1758 -0.83536,-4.125 -1.94754,-9.3 -2.4707,-11.5 -6.16577,-25.92822 -14.25193,-113.15402 -13.2793,-143.23442 1.81024,-55.9849 2.6095,-74.8336 3.4668,-81.7656 1.0436,-8.4384 3.15927,-24.3298 5.45898,-41 0.75878,-5.5 1.65736,-13.15 1.99805,-17 0.3407,-3.85 1.27885,-9.25 2.08399,-12 2.36547,-8.0794 5.43359,-21.6004 5.43359,-23.9414 0,-4.9509 11.52374,-42.5717 15.94531,-52.0586 1.53804,-3.3 3.11217,-7.35 3.5,-9 1.0337,-4.3978 10.13317,-20.8361 13.57032,-24.5156 1.62904,-1.744 4.19231,-5.4319 5.69531,-8.1934 2.34269,-4.3043 9.71286,-11.791 11.60742,-11.791 0.33676,0 2.74197,-1.35 5.34375,-3 4.11257,-2.6081 5.65242,-3.0003 11.78516,-2.9883 z m -35.44727,14.127 -3.18945,4.6386 c -5.03509,7.3182 -15.95275,28.5485 -17.125,33.3008 -0.87726,3.5564 -4.94651,7.7044 -8.34961,8.5137 -3.29288,0.783 -17.3399,5.4149 -35.83594,11.8144 -7.15,2.4739 -19.525,6.734 -27.5,9.4668 -7.975,2.7327 -16.975,5.8607 -20,6.9532 -3.025,1.0924 -11.937,4.0539 -19.80469,6.58 -7.86768,2.5262 -14.84268,4.5786 -15.5,4.5606 -2.91069,-0.081 3.74184,-4.2181 49.30469,-30.6602 18.975,-11.012 37.425,-21.816 41,-24.0078 3.575,-2.1918 11,-6.3532 16.5,-9.248 5.5,-2.8949 10.45,-5.6189 11,-6.0528 0.55,-0.4339 5.05,-2.9275 10,-5.541 4.95,-2.6136 9.94041,-5.5965 11.08984,-6.6289 1.14943,-1.0324 3.51192,-2.2847 5.25,-2.7832 z m 93.30664,12.1484 c 0.77749,0.2984 5.04644,-3.1636 1.84907,5.2212 -1.2163,3.1896 -0.93569,9.1864 3.49219,5.5039 3.43992,-2.8609 14.45228,15.4424 27.5103,38.9878 32.17176,58.0102 49.88649,117.4429 53.92969,180.9355 l 1.17383,18.4356 -2.24219,1.8144 c -2.02102,1.6365 -4.52368,1.8145 -25.50781,1.8145 -17.9789,0 -23.51414,-0.2988 -24.35547,-1.3125 -0.68042,-0.8199 -1.47265,-12.9155 -2.11328,-32.25 -0.5638,-17.016 -1.47705,-34.7625 -2.0293,-39.4375 -0.55225,-4.675 -1.69004,-15.633 -2.5293,-24.3496 -2.17533,-22.5942 -5.94816,-45.1227 -13.0039,-77.6504 -2.71319,-12.508 -6.82003,-25.9418 -14.67383,-48 -1.07705,-3.025 -3.94993,-9.7236 -6.38281,-14.8848 -2.43288,-5.1611 -4.42383,-9.9298 -4.42383,-10.5976 0,-1.5592 7.44678,-4.9442 9.30664,-4.2305 z m -50.875,9.8066 c -9.25427,-0.4446 -19.68089,6.3967 -28.74805,19.4063 -4.05799,5.8225 -5.25926,8.0327 -9.50976,17.5 -5.98587,13.3326 -9.5004,23.9365 -12.09766,36.5 -1.02331,4.95 -2.83304,12.15 -4.01953,16 -1.18649,3.85 -2.84739,10.15 -3.69141,14 -1.4797,6.7497 -1.85821,9.341 -4.25,29 -0.60224,4.95 -1.7408,12.375 -2.52929,16.5 -0.78849,4.125 -1.75147,14.475 -2.13867,23 -0.38721,8.525 -1.04164,16.175 -1.45508,17 -1.39536,2.7844 -1.87648,39.2563 -1.05469,80 0.77902,38.6231 2.86635,71.1407 5.19727,81 0.58513,2.475 1.41753,7.425 1.85156,11 0.89531,7.3745 3.76838,22.7905 4.45312,23.8984 0.24956,0.4038 0.91292,4.3993 1.47461,8.87892 0.56169,4.4795 1.75003,10.525 2.64063,13.4336 0.89059,2.9087 2.87632,9.3391 4.41406,14.2891 1.53773,4.95 3.80382,12.375 5.03516,16.5 3.30168,11.0607 6.87997,19.4027 11.62304,27.0957 2.32062,3.764 4.4805,7.6651 4.79883,8.668 0.90056,2.8375 8.54776,9.7346 14.07422,12.6933 4.30051,2.3023 5.8038,2.5988 10.74414,2.125 7.15725,-0.6866 11.75106,-2.5764 18.21094,-7.4902 5.21292,-3.9653 7.80319,-8.2796 15.65625,-26.0918 1.81864,-4.125 4.2485,-9.075 5.40039,-11 1.15188,-1.925 3.5036,-7.1124 5.22461,-11.5274 2.75026,-7.0552 3.63621,-10.8325 5.62695,-23.9726 0.24997,-1.65 1.34537,-6.375 2.43359,-10.5 5.82388,-22.07402 11.43136,-63.09382 13.25977,-97.00002 2.93094,-54.3513 2.88064,-97.411 -0.14648,-125 -0.5733,-5.225 -1.43466,-13.325 -1.91407,-18 -0.47942,-4.675 -1.55538,-12.325 -2.39062,-17 -0.83524,-4.675 -1.9753,-14.125 -2.5332,-21 -0.5579,-6.875 -1.65279,-14.525 -2.4336,-17 -0.78082,-2.475 -2.17371,-8.775 -3.09375,-14 -1.95562,-11.1062 -5.38209,-23.0107 -10.14258,-35.2285 -1.8705,-4.8007 -3.40234,-9.4037 -3.40234,-10.2285 0,-2.6557 -6.70608,-15.9042 -10.39844,-20.543 -1.97003,-2.475 -3.58679,-5.082 -3.59179,-5.793 -0.0144,-1.9195 -8.60122,-10.75 -13.8086,-14.1992 -2.72994,-1.8082 -5.68477,-2.7658 -8.76953,-2.9141 z m -4.37891,8.4883 c 11.35558,-1.2341 22.69892,11.0692 33.07032,36.5547 4.48936,11.0316 12.30095,36.3607 13.37304,43.3633 0.33682,2.2 1.52192,8.05 2.63477,13 3.64735,16.2235 3.86914,17.4821 3.86914,21.9668 0,2.4413 0.42982,5.4729 0.95508,6.7363 0.91309,2.1961 3.64767,27.5454 4.5625,42.2969 0.23876,3.85 0.91766,11.95 1.50781,18 1.72335,17.6671 2.37812,47.3089 1.08008,48.873 -1.60444,1.9332 -20.62507,2.6944 -73.10547,2.9278 -43.76735,0.1947 -44.5,0.2322 -44.5,2.1992 0,1.9607 0.90512,2.0135 46,2.7148 53.94381,0.8389 69.45294,1.4991 71.30859,3.0391 1.55808,1.2931 1.22219,24.1677 -0.66406,45.2461 -0.59061,6.6 -1.33396,15.825 -1.65234,20.5 -1.36742,20.0793 -2.84774,33.2805 -5.49414,49 -0.50926,3.025 -1.20187,7.975 -1.53907,11 -0.3372,3.025 -1.02632,6.4 -1.53125,7.5 -0.50493,1.1 -1.78361,6.275 -2.84179,11.50002 -1.05817,5.225 -2.44424,11.3 -3.08008,13.5 -0.63585,2.2 -1.50494,5.8 -1.93164,8 -0.42669,2.2 -1.25799,5.125 -1.84766,6.5 -0.58966,1.375 -2.28618,6.325 -3.76953,11 -4.602,14.5039 -14.22392,33.0002 -20.72461,39.8418 -1.77769,1.8709 -5.48242,4.4673 -8.23242,5.7695 -5.95151,2.8184 -5.62442,2.8125 -12.26172,0.2617 -5.31597,-2.043 -10.90308,-7.474 -14.22851,-13.8281 -0.82953,-1.5851 -3.38628,-6.1802 -5.68164,-10.2129 -2.29546,-4.0328 -5.16295,-9.807 -6.3711,-12.832 -7.14996,-17.9023 -16.01219,-53.52742 -19.4043,-78.00002 -0.87671,-6.325 -1.79726,-12.175 -2.04492,-13 -0.41082,-1.3685 -2.31626,-18.5289 -4.60937,-41.5 -1.5578,-15.605 -2.22736,-90.3419 -0.99414,-111.0254 1.24558,-20.8907 3.39149,-42.84 5.61718,-57.4746 0.79465,-5.225 2.14287,-14.45 2.99805,-20.5 0.85517,-6.05 2.25402,-14.15 3.10742,-18 3.34026,-15.0692 9.5777,-38.9964 10.80078,-41.4336 0.70854,-1.4119 1.57282,-4.0666 1.92188,-5.9004 0.78226,-4.1096 10.0426,-25.2127 13.45703,-30.666 6.61397,-10.5634 13.43275,-16.1775 20.24609,-16.918 z m -259.22851,85.9375 c 0.76132,0.3808 -0.82661,1.9517 -3.97266,3.5567 -10.54361,5.3789 -44.49269,17.4133 -56.10937,19.8906 -2.33264,0.4974 -6.11587,1.3775 -8.40821,1.9551 -19.34808,4.8756 -63.50916,9.4352 -121.37695,12.5312 -15.6505,0.8373 -36.55703,1.9555 -46.457028,2.4863 -9.899998,0.5307 -27,0.8778 -38,0.7696 -24.53799,-0.2414 -70.920278,-1.2215 -71.210938,-1.5039 -2.05166,-1.9937 -8.218602,-12.5093 -7.765622,-13.2422 0.40483,-0.655 23.0557394,-0.9739 65.32031,-0.9199 61.251688,0.079 93.691968,-0.7685 118.656248,-3.0977 6.05,-0.5644 21.575,-1.9073 34.5,-2.9844 33.80938,-2.8173 74.96533,-7.9794 95.84766,-12.0215 16.149,-3.1259 35.43845,-6.9219 37.40234,-7.3613 0.80526,-0.1801 1.32045,-0.1819 1.57422,-0.059 z m -371.025388,27.6113 v 0 0.01 c 3.22736,-0.047 6.47619,1.4264 9.5625,4.4238 5.62108,5.4591 12.554025,16.9691 14.029295,23.293 0.7315,3.1356 2.009597,7.0392 2.841797,8.6738 1.86018,3.6538 5.767578,20.4589 5.767578,24.8047 0,1.7495 0.4930704,4.7525 1.0937504,6.6738 2.955109,18.7757 13.445525,152.1114 -29.7656604,169.6247 -4.14185,1.7306 -4.23909,1.7242 -7.82813,-0.5214 -7.45357,-4.6634 -15.68666,-17.8165 -19.47656,-31.1153 -0.70533,-2.475 -1.86921,-6.3 -2.58789,-8.5 -0.71869,-2.2 -1.82252,-7.15 -2.45313,-11 -0.63062,-3.85 -1.54628,-8.575 -2.03515,-10.5 -0.48887,-1.925 -1.35772,-8.45 -1.92969,-14.5 -0.57197,-6.05 -1.55112,-15.7278 -2.17578,-21.5058 -0.72612,-6.7164 -0.85312,-15.0116 -0.35157,-23 0.43146,-6.872 0.71084,-15.4192 0.61914,-18.9942 -0.0916,-3.575 0.27852,-9.425 0.82422,-13 0.5457,-3.575 1.72456,-11.675 2.61914,-18 0.89459,-6.325 2.67872,-15.1 3.96485,-19.5 1.28613,-4.4 3.07796,-10.9176 3.98047,-14.4824 2.25455,-8.9052 9.56132,-23.755 13.86718,-28.1816 3.00149,-3.0857 6.20623,-4.6525 9.4336,-4.6993 z m 2.93165,10.1526 v 0 0.012 c -0.95435,-0.101 -1.81121,0.3591 -3.52344,1.2812 -4.85768,2.6161 -14.47137,13.4759 -15.97851,18.0508 -1.66269,5.0471 -4.7411,17.4251 -6.06055,24.3613 -0.57543,3.025 -1.51686,7.975 -2.08984,11 -3.20169,16.9001 -3.48353,21.5182 -3.33594,54.5 0.1382,30.8845 0.38052,35.4662 2.65234,50 3.08945,19.7647 3.81379,23.2987 6.47461,31.5938 5.73184,17.8689 11.90604,26.2043 20.31445,27.4297 4.56841,0.6657 4.80757,0.5665 9.8086,-4.1114 12.991045,-18.0125 15.441827,-43.7719 20.082153,-64.4306 2.1671704,-16.875 1.4888724,-78.4278 -0.986328,-89.5 -0.49181,-2.2 -1.624379,-7.825 -2.517579,-12.5 -0.89319,-4.675 -2.476014,-11.2 -3.515624,-14.5 -1.03962,-3.3 -2.424999,-8.3808 -3.080079,-11.2891 -1.47909,-6.5666 -8.304703,-16.1328 -14.136723,-19.8144 -2.10125,-1.3265 -3.15308,-1.9889 -4.10742,-2.0899 z m -1.33594,9.1075 c 2.40439,-0.2419 4.83033,0.6051 6.96484,2.4785 2.43487,2.1368 8.93197,15.8726 9.996103,21.1328 0.27816,1.375 1.021563,4.3 1.652343,6.5 3.97029,13.8471 8.695695,62.2485 6.302735,64.5625 -1.10165,1.0653 -20.166331,2.388 -34.810551,2.414 l -12,0.024 v 2.5 2.5 l 14.5,0.7461 c 7.975,0.4107 18.1,0.7356 22.5,0.7246 4.4,-0.012 8.601962,0.3782 9.335942,0.8652 3.35584,2.227 -1.87377,51.4784 -7.34375,69.1641 -4.278672,13.834 -6.328142,18.3222 -10.402352,22.7793 -2.16576,2.3693 -4.76872,4.2207 -5.93554,4.2207 -5.49771,0 -13.9821,-14.2992 -17.20703,-29 -0.6636,-3.025 -1.78119,-7.525 -2.48243,-10 -0.70124,-2.475 -1.80317,-9.45 -2.44921,-15.5 -0.64613,-6.05 -1.57899,-14.2214 -2.07227,-18.1582 -1.22163,-9.7494 -1.16253,-42.6959 0.0977,-54.3418 3.63741,-33.6246 7.33304,-50.4241 14.00781,-63.6641 3.05251,-6.055 4.85073,-8.4657 6.96094,-9.3398 0.78465,-0.325 1.5833,-0.5268 2.38476,-0.6074 z"
       sodipodi:nodetypes="ssssssssssssssssssscsssssscsscscsssscssssssssssssccsssccssssscssssssssssssssssssssssssssscssssssssssssssssssssssssssssssssssssssssssssssssssssssssssscccsssscccssssccsssccsssssssssscsssssssssscssssssssssssssssssssssssssssssssssssssssccsssssscssssssscsssssccsssssssssscsssssssssssssssssssssssssscsssssssssscscsssssssssssssssssssssssssssssssssssssssscsscssssscsssscccccssssccsssssssssssssscccccssscssssccssssscccsssscccccccssssssscsscc" />
    <text
       xml:space="preserve"
       style="font-style:normal;font-weight:normal;font-size:40px;line-height:1.25;font-family:sans-serif;fill:#000000;fill-opacity:1;stroke:none"
       x="47.275028"
       y="957.65869"
       id="text15027"><tspan
         sodipodi:role="line"
         id="tspan15025"
         x="47.275028"
         y="957.65869">$d\sigma=2\pi b db$</tspan></text>
    <text
       xml:space="preserve"
       style="font-style:normal;font-weight:normal;font-size:40px;line-height:1.25;font-family:sans-serif;fill:#000000;fill-opacity:1;stroke:none"
       x="-174.7914"
       y="810.6969"
       id="text22177"><tspan
         sodipodi:role="line"
         id="tspan22175"
         x="-174.7914"
         y="810.6969">b</tspan></text>
    <text
       xml:space="preserve"
       style="font-style:normal;font-weight:normal;font-size:40px;line-height:1.25;font-family:sans-serif;fill:#000000;fill-opacity:1;stroke:none"
       x="307.8739"
       y="908.5849"
       id="text27163"><tspan
         sodipodi:role="line"
         id="tspan27161"
         x="307.8739"
         y="908.5849">0</tspan></text>
    <text
       xml:space="preserve"
       style="font-style:normal;font-weight:normal;font-size:40px;line-height:1.25;font-family:sans-serif;fill:#000000;fill-opacity:1;stroke:none"
       x="734.70575"
       y="727.60052"
       id="text30233"><tspan
         sodipodi:role="line"
         id="tspan30231"
         x="734.70575"
         y="727.60052">$\theta$</tspan></text>
    <text
       xml:space="preserve"
       style="font-style:normal;font-weight:normal;font-size:40px;line-height:1.25;font-family:sans-serif;fill:#000000;fill-opacity:1;stroke:none"
       x="126.82546"
       y="1082.3358"
       id="text32481"><tspan
         sodipodi:role="line"
         id="tspan32479"
         x="126.82546"
         y="1082.3358">$d\Omega = 2\pi \sin \theta d\theta$</tspan></text>
  </g>
</svg>
